<svg width="110" height="191" fill="none" xmlns="http://www.w3.org/2000/svg"><path d="M26.343 132.473c0-6.179.706-11.829 2.118-16.949a41.654 41.654 0 016.886-14.036c3.178-4.413 7.503-8.298 12.977-11.652 3-1.766 6.532-3.708 10.593-5.826a84.89 84.89 0 0011.652-7.945 40.88 40.88 0 009.269-10.593c2.648-4.061 3.972-8.828 3.972-14.301 0-5.826-1.412-10.681-4.237-14.566-2.825-4.06-6.444-7.062-10.858-9.004-4.237-2.118-8.916-3.177-14.036-3.177-5.473 0-10.505 1.147-15.095 3.442s-8.563 5.209-11.917 8.74c-3.355 3.53-6.18 7.238-8.475 11.122L.125 34.752c3.178-7.239 7.592-13.418 13.241-18.538C19.016 11.094 25.46 7.21 32.7 4.56 39.937 1.913 47.529.59 55.474.59c6.532 0 12.976 1.06 19.332 3.178C81.339 5.71 87.165 8.8 92.285 13.037c5.12 4.237 9.181 9.622 12.182 16.154 3.178 6.356 4.767 14.036 4.767 23.04 0 6.18-.795 11.565-2.384 16.155-1.412 4.414-3.531 8.386-6.356 11.917-2.824 3.531-6.09 6.709-9.798 9.534-3.708 2.648-7.768 5.208-12.182 7.68a322.357 322.357 0 00-12.977 8.21c-4.237 2.648-7.768 6.002-10.593 10.063-2.825 4.061-4.237 9.622-4.237 16.684H26.343zM27.137 191v-33.368h24.1V191h-24.1z" fill="#ED502D"/></svg>