<svg width="365" height="161" fill="none" xmlns="http://www.w3.org/2000/svg"><path fill="url(#paint0_radial_676_923)" d="M0 0h365v161H0z"/><mask id="a" style="mask-type:alpha" maskUnits="userSpaceOnUse" x="0" y="0" width="365" height="161"><path fill="url(#paint1_radial_676_923)" d="M0 0h365v161H0z"/></mask><g style="mix-blend-mode:color-burn" fill="#5D5D5D" mask="url(#a)"><path d="M36.89 291.14c18.113-2.143 37.536-23.95 37.781-42.423.383-28.376-15.273-50.949-30.424-72.827-2.58-3.703-5.24-7.548-7.752-11.351l-1.502-2.27c-7.138-10.669-15.219-22.701-17.84-35.839-2.224-11.081-5.623-36.89-1.924-45.77 2.73-6.513 10.442-10.245 17.908-13.863 5.16-2.483 10.046-4.838 13.472-8.073l.15-.141c11.71-11.039 11.71-11.039 19.696-11.351 2.416-.085 5.46-.184 9.663-.61a68.793 68.793 0 0011.507-2.043c1.204-.373 2.445-.6 3.698-.681 2.457 0 4.518 1.802 11.329 7.803 20.133 17.721 19.751 48.538 19.382 78.347-.464 37.499-.942 76.289 39.896 88.562a59.4 59.4 0 0016.994 2.653c15.355 0 28.417-7.094 37.794-20.615 13.759-19.778 17.417-50.666 9.104-76.843-19.204-60.413-65.093-94.96-114.462-127.877C66.51-33.995 23.774-42.238-12.751-47.615a52.56 52.56 0 00-7.48-.582c-14.81 0-21.839 7.832-30.765 17.735a158.425 158.425 0 01-11.33 11.733c-5.022 4.583-11.41 7.733-17.58 10.77-10.072 4.95-19.586 9.619-23.517 20.019-8.339 22.062 12.148 39.244 30.233 54.411 8.367 7.094 16.27 13.663 20.897 20.29 18.372 26.275 12.871 70.585-3.78 95.485-5.201 7.761-15.165 17.38-25.702 27.553-17.471 16.856-37.276 35.967-40.77 52.014-1.652 7.562-1.215 12.769 1.365 16.118 2.115 2.752 5.678 4.086 10.919 4.086 8.585 0 20.883-3.675 33.89-7.577 15.902-4.753 33.933-10.144 49.302-10.144a42.64 42.64 0 0118.549 3.632 79.685 79.685 0 0115.792 10.769c8.012 6.47 15.574 12.585 26.275 12.585a31.915 31.915 0 003.344-.142zm-45.22-23.808a43.344 43.344 0 00-18.835-3.689c-15.478 0-33.55 5.406-49.492 10.173-12.967 3.888-25.21 7.548-33.7 7.548-4.981 0-8.366-1.248-10.346-3.816-2.388-3.122-2.729-8.187-1.187-15.508 3.453-15.848 23.204-34.874 40.579-51.659 10.564-10.201 20.556-19.863 25.797-27.681 16.788-25.085 22.316-69.777 3.78-96.309-4.681-6.697-12.625-13.365-21.033-20.416-17.894-15.011-38.217-32.023-30.028-53.603C-98.96 2.242-89.569-2.384-79.591-7.265c6.224-3.064 12.652-6.214 17.744-10.868a162.458 162.458 0 0011.37-11.776c8.803-9.79 15.764-17.522 30.273-17.522a49.26 49.26 0 017.384.582c36.457 5.363 79.165 13.592 123.853 43.43 49.246 32.845 95.039 67.308 114.161 127.508 8.258 25.964 4.641 56.596-8.994 76.204-9.241 13.295-22.126 20.318-37.249 20.318a58.683 58.683 0 01-16.829-2.639c-18.099-5.449-29.537-16.615-34.997-34.151-4.873-15.721-4.641-35.045-4.409-53.73.369-29.966.751-61.01-19.627-78.886-9.745-8.584-10.005-8.712-15.628-7.265a67.96 67.96 0 01-11.397 2.03c-4.232.41-7.22.51-9.623.595-8.19.298-8.19.298-20.133 11.507l-.163.142c-3.344 3.15-8.19 5.49-13.295 7.96-7.588 3.66-15.437 7.462-18.248 14.187-3.768 9.066-.355 35.031 1.883 46.182 2.648 13.21 10.77 25.369 17.949 36.109l1.501 2.256c2.512 3.788 5.173 7.633 7.753 11.351 15.014 21.778 30.683 44.309 30.301 72.359-.246 18.175-19.355 39.613-37.18 41.727a30.15 30.15 0 01-3.358.199c-10.469 0-17.949-6.03-25.852-12.429-4.886-3.859-9.936-7.945-15.928-10.783zm364.465-195.1c-.677-.526-1.746-1.492-3.086-2.728C347.892 64.8 339.27 56.9 333.206 56.9a5.382 5.382 0 00-3.168.941 5.794 5.794 0 00-2.11 2.654c-1.421 2.998 1.692 9.946 3.749 14.508.501 1.122.934 2.088 1.205 2.841a251.566 251.566 0 011.488 3.922 247.638 247.638 0 018.054 24.923c.23.924.446 1.961.69 3.07 1.002 4.731 2.26 10.614 5.414 13.498a9.475 9.475 0 003.505 2.203c.488.155.994.237 1.503.241 3.681 0 6.212-4.39 8.662-8.639a65.69 65.69 0 011.706-2.842l.555-.881c9.325-14.905 14.956-23.9-2.193-36.404-1.706-1.265-3.871-2.97-6.131-4.703zm7.714 40.624l-.541.867c-.582.938-1.164 1.947-1.732 2.913-2.342 4.078-4.778 8.298-8.121 8.298a4.365 4.365 0 01-1.354-.213 8.87 8.87 0 01-3.248-2.06c-2.951-2.729-4.182-8.526-5.171-13.101a84.43 84.43 0 00-.69-3.112 243.269 243.269 0 00-8.121-24.994 257.975 257.975 0 00-1.502-3.922c-.284-.725-.717-1.705-1.218-2.842-1.882-4.192-5.022-11.211-3.749-13.897a5.085 5.085 0 011.857-2.366 4.718 4.718 0 012.812-.831c5.82 0 14.32 7.787 19.396 12.433 1.353 1.236 2.422 2.217 3.14 2.842 2.26 1.734 4.426 3.382 6.104 4.604 16.729 12.05 11.234 20.83 2.138 35.381z"/><path d="M367.417 56.484c-3.006-2.296-5.999-4.864-9.168-7.589-9.698-8.303-20.688-17.704-30.564-17.704a15.01 15.01 0 00-5.644 1.099c-17.438 6.904-14.963 26.249-11.902 37.09 1.863 6.663 4.271 13.268 6.597 19.644a229.352 229.352 0 017.454 22.954 119.236 119.236 0 012.339 14.508c1.755 14.765 3.414 28.703 22.185 28.703 1.483 0 3.088-.086 4.761-.257a24.836 24.836 0 005.441-1.084c4.992-1.684 6.488-4.851 8.746-9.658.68-1.427 1.455-3.11 2.421-4.879a92.106 92.106 0 014.693-7.732v-.742a99.115 99.115 0 00-5.101 8.317c-.966 1.783-1.741 3.438-2.435 4.893-2.217 4.708-3.672 7.818-8.501 9.458a24.814 24.814 0 01-5.305 1.056 46.414 46.414 0 01-4.72.257c-18.417 0-19.968-13.125-21.763-28.332a118.196 118.196 0 00-2.353-14.565 233.393 233.393 0 00-7.468-22.996c-2.326-6.377-4.733-12.954-6.583-19.602-3.006-10.784-5.441-29.858 11.643-36.648a14.57 14.57 0 015.509-1.07c9.739 0 20.662 9.358 30.305 17.618 3.17 2.71 6.176 5.279 9.182 7.59 2.271 1.74 4.271 3.266 5.767 4.35l1.836 1.327v-.528l-1.605-1.155c-1.51-1.07-3.509-2.596-5.767-4.323zm-41.696-206.747h-10.127c-9.308 0-16.705.526-24.88 3.116a73.721 73.721 0 00-12.133 5.521c-6.469 3.429-12.57 6.673-19.872 6.673a24.172 24.172 0 01-3.644-.27c-5.391-.811-9.43-4.127-13.334-7.328-4.381-3.6-8.516-7.001-14.33-7.001a15.76 15.76 0 00-1.611.085c-3.575.385-9.321 3.743-14.862 7.001a76.335 76.335 0 01-9.335 4.98 62.607 62.607 0 01-7.985 2.462c-5.745 1.423-6.469 1.949-9.253 12.962a137.023 137.023 0 00-1.87 8.637c-2.006 10.217-3.589 18.227-14.03 25.868-7.056 5.194-15.995 7.712-27.296 7.712-11.3 0-22.997-2.447-33.369-4.624-5.459-1.124-10.55-2.191-14.344-2.618-2.211-.242-5.623-.398-9.117-.398-10.017 0-21.755 3.827-22.574 9.32-.395 2.589 1.556 6.502 13.048 10.33l1.27.426C119.84-52.78 150.371-33.672 181.447-1.486c8.557 8.879 15.108 13.02 20.595 13.02a10.22 10.22 0 003.739-.712c5.828-2.263 10.073-9.96 15.013-18.81 2.539-4.582 5.459-9.776 8.83-14.785 16.162-23.973 39.64-41.529 66.603-49.8a79.41 79.41 0 0122.601-3.487c23.57 0 40.207 12.038 55.956 24.417v-.896c-15.722-12.337-32.359-24.19-55.956-24.19a80.24 80.24 0 00-22.847 3.543c-27.117 8.33-50.725 25.996-66.971 50.115-3.425 5.022-6.319 10.23-8.857 14.826C215.295.52 211.105 8.09 205.51 10.253a9.855 9.855 0 01-3.508.654c-5.295 0-11.683-4.07-20.117-12.806-31.158-32.27-61.757-51.423-105.635-66.093l-1.283-.427c-8.599-2.846-13.075-6.26-12.584-9.533.683-4.568 11.123-8.722 21.905-8.722 3.467 0 6.824.156 9.035.398 3.78.412 8.885 1.423 14.29 2.618 10.399 2.12 22.191 4.639 33.505 4.639 11.315 0 20.568-2.562 27.733-7.84 10.659-7.869 12.283-16.051 14.303-26.424.546-2.746 1.092-5.577 1.87-8.537 2.729-10.97 3.33-11.113 8.735-12.464a61.987 61.987 0 008.066-2.476 75.199 75.199 0 009.43-5.037c5.241-3.059 11.164-6.531 14.604-6.901a14.188 14.188 0 011.542-.086c5.568 0 9.622 3.33 13.921 6.845 3.971 3.258 8.066 6.63 13.648 7.47 1.243.186 2.497.281 3.753.284 7.465 0 13.921-3.429 20.172-6.744a72.968 72.968 0 0112.037-5.478c8.08-2.562 15.436-3.088 24.676-3.088h10.126a79.273 79.273 0 0122.806 3.102 168.838 168.838 0 0126.245 10.572v-.797a169.944 169.944 0 00-26.067-10.515 79.685 79.685 0 00-22.997-3.13z"/><path d="M367.773 69.153c-1.579-1.132-3.718-2.746-5.951-4.445-3.201-2.435-6.293-5.054-9.534-7.857-.736-.623-1.553-1.33-2.411-2.095-5.448-4.842-13.007-11.467-19.913-11.467a9.62 9.62 0 00-5.27 1.543c-11.945 7.673-4.767 26.02-.464 36.991.518 1.331 1.008 2.591 1.362 3.71a232.08 232.08 0 017.791 23.811c.395 1.557.79 3.398 1.199 5.337 1.906 8.891 4.521 21.08 11.073 25.483a8.22 8.22 0 003.377 1.344 8.6 8.6 0 001.063.071c8.008 0 15.99-12.642 21.792-21.886 1.062-1.671 2.015-3.185 2.901-4.502v-.736c-.967 1.416-2.043 3.114-3.242 5.011-5.775 9.16-13.688 21.688-21.479 21.688a7.71 7.71 0 01-1.007-.07 7.691 7.691 0 01-3.215-1.274c-6.401-4.247-8.989-16.38-10.896-25.214-.422-1.939-.817-3.779-1.212-5.351a229.681 229.681 0 00-7.804-23.854 140.455 140.455 0 00-1.43-3.71c-4.236-10.843-11.346-28.978.313-36.481a9.26 9.26 0 015.053-1.416c6.81 0 14.206 6.569 19.654 11.326.858.764 1.661 1.415 2.424 2.123 3.282 2.832 6.374 5.408 9.534 7.843 2.234 1.699 4.372 3.313 5.966 4.46a652.037 652.037 0 006.564 4.657l.709.496v-.51l-.504-.354c-2.125-1.628-4.318-3.143-6.443-4.672z"/><path d="M296.851 169.793c.763 1.05 2.221 2.497 5.86 2.838 13.63 1.164 34.211 2.923 51.588 19.412l.205.184c6.159 5.971 11.044 13.222 14.338 21.285.995 2.327 2.603 3.675 4.403 3.675a3.757 3.757 0 001.499-.326v-.511a3.263 3.263 0 01-1.499.412c-1.636 0-3.108-1.249-4.021-3.42-3.326-8.106-8.248-15.396-14.448-21.398l-.204-.199c-17.487-16.574-38.163-18.334-51.792-19.511-3.476-.284-4.839-1.632-5.575-2.625a11.294 11.294 0 01-1.745-7.095c1.895-8.685 4.253-19.497 3.367-31.332-1.499-20.022-9.186-37.22-16.628-53.921-5.97-13.353-12.73-28.494-10.386-35.39 4.184-12.289 21.276-29.884 28.431-36.894 4.296-4.339 10.058-6.745 16.042-6.698 2.861.022 5.702.5 8.424 1.42 12.539 4.256 30.284 13.849 50.075 27.088v-.482c-19.722-13.183-37.427-22.79-49.953-26.961a27.156 27.156 0 00-8.546-1.42c-6.102-.055-11.979 2.397-16.355 6.826-7.169 7.01-24.315 24.676-28.527 37.05-2.399 7.095 4.403 22.278 10.4 35.716 7.428 16.602 15.101 33.772 16.587 53.723.872 11.763-1.472 22.534-3.367 31.218a11.9 11.9 0 001.827 7.336z"/><path d="M322.201 157.423c3.128 1.782 7.408 2.538 11.564 3.265a52.035 52.035 0 018.821 2.081 54.436 54.436 0 015.35 2.509c3.924 2.01 8.382 4.276 12.456 4.276.752.002 1.501-.08 2.236-.242l.563-.157c5.816-1.796 8.917-9.38 11.592-16.336v-1.183.114c-2.744 7.127-5.79 15.153-11.661 16.963l-.521.143a8.93 8.93 0 01-2.154.242c-3.964 0-8.382-2.252-12.278-4.276a55.698 55.698 0 00-5.391-2.538 51.842 51.842 0 00-8.889-2.081c-4.116-.727-8.368-1.425-11.427-3.221-6.777-3.863-6.078-10.934-5.323-18.418.37-2.89.499-5.809.384-8.723-1.77-23.72-10.247-42.665-18.451-60.982a32.867 32.867 0 01-2.984-12.745 32.948 32.948 0 012.216-12.913 36.124 36.124 0 018.075-12.04 34.53 34.53 0 0112.022-7.703 24.28 24.28 0 018.944-1.71c13.238 0 25.667 10.548 36.628 19.842 3.114 2.637 6.049 5.131 8.862 7.255l1.948 1.583V49.9l-1.77-1.34c-2.744-2.124-5.721-4.604-8.835-7.241-10.974-9.351-23.499-19.957-36.888-19.957-3.108.001-6.19.59-9.095 1.74a34.928 34.928 0 00-12.159 7.784 36.537 36.537 0 00-8.171 12.172 33.351 33.351 0 00-2.244 13.086 33.262 33.262 0 003.026 12.914c8.231 18.275 16.654 37.191 18.41 60.825a51.696 51.696 0 01-.384 8.653c-.728 7.398-1.482 14.882 5.528 18.887z"/><path d="M313.522 164.924c2.735.726 5.47 1.423 8.205 2.021 14.305 3.457 26.653 6.431 39.002 18.055l.246.242c2.831 2.675 5.074 3.97 6.838 3.97.267.004.534-.03.793-.099 2.735-.641 4.02-4.539 5.47-9.562.219-.768.465-1.551.711-2.319v-1.423a159.205 159.205 0 00-1.108 3.614c-1.436 4.88-2.735 8.665-5.183 9.263-1.777.441-4.102-.797-7.288-3.785l-.247-.228c-12.43-11.71-24.82-14.698-39.179-18.155-2.639-.641-5.374-1.295-8.205-2.021-10.038-2.618-8.342-12.435-6.701-21.926a51.922 51.922 0 001.19-12.023c-1.628-21.869-9.71-39.954-17.532-57.44-.93-2.092-1.928-4.14-2.899-6.119-5.032-10.244-9.367-19.109-3.159-30.008 4.663-8.195 11.651-14.91 18.421-21.342a434.812 434.812 0 003.623-3.5c2.906-2.66 6.693-4.037 10.558-3.842 16.848 0 42.762 18.653 57.668 29.88v-.527c-15.002-11.31-40.752-29.88-57.627-29.88-3.971-.194-7.86 1.224-10.845 3.956a421.503 421.503 0 01-3.624 3.5c-6.837 6.517-13.798 13.247-18.488 21.5-6.318 11.098-1.723 20.488 3.145 30.42.971 1.978 1.969 4.012 2.899 6.104 7.809 17.444 15.877 35.5 17.504 57.298a52.682 52.682 0 01-1.19 11.909c-1.668 9.733-3.405 19.749 7.002 22.467zM26.152 369.732c-3.459 5.416-7.751 12.17-6.275 16.833a7.123 7.123 0 001.785 2.69 6.774 6.774 0 002.754 1.575c.474.173.974.26 1.476.256 5.291 0 13.672-8.53 21.027-15.966 4.703-4.763 9.133-9.255 11.799-10.521 12.755-6.014 30.322-8.871 45.826-11.373 6.125-.996 11.894-1.948 17.239-3.029a176.235 176.235 0 0134.917-3.739c35.997 0 66.238 13.478 89.862 40.05 2.638 2.986 6.494 4.493 11.443 4.493 15.421 0 41.875-15.639 60.509-44.543 11.142-17.302 27.343-52.689 10.5-95.184-6.754-17.061-16.775-24.965-31.54-24.965-11.252 0-24.075 4.265-38.922 9.269-18.265 6.128-38.977 13.066-61.248 13.066-17.007.084-33.761-4.293-48.711-12.725-47.563-26.373-48.957-74.512-44.842-113.481 1.586-15.17-.998-27.17-7.506-34.704a23.596 23.596 0 00-8.184-6.137 22.76 22.76 0 00-9.903-2.01c-13.671 0-30.856 11.09-37.036 32.259-5.81 19.904 7.97 38.059 23.939 59.044 17.991 23.657 38.389 50.471 34.438 86.256-1.969 17.743-8.203 34.761-16.665 45.495-6.426 8.175-12.1 8.9-18.115 9.667-4.593.598-9.337 1.195-14.902 4.877-4.251 2.843-5.578 7.563-7 12.625a32.524 32.524 0 01-4.019 10.023c-1.12 1.621-3.076 1.976-5.14 2.346-2.734.497-5.797 1.052-7.437 4.706-1.135 2.545.369 5.544 1.818 8.445 1.203 2.417 2.46 4.919 2.092 6.994-.301 1.65-2.01 4.323-3.979 7.408zm2.584-14.8c-1.367-2.844-2.734-5.531-1.804-7.72 1.462-3.256 4.21-3.754 6.835-4.266 2.133-.383 4.334-.781 5.646-2.672a33.79 33.79 0 004.102-10.279c1.367-4.905 2.652-9.526 6.658-12.17 5.468-3.569 10.062-4.166 14.573-4.749 6.166-.782 12.004-1.535 18.62-9.952 8.573-10.89 14.862-28.079 16.844-45.964 3.992-36.126-16.515-63.082-34.602-86.867-15.832-20.8-29.49-38.77-23.802-58.291 6.07-20.8 22.845-31.676 36.284-31.676 3.29-.08 6.557.58 9.578 1.937a22.84 22.84 0 017.921 5.925c6.357 7.365 8.873 19.151 7.301 34.122-4.102 39.239-2.735 87.691 45.265 114.306 15.064 8.495 31.946 12.896 49.081 12.796 22.393 0 43.174-6.953 61.521-13.095 14.778-4.961 27.547-9.241 38.676-9.241 14.601 0 24.102 7.55 30.801 24.468 16.693 42.14.643 77.242-10.417 94.416-17.773 27.653-44.418 44.173-59.853 44.173-4.717 0-8.381-1.421-10.869-4.265-23.733-26.742-54.166-40.277-90.395-40.277a176.528 176.528 0 00-35.067 3.739c-5.318 1.095-11.101 2.033-17.212 3.028-15.558 2.531-33.18 5.403-46.032 11.459-2.734 1.308-7.068 5.687-12.017 10.677-7.273 7.379-15.517 15.725-20.507 15.725a3.39 3.39 0 01-1.217-.199 5.877 5.877 0 01-2.482-1.34 6.184 6.184 0 01-1.619-2.371c-1.367-4.265 2.816-10.848 6.18-16.122 2.023-3.171 3.76-5.901 4.1-7.735.493-2.345-.82-4.976-2.09-7.52z"/><path d="M356.278 272.819a15.08 15.08 0 008.025 1.807 35.486 35.486 0 0010.481-1.735v-1.053a34.272 34.272 0 01-10.481 1.792 14.338 14.338 0 01-7.506-1.65c-8.012-5.336-11.56-14.769-15.313-24.743-3.235-8.608-6.578-17.515-13.089-23.789v-.299h-.286c-7.466-6.872-17.538-10.216-30.776-10.216-12.911 0-26.49 3.23-37.395 5.833-7.465 1.765-13.893 3.301-18.042 3.301-2.43 0-3.917-.526-4.532-1.593-.805-1.423-.191-4.112 1.829-7.968 9.431-17.942 28.47-60.74 27.159-78.454-1.037-13.972-7.479-28.457-13.716-42.372-9.034-20.19-18.356-41.12-11.6-61.039 7.752-22.765 41.885-63.5 66.178-66.958a32.752 32.752 0 014.545-.299c15.79 0 38.91 9.818 62.998 24.032v-1.067c-24.102-14.229-47.194-23.96-62.998-23.96a32.52 32.52 0 00-4.681.312c-24.566 3.5-59.123 44.606-66.943 67.599-6.919 20.346 2.498 41.432 11.601 61.835 6.196 13.873 12.597 28.229 13.647 42.016 1.174 15.794-15.435 55.832-27.036 77.914-2.265 4.268-2.839 7.114-1.815 8.95.805 1.422 2.552 2.077 5.35 2.077 4.258 0 10.741-1.537 18.247-3.33 10.918-2.589 24.389-5.805 37.19-5.805 13.075 0 22.983 3.301 30.285 10.102 6.442 6.133 9.772 14.983 12.993 23.562 3.807 10.117 7.41 19.692 15.681 25.198z"/><path d="M45.897 354.342c1.455.295 2.937.419 4.419.37 4.16 0 19.56-.64 43.565-8.908a208.683 208.683 0 0166.112-10.713c37.127 0 61.801 5.797 93.568 37.479 2.445 2.319 5.672 3.534 8.975 3.382 13.817 0 34.699-15.628 47.548-35.647 10.039-15.628 24.62-47.495 9.548-85.613-6.493-16.395-14.636-18.668-22.465-18.668-9.684 0-21.823 4.063-35.845 8.78-18.904 6.351-40.332 13.54-64.106 13.54-18.571.098-36.867-4.68-53.195-13.895-53.195-29.551-53.918-84.619-49.84-123.462 1.269-12.033-.532-21.552-5.046-26.809a13.922 13.922 0 00-4.896-3.625 13.412 13.412 0 00-5.907-1.134c-10.107 0-22.846 8.61-27.634 25.033-4.324 14.861 7.965 31.029 22.192 49.726 18.195 23.939 40.823 53.774 36.418 93.555a106.874 106.874 0 01-8.716 32.321c-6.7 15.239-16.307 28.899-28.234 40.15a144.152 144.152 0 01-20.855 15.628c-5.088 3.296-8.184 5.285-7.939 6.791.096.753.832 1.25 2.333 1.719zm5.851-7.998a145.81 145.81 0 0020.91-15.628c11.966-11.297 21.608-25.004 28.343-40.292a107.661 107.661 0 008.743-32.45c4.351-40.221-18.29-70.099-36.568-94.095-14.158-18.64-26.379-34.737-22.123-49.37 4.733-16.24 17.281-24.735 27.279-24.735a13.056 13.056 0 015.74 1.1 13.55 13.55 0 014.763 3.517c4.432 5.172 6.192 14.563 4.937 26.483-4.092 38.956-3.369 94.208 50.058 123.887 16.383 9.248 34.738 14.046 53.372 13.952 23.828 0 45.284-7.217 64.243-13.582 13.994-4.689 26.065-8.752 35.695-8.752 7.693 0 15.686 2.231 22.083 18.47 15.003 37.933.463 69.615-9.548 85.243-12.576 19.55-33.745 35.448-47.207 35.448-3.198.153-6.323-1.022-8.689-3.268-15.399-15.358-29.734-25.119-45.092-30.716-13.231-4.817-27.812-6.877-48.762-6.877A209.054 209.054 0 0093.69 345.42c-23.965 8.24-39.31 8.88-43.442 8.88a19.25 19.25 0 01-4.324-.355c-1.255-.341-1.923-.753-1.991-1.237-.137-1.307 3.178-3.466 7.788-6.435l.027.071z"/><path d="M78.246 99.262c-7.304 0-15.33 7.734-17.96 14.657-1.745 4.6-.423 12.462 3.543 21.023 3.747 8.076 8.721 14.243 12.4 15.44a5.792 5.792 0 001.677.27 5.431 5.431 0 001.826-.327c4.742-1.738 4.633-4.772 4.401-11.395a113.692 113.692 0 01.464-17.434c1.09-10.355-.463-18.246-2.562-20.681a4.458 4.458 0 00-1.715-1.255 4.28 4.28 0 00-2.074-.298zm5.738 22.12a114.96 114.96 0 00-.464 17.534c.232 6.68.327 9.172-3.952 10.725a4.62 4.62 0 01-3.066 0c-3.516-1.097-8.326-7.122-11.992-15.07-3.884-8.389-5.206-16.023-3.53-20.439 2.549-6.723 10.303-14.243 17.335-14.243a3.734 3.734 0 011.785.227c.57.22 1.084.576 1.499 1.041 1.921 2.421 3.38 10.084 2.385 20.225zm-98.65-47.85c1.17 0 2.097-1.732 3.023-5.595 3.418-14.497 14.706-33.68 32.231-43.89C38.29 13.724 50.164 11.041 56.509 9.607c3.16-.71 4.74-1.08 5.12-1.946a1.343 1.343 0 00-.136-1.178c-1.225-2.329-23.149-15.15-54.822-17.82l-1.361-.114c-2.846-.241-5.31-.454-7.667-.454-8.238 0-14.896 2.414-30.42 16.088-2.45 2.158-4.956 4.16-7.38 6.091-7.503 6.006-13.985 11.189-13.617 17.04.327 4.514 4.602 9.002 13.494 14.1 9.832 5.679 15.823 16.868 19.786 24.28 2.6 4.728 4.262 7.838 5.828 7.838zm-25.341-32.46c-8.634-4.97-12.977-9.47-13.277-13.759-.408-5.68 5.992-10.777 13.4-16.698 2.437-1.946 4.942-3.948 7.407-6.12C-17.063-9.08-10.472-11.48-2.33-11.48c2.342 0 4.793.213 7.639.454l1.361.114C37.555-8.313 59.996 4.466 61.14 6.682c.245.454.19.681.136.809-.3.667-2.001 1.05-4.834 1.704-6.372 1.42-18.246 4.132-36.03 14.483C2.627 34.03-8.593 53.255-12.039 67.824c-.83 3.564-1.688 5.282-2.614 5.282-1.361 0-3.118-3.351-5.446-7.582-3.936-7.47-9.968-18.744-19.908-24.452z"/><path d="M-12.443 98.483c1.191 0 2.012-1.423 2.587-4.666 3.56-19.586 11.252-47.323 36.957-62.116a115.087 115.087 0 0127.458-11.08 23.999 23.999 0 006.583-3.713c2.834-1.977 5.776-4.04 8.487-4.04.307 0 .614.029.917.086a8.616 8.616 0 013.832 2.105 6.413 6.413 0 004.01 1.934 5.032 5.032 0 001.89-.412 5.208 5.208 0 002.34-2.305 3.804 3.804 0 011.59-1.8 3.591 3.591 0 012.311-.447c2.313.2 3.559 2.034 4.873 3.969a11.124 11.124 0 003.23 3.541 9.66 9.66 0 004.34 1.18c.425.05.857-.005 1.259-.16a2.747 2.747 0 001.054-.735 2.764 2.764 0 00.205-2.39c-.89-3.357-7.816-6.486-12.388-8.534-1.368-.612-2.532-1.138-3.27-1.55-6.846-3.757-13.69-6.943-19.384-9.56C42.185-13.232 20.08-19.96-1.15-22.776a49.03 49.03 0 00-6.337-.47c-10.457 0-18.56 4.751-34.684 20.34C-46.128.92-50.207 4.207-54.135 7.379c-8.829 7.112-15.796 12.73-15.632 19.8.137 5.59 4.805 11.535 14.673 18.718 15.906 11.564 26.474 29.13 33.454 40.751 4.312 7.112 7.131 11.835 9.198 11.835zm-42.431-53c-9.773-7.111-14.373-12.929-14.51-18.362-.15-6.856 6.735-12.418 15.468-19.459 3.942-3.186 8.02-6.472 11.99-10.312 16.042-15.504 24.077-20.227 34.41-20.227 2.103.02 4.2.176 6.284.47 21.188 2.845 43.266 9.53 67.48 20.54C71.997.748 78.786 3.92 85.602 7.662c.753.426 1.93.952 3.299 1.564 4.503 2.048 11.32 5.135 12.155 8.293a2.349 2.349 0 01-.137 2.02 2.51 2.51 0 01-.916.588 2.431 2.431 0 01-1.07.137 9.22 9.22 0 01-4.105-1.138 10.538 10.538 0 01-3.094-3.4c-1.369-1.934-2.737-3.926-5.174-4.153a3.975 3.975 0 00-2.53.488 4.207 4.207 0 00-1.754 1.958 4.82 4.82 0 01-2.149 2.134 4.49 4.49 0 01-1.738.37 6.091 6.091 0 01-3.764-1.835 8.858 8.858 0 00-3.929-2.148 4.548 4.548 0 00-.985-.1c-2.847 0-5.831 2.091-8.72 4.111a23.234 23.234 0 01-6.446 3.656 116.527 116.527 0 00-27.567 11.109C1.08 46.209-6.667 74.074-10.24 93.732c-.52 2.916-1.232 4.267-2.176 4.267-1.848 0-4.791-4.907-8.87-11.692-6.994-11.593-17.63-29.202-33.59-40.823z"/><path d="M38.256 276.69c4.805-.694 9.37-2.617 13.286-5.597 3.916-2.98 7.063-6.923 9.157-11.478 3.91-8.438 6.028-22.766-6.11-43.014-5.207-8.694-10.934-17.488-16.401-25.983-15.72-24.289-30.563-47.24-36.7-70.263C-5.442 94.315.12 72.83 19.01 52.752 35.413 35.364 56.98 25.39 78.318 25.39c16.033 0 30.344 5.877 40.281 16.534 10.934 11.725 16.402 28.857 15.787 49.574-.137 4.81-.356 9.776-.588 15.026-.834 18.697-1.763 39.842 1.134 57.514 3.335 20.277 11.249 32.727 24.18 38.291a50.579 50.579 0 0019.532 4.468 31.46 31.46 0 0015.185-3.725c4.696-2.506 8.735-6.165 11.769-10.661 11.358-16.008 14.078-43.413 6.766-68.2C196.686 71.023 159.057 39.263 103.276 5.27 60.904-20.556 25.189-28.524-7.151-33.291a47.027 47.027 0 00-6.834-.54c-13.49 0-19.928 7.114-28.061 16.22-3.13 3.487-6.356 7.115-10.36 10.758A81.953 81.953 0 01-64.6 2.21c-5.7 3.657-10.62 6.801-16.033 15.225-10.743 16.719 3.636 27.035 18.849 37.835 8.05 5.692 16.402 11.668 20.817 18.697 27.993 44.11 16.703 91.251-3.212 120.606-5.686 8.381-13.997 16.307-22.8 24.702-10.756 10.259-21.869 20.86-28.238 32.727-2.734 5.094-3.513 8.537-2.378 10.572.834 1.423 2.733 2.205 5.617 2.205 5.25 0 13.587-2.262 23.237-4.894 13.545-3.672 30.398-8.253 45.297-8.253a46.865 46.865 0 0120.106 3.898 73.223 73.223 0 0114.461 9.875c7.299 5.92 14.202 11.512 23.96 11.512a25.895 25.895 0 003.172-.228zm-41.388-21.514a46.598 46.598 0 00-20.27-3.927c-14.953 0-31.834 4.581-45.407 8.267-9.636 2.618-17.946 4.88-23.14 4.88-2.734 0-4.51-.654-5.263-1.992-1.066-1.878-.287-5.193 2.379-10.145 6.328-11.782 17.427-22.368 28.17-32.599 8.816-8.409 17.14-16.349 22.854-24.773 11.474-16.699 18.342-36.347 19.86-56.817 1.545-22.766-4.1-44.409-16.703-64.344-4.497-7.114-12.848-13.048-20.926-18.81-15.035-10.744-29.264-20.875-18.74-37.252C-74.945 9.324-70.065 6.193-64.42 2.58a81.232 81.232 0 0012.3-9.12 143.544 143.544 0 0010.402-10.786c8.064-8.979 14.448-16.079 27.76-16.079 2.265.015 4.526.195 6.766.54 32.299 4.753 68 12.722 110.263 38.505 55.644 33.936 93.273 65.639 108.924 118.685 7.271 24.673 4.579 51.936-6.712 67.83-2.992 4.446-6.981 8.066-11.621 10.545a31.044 31.044 0 01-15.004 3.684 49.973 49.973 0 01-19.355-4.397c-12.794-5.421-20.626-17.843-23.933-37.963-2.898-17.587-1.969-38.746-1.135-57.414.233-5.265.451-10.231.588-15.055.601-20.817-4.893-38.063-15.896-49.873C108.908 30.94 94.501 25.02 78.345 25.02c-21.445 0-43.165 9.96-59.594 27.49C8.718 63.183 2.513 74.183-.193 86.163c-2.42 10.7-1.996 21.942 1.366 34.364 6.151 23.094 21.009 46.059 36.755 70.391 5.467 8.538 11.18 17.274 16.402 25.968 12.042 20.106 9.95 34.264 6.082 42.602-2.07 4.481-5.173 8.36-9.032 11.292-3.858 2.931-8.352 4.825-13.083 5.513a28.735 28.735 0 01-3.09.185c-9.567 0-16.401-5.55-23.714-11.384a73.285 73.285 0 00-14.625-9.917z"/><path d="M47.346 259.233a15.455 15.455 0 004.289-4.937 16.143 16.143 0 001.933-6.35c1.637-13.992-10.261-34.417-20.96-47.64-13.33-16.511-26.567-34.161-33.035-51.241a65.716 65.716 0 01-1.446-6.149c-2.074-10.12-5.567-27.044-10.602-27.044a2.721 2.721 0 00-1.365.442c-2.088 1.295-2.729 3.843-1.883 7.8a61.496 61.496 0 003.575 10.234c1.433 3.487 2.73 6.49 2.661 8.198 0 4.384-2.02 6.32-3.916 8.199-1.742 1.417-2.996 3.384-3.575 5.608-.71 3.387.627 5.935 1.924 8.397 1.296 2.463 2.442 4.626 2.046 7.658-.723 5.551-17.616 25.62-32.516 43.313-12.281 14.646-22.979 27.3-22.788 29.719a.634.634 0 00.191.427c1.023.897 2.866 1.324 5.663 1.324a122.488 122.488 0 0017.643-2.22c8.61-1.424 18.367-3.075 26.84-3.075 6.619 0 11.572.982 15.133 3.004 1.952 1.11 4.094 2.405 6.386 3.8 10.18 6.163 22.843 13.849 33.568 13.849 3.664.072 7.253-1.091 10.234-3.316zm-50.038-14.76c-3.63-2.064-8.637-3.061-15.323-3.061-8.501 0-18.285 1.637-26.909 3.089a123.41 123.41 0 01-17.575 2.206c-2.73 0-4.462-.398-5.458-1.224v-.128c-.178-2.249 10.916-15.443 22.692-29.406 14.942-17.75 31.862-37.862 32.599-43.541.423-3.174-.846-5.594-2.075-7.928-1.228-2.334-2.565-4.854-1.896-8.099a10.255 10.255 0 013.452-5.38c1.965-1.936 3.998-3.943 4.094-8.54 0-1.794-1.242-4.84-2.73-8.37a62.293 62.293 0 01-3.547-10.162c-.778-3.744-.232-6.135 1.706-7.331a2.21 2.21 0 011.2-.384c4.708 0 8.283 17.408 10.207 26.759a63.626 63.626 0 001.446 6.277c6.496 17.08 19.759 34.773 33.104 51.241 10.643 13.166 22.487 33.449 20.877 47.312a15.83 15.83 0 01-1.895 6.187 15.162 15.162 0 01-4.177 4.816c-2.927 2.158-6.446 3.272-10.03 3.174-10.615 0-23.196-7.658-33.362-13.793a263.463 263.463 0 00-6.4-3.714zM158.81 124.018c-1.374 22.215 4.756 37.513 10.996 44.416 2.859 3.154 6.007 4.886 8.838 4.901 4 0 7.01-3.253 8.467-9.162 9.388-38.024-22.583-78.122-26.5-81.46-1.141-.966-1.91-1.094-2.419-.525-.921 1.036-.632 4.431-.11 10.596a205.127 205.127 0 01.728 31.234zm-.123-41.347a.32.32 0 01.233-.114c.193 0 .564.128 1.237.696 3.89 3.324 35.586 43.052 26.281 80.75-1.375 5.553-4.124 8.621-7.807 8.621-2.639 0-5.608-1.661-8.33-4.687-6.158-6.789-12.233-21.874-10.831-43.876a206.624 206.624 0 00-.715-31.348c-.426-5.355-.755-9.233-.068-10.042z"/><path d="M148.581 122.917c-1.593 21.513 2.527 38.928 11.591 49.025 4.738 5.29 10.561 8.197 16.398 8.197 8.322 0 14.982-5.97 16.96-15.202 5.782-26.945-3.172-51.28-11.701-66.908-10.011-18.351-22.838-31.341-29.004-35.596-2.266-1.546-3.845-2.51-4.82-2.51a1.082 1.082 0 00-.838.369c-.797.921-.467 3.56.178 8.778a253.324 253.324 0 011.236 53.847zm-1.112-62.398a.646.646 0 01.536-.227c.865 0 2.458.978 4.587 2.439 13.939 9.6 50.963 53.351 40.526 102.107-1.936 9.047-8.432 14.876-16.48 14.876-5.713 0-11.439-2.836-16.095-8.055-8.995-10.012-13.06-27.314-11.481-48.714a252.67 252.67 0 00-1.25-53.89c-.645-4.82-1.002-7.714-.343-8.537z"/><path d="M140.808 124.137c-1.576 26.824 3.342 47.996 13.816 59.64 5.433 6.035 12.008 9.216 19.018 9.216 13.449 0 24.833-11.36 28.351-28.301 5.176-24.964.72-49.544-13.231-73.045-14.142-23.813-33.704-39.22-44.11-46.278-5.298-3.593-7.566-5.084-8.436-4.004-.869 1.079-.244 3.493.68 8.633 2.037 11.105 6.235 34.293 3.912 74.139zm-4.266-82.488a.612.612 0 01.489-.213c1.101 0 3.478 1.618 7.418 4.26 34.668 23.53 67.923 67.109 57.15 118.882-3.464 16.728-14.698 27.96-27.943 27.96-6.915 0-13.395-3.138-18.734-9.073-10.405-11.559-15.269-32.661-13.706-59.328 2.323-39.86-1.875-63.091-3.899-74.238-.856-4.715-1.399-7.555-.775-8.293v.043zm-152.759-6.677c3.837 0 6.589-3.823 9.49-9.563 5.152-10.025 15.875-14.87 21.691-17.474 2.915-1.33 4.067-1.82 3.864-2.646-.204-.826-.868-.994-4.854-1.274-12.011-.84-38.962 10.99-42.026 19.896a4.72 4.72 0 00-.133 2.984c.28.983.871 1.84 1.679 2.434 4.623 3.949 7.713 5.6 10.344 5.6l-.055.043zM-27.21 24.247C-24.378 16.112.675 4.953 12.686 4.953h1.207a18.54 18.54 0 013.823.49 30.919 30.919 0 01-3.145 1.554C8.687 9.643-2.24 14.586-7.527 24.92c-3.335 6.496-5.775 9.03-8.69 9.03-2.386 0-5.3-1.623-9.747-5.418a3.595 3.595 0 01-1.347-1.918 3.709 3.709 0 01.1-2.366z"/><path d="M-4.32 34.626C4.954 17.12 21.906 11.013 35.63 7.642c1.361-.324 1.443-1.015 1.361-1.41-.313-2.821-13.166-8.308-32.35-8.308-2.166 0-4.385.07-6.59.211-8.756.55-29.425 13.217-36.859 22.569-1.933 2.426-2.805 4.457-2.6 6.008.517 3.893 3.867 5.643 7.733 7.617 4.085 2.116 8.755 4.514 11.015 10.114 1.362 3.244 3.05 4.894 5.134 4.894 3.594.028 8.02-4.923 13.207-14.712zm-17.7 9.563c-2.355-5.826-7.12-8.28-11.328-10.452-3.703-1.918-6.903-3.569-7.366-7.053-.177-1.34.667-3.244 2.45-5.487C-30.923 11.93-10.527-.595-1.881-1.13c2.179-.141 4.384-.212 6.536-.212 18.858 0 31.425 5.403 31.683 7.688 0 .366-.53.564-.885.648-13.86 3.4-30.975 9.578-40.384 27.322-7.856 14.712-13.67 18.28-17.074 9.874h-.014zm197.096 112.512c.728 0 1.4-.518 1.918-1.555 2.731-5.268 2.675-23.446-4.55-34.544-.952-1.439-2.31-1.238-3.332.576-2.716 4.807-3.85 20.151 3.542 33.421.784 1.411 1.596 2.102 2.422 2.102zm-5.096-35.005c.35-.648.742-1.022 1.036-1.022.294 0 .504.317.616.518 6.93 10.594 7.07 28.528 4.508 33.479-.336.662-.714 1.037-1.05 1.037-.336 0-1.008-.59-1.568-1.584-7.112-12.824-6.09-27.923-3.542-32.428zm93.742 78.638c.971 1.423 3.365 2.091 7.975 2.091 2.872 0 6.319-.242 10.299-.526 4.924-.342 10.518-.726 16.29-.726 18.301 0 30.625 4.04 38.845 12.803 7.646 6.117 11.872 16.089 15.593 24.88 4.513 10.698 8.425 19.916 17.056 19.916a13.88 13.88 0 002.872-.313 20.035 20.035 0 002.079-.569v-.74c-.766.256-1.518.455-2.216.612-.9.193-1.816.293-2.735.299-8.207 0-12.009-9.034-16.413-19.503-3.762-8.877-8.016-18.934-15.757-25.137-8.33-8.819-20.818-12.93-39.31-12.93-5.8 0-11.394.384-16.331.739-3.981.271-7.4.512-10.259.512-4.254 0-6.606-.569-7.413-1.792a2.932 2.932 0 010-2.746c8.713-24.183 15.989-54.824 15.292-64.255-1.231-16.516-8.207-32.121-14.964-47.2-8.207-18.493-16.058-35.89-11.106-50.429 6.839-20.2 38.298-55.266 55.395-57.684a19.72 19.72 0 012.735-.17c13.268 0 36.643 9.872 63.137 26.217v-.825c-26.467-16.274-49.828-26.104-63.137-26.104a19.044 19.044 0 00-2.817.185c-17.234 2.433-48.994 37.783-55.942 58.153-5.048 14.809 2.803 32.363 11.12 50.956 6.729 15.022 13.677 30.57 14.908 46.943.616 8.265-5.908 37.996-15.237 64.014a3.663 3.663 0 00.041 3.329z"/><path d="M284.788 181.653c2.534 3.815 7.888 4.271 15.299 4.826l2.479.214c2.343.199 4.795.285 7.384.37 12.043.441 25.693.925 38.022 12.656l.15.143c6.811 6.249 10.898 17.269 14.495 27.049 3.597 9.781 6.73 18.251 11.702 18.251h.463v-.441a2.557 2.557 0 01-.463 0c-4.686 0-7.765-8.328-11.321-17.981-3.555-9.652-7.697-20.828-14.604-27.163l-.15-.128c-12.437-11.845-26.17-12.329-38.281-12.813-2.588-.086-5.04-.171-7.37-.37l-2.479-.2c-7.302-.598-12.561-1.01-14.986-4.655-2.425-3.645-1.975-9.966 1.049-20.928a83.098 83.098 0 003.174-28.473c-1.362-18.294-8.678-34.737-15.762-50.64-7.383-16.585-14.358-32.26-10.707-43.022 6.075-17.924 35.42-49.558 47.572-51.252a9.713 9.713 0 011.444-.085c10.149 0 33.104 8.826 62.884 27.875v-.498c-29.753-19.006-52.708-27.804-62.884-27.804a10.434 10.434 0 00-1.499.085c-12.261 1.751-41.796 33.556-47.913 51.565-3.705 10.92 3.311 26.68 10.749 43.364 7.057 15.803 14.359 32.189 15.721 50.412a82.639 82.639 0 01-3.16 28.359c-3.106 11.304-3.406 17.682-1.008 21.284zM35.266 310.026c20.335-2.403 44.549-27.551 51.036-46.771 11.28-33.379-8.754-60.247-28.134-86.219-18.71-25.091-36.368-48.775-27.778-77.62 7.484-25.119 31.657-38.68 50.6-38.68 10.215 0 19.037 3.767 24.869 10.619 6.924 8.131 9.642 20.485 7.867 35.724-6.105 52.357-7.922 109.633 48.154 126.522a65.271 65.271 0 0018.888 2.914c23.6 0 38.677-14.088 47.158-25.887 16.266-22.646 21.92-56.523 14.053-84.3-6.664-23.542-19.789-46.373-40.097-69.8-30.209-34.83-71.331-64.783-125.74-91.551l-2.35-1.166C50.902-47.448 27.235-59.105 2.311-65.53c-1.475-.384-3.114-.84-4.862-1.323-7.703-2.118-17.276-4.776-25.498-4.776a24.403 24.403 0 00-8.467 1.308C-40.067-69-42.061-66.47-44-64.024a20.638 20.638 0 01-5.067 5.061 52.53 52.53 0 01-6.924 3.114c-4.603 1.848-9.383 3.767-10.926 5.6-2.909 3.555-2.117 5.687-1.365 7.763a6.67 6.67 0 01.396 4.976l-.533 1.648c-4.097 12.667-4.097 12.667-13.657 15.538a232.176 232.176 0 00-6.829 2.147c-7.853 2.601-11.076 6.61-14.189 10.491A27.674 27.674 0 01-112.026.39h-.383c-4.916 0-42.2 2.559-45.068 12.098-.778 2.573.901 5.373 4.985 8.302 3.287 2.623 7.303 4.065 11.444 4.108 1.202 0 2.281-.114 3.333-.213.847-.108 1.7-.17 2.554-.185 3.004 0 6.036.896 10.202 11.558 1.024 2.63 1.816 4.79 2.471 6.567 3.224 8.786 3.319 8.9 11.513 12.539 2.035.91 4.562 2.033 7.771 3.568 10.544 5.06 12.701 10.818 15.433 18.097a66.527 66.527 0 006.186 13.093 93.654 93.654 0 0010.926 13.547c6.679 7.236 12.988 14.074 15.023 25.489 3.483 19.775-6.829 38.654-18.492 56.111-5.654 8.458-17.276 18.324-29.581 28.758-20.813 17.699-44.495 37.772-44.577 56.381 0 10.619 2.568 18.765 7.785 24.167 5.681 5.942 14.312 8.842 26.399 8.842 17.508 0 39.046-6.155 58.043-11.586 15.022-4.265 27.86-7.947 36.123-7.947a15.814 15.814 0 014.698.583c7.962 2.46 14.285 7.72 20.39 12.795 8.098 6.752 15.76 13.121 26.7 13.121a27.81 27.81 0 003.414-.156zm-50.231-26.598a16.589 16.589 0 00-4.971-.626c-8.386 0-21.36 3.696-36.383 7.989-18.942 5.402-40.398 11.53-57.783 11.544-11.813 0-20.24-2.843-25.73-8.53-5.026-5.26-7.552-13.164-7.498-23.513.137-18.139 23.572-38.141 44.304-55.712 12.291-10.477 24.023-20.371 29.745-28.958 11.786-17.642 22.193-36.734 18.656-56.864-2.063-11.699-8.468-18.637-15.242-25.986a93.959 93.959 0 01-10.925-13.406 66.304 66.304 0 01-6.091-12.922c-2.814-7.478-5.026-13.392-15.925-18.623-3.223-1.55-5.749-2.672-7.784-3.582-7.894-3.512-7.894-3.512-11.008-11.984a350.883 350.883 0 00-2.472-6.582c-3.974-10.179-7.074-12.183-11.089-12.183a25.15 25.15 0 00-2.65.184c-1.024.1-2.089.214-3.237.214-3.955-.035-7.791-1.413-10.925-3.924-3.688-2.672-5.245-5.09-4.616-7.193 2.499-8.288 37.243-11.373 44.153-11.373h.342l.109-.455.205.427a28.433 28.433 0 009.382-8.402c3.168-3.952 6.16-7.662 13.753-10.193 2.731-.895 4.998-1.578 6.828-2.132 9.929-2.986 10.052-3.142 14.313-16.178l.546-1.649a7.66 7.66 0 00-.423-5.686c-.724-1.962-1.366-3.654 1.174-6.753 1.366-1.649 6.214-3.61 10.503-5.33a53.862 53.862 0 007.088-3.185 21.77 21.77 0 005.353-5.303c1.94-2.459 3.77-4.762 7.061-5.999a23.691 23.691 0 018.194-1.25c8.099 0 17.604 2.63 25.252 4.747 1.748.484 3.387.939 4.876 1.322 24.828 6.398 48.455 18.026 71.303 29.285l2.35 1.152c54.286 26.726 95.326 56.593 125.44 91.308 20.212 23.329 33.269 46.032 39.892 69.431 7.785 27.494 2.185 61-13.903 83.419-8.358 11.629-23.217 25.489-46.434 25.489a64.47 64.47 0 01-18.628-2.843c-55.311-16.647-53.522-73.468-47.472-125.47 1.816-15.524-.983-28.147-8.099-36.492-6.009-7.108-15.09-10.96-25.58-10.96-19.283 0-43.893 13.803-51.514 39.392-8.74 29.327 9.901 54.333 27.942 78.5 19.216 25.774 39.087 52.428 27.984 85.296-6.405 18.964-30.237 43.756-50.245 46.13-1.097.129-2.2.196-3.305.199-10.611 0-18.136-6.269-26.098-12.908-6.187-5.118-12.579-10.434-20.718-12.879z"/><path d="M160.305-99.19c-4.631 3.406-10.928 5.053-19.385 5.053-9.891 0-20.942-2.3-30.697-4.259-5.737-1.192-11.174-2.328-15.6-2.839a143.05 143.05 0 00-15.192-.809c-13.306 0-30.382 1.874-36.106 10.803-2.5 3.89-2.596 8.758-.315 14.507 1.08 2.683 3.866 4.16 6.558 5.565a15.627 15.627 0 015.546 3.96 27.55 27.55 0 013.129 7.694c1.106 3.705 2.24 7.524 4.822 9.781 3.078 2.744 7.025 4.206 11.08 4.102a46.038 46.038 0 009.084-1.249 45.095 45.095 0 018.948-1.235 15.37 15.37 0 017.514 1.789c5.464 2.839 7.718 6.814 9.931 10.604 2.883 4.94 5.601 9.596 14.563 11.782 18.771 4.557 23.907 9.326 36.325 20.839 1.599 1.42 3.32 3.08 5.205 4.798a78.266 78.266 0 0110.929 13.23 89.514 89.514 0 009.563 11.966 42.24 42.24 0 0013.306 8.745c5.656 2.683 10.997 5.21 15.847 13.855l.765 1.42c6.107 10.958 12.295 21.108 16.066 21.108.296.003.589-.06.858-.188s.508-.316.699-.55c1.366-1.548 1.735-5.679 1.134-12.634-.355-4.06-3.183-7.709-5.929-11.229-2.951-3.79-5.738-7.367-5.574-11.356.205-4.756 2.965-7.098 5.888-9.554a18.904 18.904 0 005.656-6.586c3.115-6.97 3.866-13.202 4.604-19.235 1.011-8.404 1.967-16.325 9.194-25.296 13.427-16.38 31.219-28.263 51.134-34.154a65.473 65.473 0 0118.921-2.981c20.491 0 35.136 11.569 50.683 23.805l5.327 4.174v-1.264c-1.598-1.235-3.183-2.484-4.754-3.719-15.669-12.35-30.478-24.004-51.256-24.004a66.38 66.38 0 00-19.126 2.995c-20.094 5.942-38.044 17.935-51.585 34.466-7.418 9.185-8.388 17.262-9.426 25.808-.724 5.962-1.462 12.122-4.508 18.936a18.03 18.03 0 01-5.397 6.232c-2.95 2.512-6.024 5.096-6.243 10.292-.177 4.33 2.856 8.233 5.793 11.995 2.65 3.407 5.382 6.927 5.71 10.703.71 8.162-.082 10.959-.874 11.867a1.15 1.15 0 01-.387.304 1.1 1.1 0 01-.474.108c-3.77 0-11.803-14.437-15.246-20.612l-.751-1.42c-5-8.928-10.492-11.512-16.284-14.266a41.734 41.734 0 01-13.047-8.517 89.873 89.873 0 01-9.481-11.839 79.233 79.233 0 00-11.093-13.4c-1.885-1.704-3.606-3.308-5.205-4.784-12.554-11.64-17.759-16.452-36.748-21.066-8.579-2.087-11.189-6.587-13.962-11.356-2.281-3.904-4.631-7.95-10.314-10.987a16.485 16.485 0 00-7.951-1.888 46.594 46.594 0 00-9.14 1.249 44.701 44.701 0 01-8.893 1.235c-3.83.103-7.56-1.278-10.464-3.876-2.364-2.072-3.47-5.678-4.522-9.297a27.846 27.846 0 00-3.279-7.992 15.965 15.965 0 00-5.888-4.26c-2.732-1.419-5.164-2.71-6.106-5.067-2.159-5.422-2.09-9.936.218-13.57 5.465-8.518 22.24-10.363 35.314-10.363a141.82 141.82 0 0115.028.795c4.399.497 9.809 1.618 15.533 2.839 9.795 2.03 20.888 4.344 30.874 4.344 8.606 0 15.137-1.704 19.932-5.238 11.953-8.773 8.524-22.017 5.218-34.836-3.552-13.684-7.213-27.837 7.514-37.064a13.092 13.092 0 017.008-1.675c8.812 0 21.216 5.011 33.21 9.852 10.451 4.258 20.315 8.19 26.735 8.346h2.733c13.798 0 27.746-2.47 41.229-4.869 13.484-2.399 27.391-4.854 41.148-4.854a92.25 92.25 0 0126.544 3.634 170.845 170.845 0 0122.663 8.701v-1.093a172.052 172.052 0 00-22.308-8.517 93.09 93.09 0 00-26.804-3.676c-13.838 0-27.8 2.484-41.297 4.869-13.498 2.384-27.323 4.854-41.08 4.854h-2.732c-6.257-.156-16.052-4.102-26.407-8.29-12.09-4.869-24.59-9.936-33.566-9.936a13.768 13.768 0 00-7.5 1.817c-15.341 9.624-11.584 24.132-7.95 38.171 3.36 13.045 6.543 25.381-4.837 33.756z"/></g><defs><radialGradient id="paint0_radial_676_923" cx="0" cy="0" r="1" gradientUnits="userSpaceOnUse" gradientTransform="rotate(19.62 -112.29 211.755) scale(312.7 672.378)"><stop stop-color="#F7FFE7"/><stop offset="1" stop-color="#FFE2D9"/></radialGradient><radialGradient id="paint1_radial_676_923" cx="0" cy="0" r="1" gradientUnits="userSpaceOnUse" gradientTransform="rotate(19.62 -112.29 211.755) scale(312.7 672.378)"><stop stop-color="#F7FFE7"/><stop offset="1" stop-color="#FFE2D9"/></radialGradient></defs></svg>