<svg width="366" height="161" fill="none" xmlns="http://www.w3.org/2000/svg"><path fill="url(#paint0_radial_676_1001)" d="M0 0h366v161H0z"/><mask id="a" style="mask-type:alpha" maskUnits="userSpaceOnUse" x="0" y="0" width="366" height="161"><path fill="url(#paint1_radial_676_1001)" d="M0 0h366v161H0z"/></mask><g style="mix-blend-mode:color-burn" fill="#5D5D5D" mask="url(#a)"><path d="M36.99 291.14c18.162-2.143 37.638-23.95 37.885-42.423.383-28.376-15.316-50.949-30.508-72.827-2.586-3.703-5.255-7.548-7.774-11.351l-1.505-2.27c-7.158-10.669-15.26-22.701-17.889-35.839-2.23-11.081-5.638-36.89-1.93-45.77 2.738-6.513 10.47-10.245 17.957-13.863C38.4 64.314 43.3 61.96 46.735 58.724l.15-.141C58.63 47.544 58.63 47.544 66.636 47.232c2.423-.085 5.475-.184 9.69-.61a69.153 69.153 0 0011.538-2.043c1.207-.373 2.452-.6 3.71-.681 2.463 0 4.53 1.802 11.359 7.803 20.188 17.721 19.804 48.538 19.435 78.347-.465 37.499-.944 76.289 40.006 88.562a59.7 59.7 0 0017.039 2.653c15.398 0 28.496-7.094 37.899-20.615 13.796-19.778 17.464-50.666 9.128-76.843-19.257-60.413-65.271-94.96-114.775-127.877C66.69-33.995 23.837-42.238-12.788-47.615a52.844 52.844 0 00-7.5-.582c-14.85 0-21.899 7.832-30.85 17.735a158.652 158.652 0 01-11.36 11.733c-5.036 4.583-11.441 7.733-17.628 10.77-10.1 4.95-19.64 9.619-23.582 20.019-8.362 22.062 12.181 39.244 30.316 54.411 8.39 7.094 16.314 13.663 20.954 20.29 18.422 26.275 12.907 70.585-3.79 95.485-5.215 7.761-15.207 17.38-25.773 27.553-17.518 16.856-37.378 35.967-40.881 52.014-1.656 7.562-1.219 12.769 1.368 16.118 2.122 2.752 5.694 4.086 10.949 4.086 8.609 0 20.94-3.675 33.984-7.577 15.945-4.753 34.025-10.144 49.436-10.144a42.859 42.859 0 0118.6 3.632A79.913 79.913 0 017.29 278.697c8.034 6.47 15.617 12.585 26.347 12.585 1.12.011 2.239-.036 3.353-.142zm-45.343-23.808a43.566 43.566 0 00-18.888-3.689c-15.52 0-33.641 5.406-49.627 10.173-13.003 3.888-25.279 7.548-33.792 7.548-4.996 0-8.39-1.248-10.375-3.816-2.395-3.122-2.737-8.187-1.19-15.508 3.462-15.848 23.267-34.874 40.69-51.659 10.593-10.201 20.612-19.863 25.867-27.681 16.835-25.085 22.378-69.777 3.791-96.309-4.694-6.697-12.66-13.365-21.09-20.416-17.944-15.011-38.323-32.023-30.111-53.603 3.846-10.13 13.262-14.756 23.267-19.637 6.241-3.064 12.688-6.214 17.793-10.868a162.668 162.668 0 0011.4-11.776c8.828-9.79 15.809-17.522 30.357-17.522a49.53 49.53 0 017.405.582C23.7-41.486 66.526-33.257 111.336-3.42c49.381 32.845 95.299 67.308 114.474 127.508 8.28 25.964 4.653 56.596-9.02 76.204-9.265 13.295-22.185 20.318-37.35 20.318a58.996 58.996 0 01-16.876-2.639c-18.148-5.449-29.617-16.615-35.092-34.151-4.886-15.721-4.653-35.045-4.421-53.73.37-29.966.753-61.01-19.681-78.886-9.772-8.584-10.032-8.712-15.671-7.265a68.21 68.21 0 01-11.428 2.03c-4.243.41-7.24.51-9.65.595-8.211.298-8.211.298-20.187 11.507l-.164.142c-3.354 3.15-8.212 5.49-13.331 7.96-7.61 3.66-15.48 7.462-18.299 14.187-3.777 9.066-.356 35.031 1.889 46.182 2.655 13.21 10.799 25.369 17.998 36.109l1.505 2.256c2.519 3.788 5.187 7.633 7.774 11.351 15.055 21.778 30.767 44.309 30.384 72.359-.246 18.175-19.407 39.613-37.282 41.727a30.314 30.314 0 01-3.367.199c-10.497 0-17.998-6.03-25.922-12.429-4.9-3.859-9.964-7.945-15.972-10.783zm365.462-195.1c-.678-.526-1.75-1.492-3.094-2.728C348.844 64.8 340.199 56.9 334.118 56.9a5.409 5.409 0 00-3.177.941 5.8 5.8 0 00-2.116 2.654c-1.425 2.998 1.697 9.946 3.76 14.508.502 1.122.936 2.088 1.208 2.841a266.075 266.075 0 011.493 3.922 247.246 247.246 0 018.075 24.923c.231.924.448 1.961.692 3.07 1.004 4.731 2.267 10.614 5.429 13.498a9.497 9.497 0 003.515 2.203c.489.155.996.237 1.506.241 3.692 0 6.23-4.39 8.687-8.639a65.691 65.691 0 011.71-2.842l.556-.881c9.351-14.905 14.997-23.9-2.199-36.404-1.71-1.265-3.881-2.97-6.148-4.703zm7.736 40.624l-.543.867c-.583.938-1.167 1.947-1.737 2.913-2.348 4.078-4.791 8.298-8.143 8.298a4.379 4.379 0 01-1.357-.213 8.896 8.896 0 01-3.257-2.06c-2.959-2.729-4.194-8.526-5.185-13.101a84.22 84.22 0 00-.692-3.112 242.902 242.902 0 00-8.143-24.994c-.435-1.166-.95-2.501-1.507-3.922-.285-.725-.719-1.705-1.221-2.842-1.887-4.192-5.035-11.211-3.76-13.897a5.085 5.085 0 011.863-2.366 4.74 4.74 0 012.82-.831c5.836 0 14.359 7.787 19.448 12.433 1.357 1.236 2.43 2.217 3.149 2.842 2.267 1.734 4.438 3.382 6.121 4.604 16.775 12.05 11.265 20.83 2.144 35.381z"/><path d="M368.422 56.484c-3.015-2.296-6.015-4.864-9.193-7.589-9.725-8.303-20.746-17.704-30.648-17.704a15.09 15.09 0 00-5.66 1.099c-17.486 6.904-15.003 26.249-11.934 37.09 1.868 6.663 4.282 13.268 6.615 19.644a228.696 228.696 0 017.474 22.954 118.866 118.866 0 012.346 14.508c1.759 14.765 3.423 28.703 22.246 28.703a47.44 47.44 0 004.773-.257c1.851-.156 3.68-.52 5.456-1.084 5.006-1.684 6.506-4.851 8.77-9.658.682-1.427 1.46-3.11 2.428-4.879a92.239 92.239 0 014.706-7.732v-.742a99.26 99.26 0 00-5.115 8.317c-.969 1.783-1.746 3.438-2.442 4.893-2.223 4.708-3.682 7.818-8.524 9.458a24.937 24.937 0 01-5.32 1.056 46.657 46.657 0 01-4.732.257c-18.468 0-20.023-13.125-21.823-28.332a117.648 117.648 0 00-2.36-14.565 232.978 232.978 0 00-7.488-22.996c-2.332-6.377-4.746-12.954-6.601-19.602-3.015-10.784-5.456-29.858 11.675-36.648a14.645 14.645 0 015.524-1.07c9.766 0 20.718 9.358 30.388 17.618 3.178 2.71 6.193 5.279 9.207 7.59 2.278 1.74 4.283 3.266 5.783 4.35l1.841 1.327v-.528l-1.609-1.155c-1.514-1.07-3.519-2.596-5.783-4.323zm-41.81-206.747h-10.154c-9.334 0-16.751.526-24.949 3.116a74.05 74.05 0 00-12.166 5.521c-6.487 3.429-12.604 6.673-19.926 6.673a24.294 24.294 0 01-3.654-.27c-5.406-.811-9.457-4.127-13.371-7.328-4.393-3.6-8.539-7.001-14.369-7.001-.54.001-1.079.029-1.615.085-3.586.385-9.347 3.743-14.903 7.001a76.59 76.59 0 01-9.361 4.98 62.907 62.907 0 01-8.006 2.462c-5.762 1.423-6.487 1.949-9.279 12.962a137.194 137.194 0 00-1.875 8.637c-2.012 10.217-3.599 18.227-14.068 25.868-7.076 5.194-16.04 7.712-27.371 7.712-11.332 0-23.06-2.447-33.461-4.624-5.474-1.124-10.579-2.191-14.383-2.618-2.217-.242-5.638-.398-9.142-.398-10.045 0-21.814 3.827-22.636 9.32-.396 2.589 1.56 6.502 13.084 10.33l1.272.426c43.889 14.628 74.504 33.737 105.665 65.923 8.581 8.879 15.15 13.02 20.651 13.02a10.287 10.287 0 003.75-.712c5.844-2.263 10.1-9.96 15.054-18.81 2.546-4.582 5.474-9.776 8.854-14.785 16.206-23.973 39.748-41.529 66.785-49.8a79.834 79.834 0 0122.663-3.487c23.635 0 40.317 12.038 56.11 24.417v-.896c-15.766-12.337-32.448-24.19-56.11-24.19a80.658 80.658 0 00-22.909 3.543c-27.191 8.33-50.864 25.996-67.154 50.115-3.435 5.022-6.337 10.23-8.882 14.826-4.872 8.765-9.074 16.335-14.685 18.498a9.9 9.9 0 01-3.517.654c-5.31 0-11.714-4.07-20.172-12.806-31.244-32.271-61.926-51.423-105.925-66.093l-1.286-.427c-8.622-2.846-13.11-6.26-12.618-9.533.684-4.568 11.154-8.722 21.965-8.722 3.476 0 6.843.156 9.06.398 3.79.412 8.909 1.423 14.328 2.618 10.429 2.12 22.253 4.639 33.598 4.639 11.345 0 20.624-2.562 27.809-7.84 10.688-7.869 12.316-16.051 14.342-26.424.547-2.746 1.095-5.577 1.875-8.537 2.737-10.97 3.339-11.113 8.758-12.464a62.2 62.2 0 008.088-2.476 75.391 75.391 0 009.457-5.037c5.255-3.059 11.195-6.531 14.643-6.901a14.28 14.28 0 011.547-.086c5.583 0 9.648 3.33 13.959 6.845 3.982 3.258 8.088 6.63 13.685 7.47 1.247.186 2.504.281 3.764.284 7.486 0 13.959-3.429 20.227-6.744a73.222 73.222 0 0112.07-5.478c8.102-2.562 15.478-3.088 24.743-3.088h10.155a79.694 79.694 0 0122.868 3.102 169.59 169.59 0 0126.317 10.572v-.797a170.665 170.665 0 00-26.139-10.515 80.102 80.102 0 00-23.06-3.13z"/><path d="M368.779 69.153c-1.585-1.132-3.729-2.746-5.969-4.445-3.209-2.435-6.309-5.054-9.56-7.857a127.3 127.3 0 01-2.417-2.095c-5.463-4.842-13.043-11.467-19.967-11.467a9.667 9.667 0 00-5.285 1.543c-11.978 7.673-4.78 26.02-.465 36.991.519 1.331 1.011 2.591 1.366 3.71a231.952 231.952 0 017.812 23.811c.396 1.557.792 3.398 1.202 5.337 1.912 8.891 4.534 21.08 11.103 25.483a8.26 8.26 0 003.387 1.344c.354.046.709.069 1.065.071 8.031 0 16.034-12.642 21.852-21.886 1.065-1.671 2.021-3.185 2.909-4.502v-.736c-.97 1.416-2.048 3.114-3.25 5.011-5.791 9.16-13.726 21.688-21.538 21.688a7.755 7.755 0 01-1.01-.07 7.728 7.728 0 01-3.224-1.274c-6.418-4.247-9.013-16.38-10.925-25.214-.424-1.939-.82-3.779-1.216-5.351a229.09 229.09 0 00-7.826-23.854 134.661 134.661 0 00-1.434-3.71c-4.247-10.843-11.376-28.978.315-36.481a9.3 9.3 0 015.066-1.416c6.829 0 14.245 6.569 19.708 11.326.86.764 1.666 1.415 2.431 2.123 3.291 2.832 6.391 5.408 9.56 7.843 2.24 1.699 4.384 3.313 5.982 4.46a648.407 648.407 0 006.583 4.657l.71.496v-.51l-.506-.354c-2.13-1.628-4.329-3.143-6.459-4.672z"/><path d="M297.664 169.793c.765 1.05 2.228 2.497 5.877 2.838 13.667 1.164 34.304 2.923 51.729 19.412l.205.184c6.176 5.971 11.075 13.222 14.378 21.285.997 2.327 2.61 3.675 4.414 3.675a3.773 3.773 0 001.503-.326v-.511a3.276 3.276 0 01-1.503.412c-1.64 0-3.116-1.249-4.032-3.42-3.334-8.106-8.27-15.396-14.487-21.398l-.205-.199c-17.534-16.574-38.267-18.334-51.934-19.511-3.485-.284-4.852-1.632-5.59-2.625a11.265 11.265 0 01-1.749-7.095c1.9-8.685 4.264-19.497 3.376-31.332-1.504-20.022-9.212-37.22-16.674-53.921-5.986-13.353-12.765-28.494-10.414-35.39 4.196-12.289 21.334-29.884 28.509-36.894 4.307-4.339 10.085-6.745 16.086-6.698 2.869.022 5.717.5 8.446 1.42 12.574 4.256 30.368 13.849 50.212 27.088v-.482c-19.776-13.183-37.529-22.79-50.089-26.961a27.297 27.297 0 00-8.569-1.42c-6.119-.055-12.013 2.397-16.4 6.826-7.189 7.01-24.382 24.676-28.605 37.05-2.406 7.095 4.414 22.278 10.428 35.716 7.448 16.602 15.143 33.772 16.632 53.723.875 11.763-1.476 22.534-3.375 31.218a11.869 11.869 0 001.831 7.336z"/><path d="M323.082 157.423c3.137 1.782 7.428 2.538 11.596 3.265a52.28 52.28 0 018.845 2.081 54.685 54.685 0 015.365 2.509c3.934 2.01 8.405 4.276 12.49 4.276.754.002 1.505-.08 2.243-.242l.563-.157c5.833-1.796 8.942-9.38 11.624-16.336v-1.183.114c-2.751 7.127-5.805 15.153-11.692 16.963l-.523.143a8.979 8.979 0 01-2.16.242c-3.975 0-8.404-2.252-12.311-4.276a55.95 55.95 0 00-5.406-2.538 52.095 52.095 0 00-8.914-2.081c-4.126-.727-8.391-1.425-11.458-3.221-6.796-3.863-6.094-10.934-5.337-18.418.371-2.89.5-5.809.385-8.723-1.775-23.72-10.276-42.665-18.502-60.982a32.787 32.787 0 01-2.992-12.745A32.863 32.863 0 01299.12 43.2a36.123 36.123 0 018.097-12.04 34.644 34.644 0 0112.055-7.703 24.409 24.409 0 018.969-1.71c13.274 0 25.737 10.548 36.728 19.842 3.122 2.637 6.066 5.131 8.886 7.255l1.953 1.583V49.9l-1.774-1.34c-2.752-2.124-5.737-4.604-8.859-7.241-11.005-9.351-23.564-19.957-36.989-19.957-3.117.001-6.207.59-9.12 1.74a35.036 35.036 0 00-12.193 7.784 36.52 36.52 0 00-8.193 12.172 33.285 33.285 0 00-2.251 13.086 33.2 33.2 0 003.035 12.914c8.253 18.275 16.699 37.191 18.46 60.825a51.485 51.485 0 01-.385 8.653c-.729 7.398-1.486 14.882 5.543 18.887z"/><path d="M314.381 164.924c2.742.726 5.485 1.423 8.227 2.021 14.344 3.457 26.726 6.431 39.109 18.055l.246.242c2.839 2.675 5.088 3.97 6.857 3.97.268.004.535-.03.795-.099 2.743-.641 4.032-4.539 5.485-9.562.22-.768.466-1.551.713-2.319v-1.423a154.31 154.31 0 00-1.11 3.614c-1.44 4.88-2.743 8.665-5.198 9.263-1.782.441-4.113-.797-7.308-3.785l-.247-.228c-12.465-11.71-24.889-14.698-39.287-18.155-2.647-.641-5.389-1.295-8.228-2.021-10.065-2.618-8.364-12.435-6.719-21.926a51.76 51.76 0 001.193-12.023c-1.632-21.869-9.736-39.954-17.579-57.44-.933-2.092-1.934-4.14-2.907-6.119-5.047-10.244-9.394-19.109-3.168-30.008 4.676-8.195 11.683-14.91 18.471-21.342 1.22-1.167 2.441-2.334 3.634-3.5 2.913-2.66 6.71-4.037 10.586-3.842 16.894 0 42.879 18.653 57.826 29.88v-.527c-15.043-11.31-40.864-29.88-57.785-29.88-3.982-.194-7.881 1.224-10.874 3.956-1.193 1.167-2.414 2.333-3.634 3.5-6.856 6.517-13.836 13.247-18.539 21.5-6.336 11.098-1.728 20.488 3.153 30.42.974 1.978 1.975 4.012 2.908 6.104 7.829 17.444 15.92 35.5 17.552 57.298a52.627 52.627 0 01-1.193 11.909c-1.673 9.733-3.415 19.749 7.021 22.467zM26.223 369.732c-3.468 5.416-7.773 12.17-6.292 16.833.387 1.028 1 1.95 1.79 2.69s1.735 1.28 2.761 1.575c.476.173.977.26 1.48.256 5.306 0 13.71-8.53 21.085-15.966 4.716-4.763 9.157-9.255 11.83-10.521 12.79-6.014 30.407-8.871 45.952-11.373 6.142-.996 11.927-1.948 17.287-3.029a177.174 177.174 0 0135.012-3.739c36.096 0 66.42 13.478 90.108 40.05 2.646 2.986 6.512 4.493 11.475 4.493 15.463 0 41.99-15.639 60.675-44.543 11.173-17.302 27.417-52.689 10.528-95.184-6.772-17.061-16.82-24.965-31.626-24.965-11.282 0-24.141 4.265-39.029 9.269-18.315 6.128-39.084 13.066-61.415 13.066-17.054.084-33.854-4.293-48.845-12.725-47.693-26.373-49.091-74.512-44.965-113.481 1.59-15.17-1.001-27.17-7.526-34.704a23.655 23.655 0 00-8.207-6.137 22.876 22.876 0 00-9.93-2.01c-13.709 0-30.94 11.09-37.137 32.259-5.826 19.904 7.992 38.059 24.004 59.044 18.041 23.657 38.495 50.471 34.533 86.256-1.974 17.743-8.225 34.761-16.711 45.495-6.443 8.175-12.133 8.9-18.164 9.667-4.607.598-9.364 1.195-14.943 4.877-4.264 2.843-5.593 7.563-7.019 12.625a32.471 32.471 0 01-4.03 10.023c-1.124 1.621-3.085 1.976-5.155 2.346-2.742.497-5.812 1.052-7.457 4.706-1.138 2.545.37 5.544 1.823 8.445 1.206 2.417 2.468 4.919 2.097 6.995-.301 1.649-2.015 4.322-3.989 7.407zm2.591-14.8c-1.37-2.844-2.742-5.531-1.81-7.72 1.467-3.256 4.223-3.754 6.855-4.266 2.138-.383 4.346-.781 5.662-2.672a33.738 33.738 0 004.112-10.279c1.371-4.905 2.66-9.526 6.676-12.17 5.484-3.569 10.09-4.166 14.614-4.749 6.183-.782 12.036-1.535 18.671-9.952 8.596-10.89 14.902-28.079 16.89-45.964 4.003-36.126-16.56-63.082-34.697-86.867-15.875-20.8-29.57-38.77-23.867-58.291 6.086-20.8 22.907-31.676 36.383-31.676a22.16 22.16 0 019.604 1.937 22.898 22.898 0 017.943 5.925c6.375 7.365 8.897 19.151 7.321 34.122-4.113 39.239-2.742 87.691 45.389 114.306 15.105 8.495 32.033 12.896 49.215 12.795 22.455 0 43.292-6.952 61.69-13.094 14.819-4.961 27.623-9.241 38.782-9.241 14.641 0 24.168 7.55 30.886 24.468 16.738 42.14.644 77.242-10.446 94.416-17.822 27.653-44.54 44.173-60.017 44.173-4.73 0-8.404-1.421-10.899-4.265-23.798-26.742-54.314-40.277-90.643-40.277a177.482 177.482 0 00-35.163 3.739c-5.332 1.095-11.131 2.033-17.259 3.028-15.6 2.531-33.271 5.403-46.158 11.459-2.741 1.308-7.087 5.687-12.05 10.677-7.293 7.379-15.56 15.725-20.563 15.725a3.408 3.408 0 01-1.22-.199 5.897 5.897 0 01-2.489-1.34 6.184 6.184 0 01-1.624-2.371c-1.37-4.265 2.824-10.848 6.197-16.122 2.029-3.171 3.77-5.901 4.113-7.735.493-2.345-.823-4.976-2.098-7.52z"/><path d="M357.252 272.819a15.157 15.157 0 008.047 1.807 35.677 35.677 0 0010.51-1.735v-1.053a34.45 34.45 0 01-10.51 1.792c-2.605.145-5.2-.424-7.527-1.65-8.033-5.336-11.591-14.769-15.355-24.743-3.243-8.608-6.596-17.515-13.124-23.789v-.299h-.287c-7.486-6.872-17.586-10.216-30.861-10.216-12.946 0-26.563 3.23-37.497 5.833-7.486 1.765-13.932 3.301-18.092 3.301-2.436 0-3.928-.526-4.543-1.593-.808-1.423-.192-4.112 1.833-7.968 9.457-17.942 28.548-60.74 27.234-78.454-1.04-13.972-7.499-28.457-13.754-42.372-9.059-20.19-18.406-41.12-11.632-61.039 7.773-22.765 42-63.5 66.36-66.958a32.925 32.925 0 014.557-.299c15.834 0 39.016 9.818 63.171 24.032v-1.067c-24.168-14.229-47.324-23.96-63.171-23.96a32.71 32.71 0 00-4.694.312c-24.634 3.5-59.285 44.606-67.126 67.599-6.939 20.346 2.504 41.432 11.632 61.835 6.213 13.873 12.632 28.229 13.685 42.016 1.177 15.794-15.478 55.832-27.11 77.914-2.272 4.268-2.847 7.114-1.82 8.95.807 1.422 2.559 2.077 5.364 2.077 4.27 0 10.771-1.537 18.298-3.33 10.948-2.589 24.455-5.805 37.292-5.805 13.11 0 23.046 3.301 30.367 10.102 6.46 6.133 9.799 14.983 13.029 23.562 3.818 10.117 7.431 19.692 15.724 25.198z"/><path d="M46.02 354.342a19.17 19.17 0 004.432.37c4.171 0 19.613-.64 43.684-8.908a209.775 209.775 0 0166.293-10.713c37.229 0 61.971 5.797 93.825 37.479 2.451 2.319 5.687 3.534 8.999 3.382 13.855 0 34.795-15.628 47.678-35.647 10.067-15.628 24.688-47.495 9.574-85.613-6.51-16.395-14.675-18.668-22.526-18.668-9.71 0-21.883 4.063-35.943 8.78-18.956 6.351-40.443 13.54-64.282 13.54-18.622.098-36.967-4.68-53.341-13.895-53.34-29.551-54.065-84.619-49.976-123.462 1.272-12.033-.533-21.552-5.06-26.809a13.959 13.959 0 00-4.91-3.625 13.481 13.481 0 00-5.923-1.134c-10.134 0-22.909 8.61-27.71 25.033-4.335 14.861 7.988 31.029 22.253 49.726 18.245 23.939 40.936 53.774 36.518 93.555a106.624 106.624 0 01-8.74 32.321c-6.718 15.239-16.35 28.899-28.311 40.15a144.52 144.52 0 01-20.912 15.628c-5.102 3.296-8.207 5.285-7.96 6.791.095.753.834 1.25 2.338 1.719zm5.868-7.998a146.176 146.176 0 0020.967-15.628c11.999-11.297 21.667-25.004 28.421-40.292a107.466 107.466 0 008.767-32.45c4.363-40.221-18.341-70.099-36.669-94.095-14.196-18.64-26.45-34.737-22.184-49.37 4.746-16.24 17.33-24.735 27.354-24.735a13.123 13.123 0 015.757 1.1 13.586 13.586 0 014.775 3.517c4.445 5.172 6.21 14.563 4.95 26.483-4.102 38.956-3.377 94.208 50.196 123.887 16.427 9.248 34.834 14.046 53.518 13.952 23.894 0 45.408-7.217 64.419-13.582 14.033-4.689 26.137-8.752 35.793-8.752 7.714 0 15.729 2.231 22.143 18.47 15.045 37.933.465 69.615-9.574 85.243-12.61 19.55-33.837 35.448-47.336 35.448-3.206.153-6.34-1.022-8.712-3.268-15.442-15.358-29.816-25.119-45.217-30.716-13.267-4.817-27.887-6.877-48.895-6.877a210.147 210.147 0 00-66.416 10.741c-24.03 8.24-39.417 8.88-43.562 8.88a19.298 19.298 0 01-4.335-.356c-1.259-.34-1.929-.752-1.997-1.236-.137-1.307 3.187-3.466 7.81-6.435l.027.071z"/><path d="M78.458 99.262c-7.325 0-15.373 7.734-18.01 14.657-1.75 4.6-.424 12.462 3.553 21.023 3.757 8.076 8.745 14.243 12.434 15.44a5.822 5.822 0 001.681.27 5.46 5.46 0 001.831-.327c4.756-1.738 4.646-4.772 4.414-11.395a113.39 113.39 0 01.465-17.434c1.093-10.355-.465-18.246-2.57-20.681a4.47 4.47 0 00-1.719-1.255 4.303 4.303 0 00-2.08-.298zm5.753 22.12a114.69 114.69 0 00-.465 17.534c.232 6.68.328 9.172-3.963 10.725a4.645 4.645 0 01-3.074 0c-3.526-1.097-8.35-7.122-12.025-15.07-3.895-8.389-5.22-16.023-3.54-20.439 2.556-6.723 10.331-14.243 17.382-14.243a3.754 3.754 0 011.791.227 3.89 3.89 0 011.502 1.041c1.927 2.421 3.39 10.084 2.392 20.225zm-98.918-47.85c1.174 0 2.102-1.732 3.03-5.595 3.428-14.497 14.747-33.68 32.32-43.89 17.75-10.323 29.657-13.006 36.02-14.44 3.168-.71 4.752-1.08 5.134-1.946.07-.193.094-.401.07-.606a1.323 1.323 0 00-.206-.572c-1.23-2.329-23.212-15.15-54.972-17.82l-1.366-.114c-2.853-.241-5.325-.454-7.687-.454-8.26 0-14.938 2.414-30.504 16.087-2.457 2.159-4.97 4.16-7.4 6.092-7.524 6.006-14.023 11.189-13.654 17.04.327 4.514 4.615 9.002 13.53 14.1 9.86 5.679 15.867 16.868 19.84 24.28 2.608 4.728 4.274 7.838 5.845 7.838zm-25.411-32.46c-8.657-4.97-13.013-9.47-13.313-13.759-.41-5.68 6.008-10.777 13.436-16.698 2.444-1.946 4.956-3.948 7.428-6.12C-17.111-9.08-10.502-11.48-2.337-11.48c2.349 0 4.807.213 7.66.454l1.366.114C37.657-8.313 60.159 4.466 61.306 6.682c.245.454.19.681.136.809-.3.667-2.007 1.05-4.847 1.704-6.39 1.42-18.297 4.132-36.13 14.483C2.634 34.03-8.617 53.255-12.071 67.824c-.833 3.564-1.693 5.282-2.622 5.282-1.365 0-3.127-3.351-5.462-7.582-3.946-7.47-9.995-18.744-19.962-24.452z"/><path d="M-12.479 98.483c1.194 0 2.018-1.423 2.594-4.666 3.569-19.586 11.282-47.323 37.058-62.116a115.584 115.584 0 0127.533-11.08 24.082 24.082 0 006.602-3.713c2.84-1.977 5.792-4.04 8.51-4.04.308 0 .615.029.919.086a8.647 8.647 0 013.843 2.105 6.437 6.437 0 004.021 1.934 5.058 5.058 0 001.894-.412 5.216 5.216 0 002.347-2.305 3.807 3.807 0 011.594-1.8 3.61 3.61 0 012.318-.447c2.32.2 3.569 2.034 4.886 3.969a11.137 11.137 0 003.24 3.541 9.706 9.706 0 004.35 1.18c.428.05.86-.005 1.263-.16a2.743 2.743 0 001.057-.735 2.752 2.752 0 00.206-2.39c-.892-3.357-7.837-6.486-12.422-8.534-1.372-.612-2.539-1.138-3.28-1.55C79.192 3.593 72.33.407 66.62-2.21 42.3-13.232 20.132-19.96-1.156-22.776a49.296 49.296 0 00-6.354-.47c-10.486 0-18.612 4.751-34.78 20.34C-46.257.92-50.347 4.207-54.286 7.379c-8.853 7.112-15.839 12.73-15.674 19.8.137 5.59 4.817 11.535 14.713 18.718 15.949 11.565 26.545 29.131 33.545 40.752 4.323 7.112 7.15 11.835 9.223 11.835zm-42.548-53c-9.8-7.111-14.412-12.929-14.549-18.362-.15-6.856 6.753-12.418 15.51-19.459 3.953-3.186 8.043-6.472 12.023-10.312C-25.957-18.154-17.9-22.877-7.538-22.877a48.49 48.49 0 016.3.47c21.247 2.845 43.385 9.53 67.665 20.54C72.192.748 78.999 3.92 85.834 7.662c.755.426 1.936.952 3.308 1.564 4.516 2.048 11.351 5.135 12.188 8.293a2.335 2.335 0 01-.137 2.02 2.513 2.513 0 01-.919.588 2.44 2.44 0 01-1.071.137 9.266 9.266 0 01-4.118-1.138 10.549 10.549 0 01-3.102-3.4c-1.372-1.934-2.745-3.926-5.188-4.153a3.995 3.995 0 00-2.537.488 4.212 4.212 0 00-1.759 1.958 4.827 4.827 0 01-2.155 2.134 4.513 4.513 0 01-1.743.37 6.115 6.115 0 01-3.774-1.835 8.89 8.89 0 00-3.94-2.148 4.573 4.573 0 00-.987-.1c-2.855 0-5.847 2.091-8.743 4.111a23.315 23.315 0 01-6.465 3.656 117.032 117.032 0 00-27.643 11.109C1.081 46.209-6.686 74.074-10.268 93.732c-.522 2.916-1.236 4.267-2.182 4.267-1.853 0-4.804-4.907-8.895-11.692-7.013-11.593-17.677-29.202-33.681-40.823z"/><path d="M38.36 276.69a28.84 28.84 0 0013.322-5.597c3.927-2.98 7.082-6.923 9.183-11.478 3.92-8.438 6.044-22.766-6.127-43.014-5.222-8.694-10.964-17.488-16.447-25.983-15.761-24.289-30.646-47.24-36.8-70.263-6.949-26.04-1.37-47.525 17.571-67.603C35.509 35.364 57.137 25.39 78.532 25.39c16.077 0 30.427 5.877 40.391 16.534 10.964 11.725 16.447 28.857 15.83 49.574-.137 4.81-.356 9.776-.589 15.026-.836 18.697-1.768 39.842 1.137 57.514 3.344 20.277 11.28 32.727 24.246 38.291a50.833 50.833 0 0019.585 4.468 31.615 31.615 0 0015.227-3.725c4.709-2.506 8.76-6.165 11.801-10.661 11.39-16.008 14.117-43.413 6.785-68.2C197.224 71.023 159.492 39.263 103.559 5.27 61.07-20.556 25.257-28.524-7.171-33.291a47.282 47.282 0 00-6.853-.54c-13.528 0-19.983 7.114-28.138 16.22-3.139 3.487-6.373 7.115-10.389 10.758A82.161 82.161 0 01-64.777 2.21c-5.715 3.657-10.649 6.801-16.076 15.225-10.773 16.719 3.645 27.035 18.9 37.835 8.073 5.692 16.447 11.668 20.874 18.697 28.07 44.11 16.748 91.251-3.221 120.606-5.702 8.381-14.035 16.307-22.861 24.702-10.787 10.259-21.93 20.86-28.317 32.727-2.74 5.094-3.522 8.537-2.384 10.572.836 1.423 2.74 2.205 5.633 2.205 5.263 0 13.623-2.262 23.3-4.894 13.582-3.672 30.481-8.253 45.42-8.253a47.105 47.105 0 0120.162 3.898 73.476 73.476 0 0114.5 9.875c7.32 5.92 14.241 11.512 24.027 11.512a26.026 26.026 0 003.18-.228zm-41.501-21.514a46.837 46.837 0 00-20.326-3.927c-14.994 0-31.921 4.581-45.53 8.267-9.664 2.618-17.997 4.88-23.205 4.88-2.741 0-4.523-.654-5.277-1.992-1.069-1.878-.287-5.193 2.385-10.145 6.346-11.782 17.475-22.368 28.248-32.599 8.84-8.409 17.187-16.349 22.916-24.773 11.505-16.699 18.392-36.347 19.915-56.817 1.548-22.766-4.112-44.409-16.749-64.344-4.51-7.114-12.883-13.048-20.984-18.81-15.076-10.744-29.344-20.875-18.79-37.252 5.386-8.339 10.28-11.47 15.94-15.083A81.44 81.44 0 00-52.263-6.54a143.717 143.717 0 0010.43-10.786c8.086-8.979 14.487-16.079 27.837-16.079 2.27.015 4.538.195 6.784.54C25.175-28.111 60.974-20.142 103.353 5.64c55.796 33.936 93.529 65.639 109.222 118.685 7.291 24.673 4.591 51.936-6.73 67.83-3.001 4.446-7.001 8.066-11.653 10.545a31.2 31.2 0 01-15.046 3.684 50.221 50.221 0 01-19.407-4.397c-12.829-5.421-20.682-17.843-23.999-37.963-2.906-17.587-1.974-38.746-1.138-57.414.233-5.265.453-10.231.59-15.055.603-20.817-4.907-38.063-15.94-49.873C109.205 30.94 94.759 25.02 78.559 25.02c-21.504 0-43.283 9.96-59.757 27.49C8.742 63.183 2.519 74.183-.195 86.163c-2.426 10.7-2 21.942 1.37 34.364 6.169 23.094 21.067 46.059 36.856 70.391 5.482 8.538 11.211 17.274 16.447 25.968 12.075 20.106 9.978 34.264 6.099 42.602-2.077 4.481-5.188 8.36-9.057 11.292a28.498 28.498 0 01-13.119 5.513 28.893 28.893 0 01-3.098.185c-9.594 0-16.447-5.55-23.78-11.384a73.453 73.453 0 00-14.664-9.917z"/><path d="M47.475 259.233a15.468 15.468 0 004.301-4.937 16.112 16.112 0 001.938-6.35c1.642-13.992-10.289-34.417-21.016-47.64-13.368-16.511-26.64-34.161-33.126-51.241a65.565 65.565 0 01-1.45-6.149c-2.08-10.12-5.583-27.044-10.632-27.044a2.733 2.733 0 00-1.368.442c-2.094 1.295-2.737 3.843-1.888 7.8a61.386 61.386 0 003.585 10.234c1.436 3.487 2.736 6.49 2.668 8.198 0 4.384-2.025 6.32-3.927 8.199a10.692 10.692 0 00-3.585 5.608c-.712 3.387.63 5.935 1.93 8.397 1.299 2.463 2.448 4.626 2.052 7.658-.726 5.551-17.665 25.62-32.606 43.313-12.315 14.646-23.042 27.3-22.85 29.719a.632.632 0 00.191.427c1.026.897 2.874 1.324 5.679 1.324a123.145 123.145 0 0017.691-2.22c8.634-1.424 18.417-3.075 26.914-3.075 6.636 0 11.603.982 15.174 3.004 1.957 1.11 4.105 2.405 6.404 3.8 10.207 6.163 22.904 13.849 33.659 13.849 3.675.072 7.274-1.091 10.262-3.316zm-50.174-14.76c-3.64-2.064-8.662-3.061-15.366-3.061-8.524 0-18.335 1.637-26.982 3.089a124.07 124.07 0 01-17.624 2.206c-2.736 0-4.474-.398-5.473-1.224v-.128c-.177-2.249 10.947-15.443 22.755-29.406 14.982-17.75 31.949-37.862 32.688-43.541.424-3.174-.849-5.594-2.08-7.928-1.232-2.334-2.572-4.854-1.902-8.099a10.251 10.251 0 013.462-5.38c1.97-1.936 4.009-3.943 4.104-8.54 0-1.794-1.245-4.84-2.736-8.37a62.178 62.178 0 01-3.558-10.162c-.78-3.744-.232-6.135 1.71-7.331a2.22 2.22 0 011.205-.384c4.72 0 8.305 17.408 10.234 26.759a63.456 63.456 0 001.45 6.277c6.514 17.08 19.813 34.773 33.195 51.241 10.672 13.166 22.55 33.449 20.935 47.312a15.8 15.8 0 01-1.9 6.187 15.176 15.176 0 01-4.19 4.816c-2.935 2.158-6.462 3.272-10.056 3.174-10.645 0-23.26-7.658-33.454-13.793a264.351 264.351 0 00-6.417-3.714zm161.944-120.455c-1.378 22.215 4.769 37.513 11.026 44.416 2.867 3.154 6.023 4.886 8.863 4.901 4.01 0 7.029-3.253 8.49-9.162 9.413-38.024-22.645-78.122-26.573-81.46-1.144-.966-1.916-1.094-2.426-.525-.923 1.036-.634 4.431-.11 10.596a204.614 204.614 0 01.73 31.234zm-.124-41.347a.323.323 0 01.235-.114c.193 0 .565.128 1.24.696 3.901 3.324 35.683 43.052 26.352 80.75-1.378 5.553-4.135 8.621-7.828 8.621-2.646 0-5.623-1.661-8.352-4.687-6.175-6.789-12.267-21.874-10.861-43.876a206.107 206.107 0 00-.717-31.348c-.427-5.355-.758-9.233-.069-10.042z"/><path d="M148.989 122.917c-1.597 21.513 2.534 38.928 11.622 49.025 4.751 5.29 10.59 8.197 16.443 8.197 8.345 0 15.024-5.97 17.007-15.202 5.797-26.945-3.181-51.28-11.733-66.908-10.039-18.351-22.901-31.341-29.084-35.596-2.272-1.546-3.856-2.51-4.833-2.51a1.063 1.063 0 00-.84.369c-.799.921-.469 3.56.179 8.778a252.734 252.734 0 011.239 53.847zm-1.115-62.398a.655.655 0 01.537-.227c.867 0 2.465.978 4.599 2.439 13.977 9.6 51.103 53.351 40.637 102.107-1.941 9.047-8.455 14.876-16.524 14.876-5.729 0-11.471-2.836-16.14-8.055-9.02-10.012-13.096-27.314-11.512-48.714a252.019 252.019 0 00-1.253-53.89c-.647-4.82-1.005-7.714-.344-8.537z"/><path d="M141.193 124.137c-1.58 26.824 3.351 47.996 13.853 59.64 5.449 6.035 12.042 9.216 19.071 9.216 13.486 0 24.901-11.36 28.429-28.301 5.19-24.964.722-49.544-13.268-73.045-14.18-23.813-33.796-39.22-44.23-46.278-5.313-3.593-7.588-5.084-8.459-4.004-.872 1.079-.246 3.493.681 8.633 2.043 11.105 6.252 34.293 3.923 74.139zm-4.277-82.488a.594.594 0 01.49-.213c1.103 0 3.487 1.618 7.437 4.26 34.763 23.53 68.11 67.109 57.308 118.882-3.474 16.728-14.739 27.96-28.021 27.96-6.933 0-13.431-3.138-18.784-9.073-10.434-11.559-15.311-32.661-13.745-59.328 2.33-39.86-1.879-63.091-3.909-74.238-.858-4.715-1.403-7.555-.776-8.293v.043zm-153.178-6.677c3.848 0 6.607-3.823 9.516-9.563 5.166-10.025 15.919-14.87 21.75-17.474 2.923-1.33 4.079-1.82 3.875-2.646-.204-.826-.87-.994-4.867-1.274-12.044-.84-39.069 10.99-42.141 19.896a4.707 4.707 0 00-.133 2.984c.28.983.873 1.84 1.683 2.434 4.635 3.949 7.735 5.6 10.372 5.6l-.055.043zm-11.024-10.725C-24.446 16.112.677 4.953 12.72 4.953h1.21c1.29.03 2.575.194 3.833.49a31.023 31.023 0 01-3.154 1.554C8.71 9.643-2.246 14.586-7.548 24.92c-3.344 6.496-5.79 9.03-8.714 9.03-2.392 0-5.315-1.623-9.774-5.418a3.595 3.595 0 01-1.35-1.918 3.7 3.7 0 01.1-2.366z"/><path d="M-4.333 34.626C4.965 17.12 21.963 11.013 35.725 7.642c1.366-.324 1.448-1.015 1.366-1.41-.314-2.821-13.203-8.308-32.44-8.308-2.17 0-4.396.07-6.608.211-8.779.55-29.504 13.217-36.959 22.569-1.939 2.426-2.812 4.457-2.608 6.008.52 3.893 3.878 5.643 7.755 7.617 4.096 2.116 8.78 4.514 11.046 10.114 1.365 3.244 3.058 4.894 5.147 4.894 3.604.028 8.042-4.923 13.243-14.712zm-17.749 9.563c-2.362-5.826-7.14-8.28-11.359-10.452-3.714-1.918-6.922-3.569-7.386-7.053-.178-1.34.669-3.244 2.457-5.487C-31.01 11.93-10.558-.595-1.889-1.13a102.39 102.39 0 016.554-.212c18.91 0 31.511 5.403 31.77 7.688 0 .366-.532.564-.887.648-13.899 3.4-31.06 9.578-40.495 27.322-7.878 14.712-13.708 18.28-17.121 9.874h-.014zm197.637 112.512c.73 0 1.404-.518 1.924-1.555 2.737-5.268 2.681-23.446-4.563-34.544-.955-1.439-2.316-1.238-3.341.576-2.724 4.807-3.861 20.151 3.552 33.421.786 1.411 1.6 2.102 2.428 2.102zm-5.11-35.005c.351-.648.744-1.022 1.039-1.022.295 0 .505.317.618.518 6.949 10.594 7.089 28.528 4.52 33.479-.337.662-.716 1.037-1.053 1.037-.337 0-1.01-.59-1.572-1.584-7.132-12.824-6.107-27.923-3.552-32.428zm93.997 78.638c.974 1.423 3.374 2.091 7.996 2.091 2.88 0 6.336-.242 10.328-.526 4.937-.342 10.547-.726 16.334-.726 18.351 0 30.709 4.04 38.952 12.803 7.667 6.117 11.905 16.089 15.635 24.88 4.526 10.698 8.449 19.916 17.103 19.916a13.949 13.949 0 002.88-.313c.704-.152 1.4-.342 2.085-.569v-.74c-.768.256-1.522.455-2.222.612-.903.193-1.821.293-2.743.299-8.229 0-12.042-9.034-16.458-19.503-3.772-8.877-8.037-18.934-15.8-25.137-8.353-8.819-20.875-12.93-39.418-12.93-5.815 0-11.425.384-16.376.739-3.991.271-7.42.512-10.286.512-4.266 0-6.625-.569-7.434-1.792a2.932 2.932 0 010-2.746c8.737-24.183 16.033-54.824 15.334-64.255-1.235-16.516-8.23-32.121-15.005-47.2-8.229-18.493-16.102-35.89-11.137-50.429 6.858-20.2 38.403-55.266 55.547-57.684.91-.12 1.826-.177 2.743-.17 13.304 0 36.743 9.872 63.31 26.217v-.825c-26.539-16.274-49.965-26.104-63.31-26.104a19.151 19.151 0 00-2.825.185c-17.281 2.433-49.128 37.783-56.096 58.153-5.06 14.809 2.812 32.363 11.151 50.956 6.748 15.022 13.715 30.57 14.95 46.943.617 8.265-5.925 37.996-15.279 64.014a3.65 3.65 0 00.041 3.329z"/><path d="M285.568 181.653c2.541 3.815 7.91 4.271 15.341 4.826l2.486.214c2.35.199 4.809.285 7.404.37 12.076.441 25.764.925 38.127 12.656l.15.143c6.83 6.249 10.929 17.269 14.535 27.049 3.606 9.781 6.748 18.251 11.734 18.251h.465v-.441a2.58 2.58 0 01-.465 0c-4.699 0-7.786-8.328-11.352-17.981-3.565-9.652-7.718-20.828-14.644-27.163l-.15-.128c-12.472-11.845-26.242-12.329-38.386-12.813-2.595-.086-5.054-.171-7.39-.37l-2.487-.2c-7.322-.598-12.595-1.01-15.026-4.655-2.432-3.645-1.981-9.966 1.052-20.928a82.908 82.908 0 003.183-28.473c-1.366-18.294-8.702-34.737-15.806-50.64-7.404-16.585-14.398-32.26-10.737-43.022 6.093-17.924 35.518-49.558 47.703-51.252.48-.064.964-.093 1.448-.085 10.177 0 33.195 8.826 63.057 27.875v-.498c-29.835-19.006-52.853-27.804-63.057-27.804a10.498 10.498 0 00-1.503.085c-12.294 1.751-41.91 33.556-48.044 51.565-3.716 10.92 3.32 26.68 10.778 43.364 7.076 15.803 14.398 32.189 15.764 50.412a82.4 82.4 0 01-3.169 28.359c-3.114 11.304-3.415 17.682-1.011 21.284zM35.36 310.026c20.392-2.403 44.672-27.551 51.177-46.771 11.312-33.379-8.778-60.247-28.21-86.219-18.762-25.091-36.47-48.775-27.855-77.62 7.504-25.119 31.743-38.68 50.738-38.68 10.243 0 19.09 3.767 24.937 10.619 6.944 8.131 9.669 20.485 7.888 35.724-6.121 52.357-7.942 109.633 48.287 126.522a65.61 65.61 0 0018.94 2.914c23.664 0 38.783-14.088 47.287-25.887 16.31-22.646 21.98-56.523 14.092-84.3-6.683-23.542-19.844-46.373-40.207-69.8-30.293-34.83-71.527-64.783-126.086-91.551l-2.355-1.166C51.04-47.448 27.308-59.105 2.316-65.53c-1.48-.384-3.123-.84-4.876-1.323-7.723-2.118-17.323-4.776-25.567-4.776a24.531 24.531 0 00-8.49 1.308c-3.561 1.322-5.56 3.852-7.505 6.297a20.666 20.666 0 01-5.081 5.061 52.745 52.745 0 01-6.943 3.114c-4.615 1.848-9.408 3.767-10.956 5.6-2.917 3.555-2.122 5.687-1.37 7.763a6.655 6.655 0 01.397 4.976l-.533 1.648c-4.108 12.667-4.108 12.667-13.695 15.538a233.242 233.242 0 00-6.847 2.147c-7.874 2.601-11.106 6.61-14.229 10.491A27.712 27.712 0 01-112.335.39h-.383c-4.93 0-42.316 2.559-45.192 12.098-.781 2.573.904 5.373 4.998 8.302 3.296 2.623 7.323 4.065 11.476 4.108 1.206 0 2.287-.114 3.342-.213a23.6 23.6 0 012.561-.185c3.013 0 6.053.896 10.23 11.558 1.027 2.63 1.821 4.79 2.478 6.567 3.232 8.786 3.328 8.9 11.545 12.539 2.04.91 4.574 2.033 7.792 3.568 10.572 5.06 12.736 10.818 15.475 18.097A66.45 66.45 0 00-81.81 89.92a93.704 93.704 0 0010.956 13.547c6.697 7.236 13.023 14.074 15.064 25.489 3.492 19.775-6.847 38.654-18.542 56.111-5.67 8.458-17.324 18.324-29.663 28.759-20.87 17.698-44.617 37.771-44.699 56.38 0 10.619 2.575 18.765 7.806 24.167 5.697 5.942 14.352 8.842 26.472 8.842 17.556 0 39.152-6.155 58.201-11.586 15.064-4.265 27.937-7.947 36.222-7.947 1.59-.043 3.176.154 4.711.583 7.984 2.46 14.325 7.72 20.446 12.795 8.121 6.752 15.804 13.121 26.773 13.121a27.966 27.966 0 003.424-.156zm-50.368-26.598a16.677 16.677 0 00-4.985-.626c-8.408 0-21.418 3.696-36.482 7.989-18.994 5.402-40.508 11.53-57.941 11.544-11.846 0-20.296-2.843-25.801-8.53-5.039-5.26-7.573-13.164-7.518-23.513.137-18.139 23.637-38.141 44.425-55.712 12.325-10.477 24.089-20.371 29.827-28.958 11.818-17.642 22.253-36.734 18.706-56.864-2.068-11.699-8.49-18.637-15.283-25.986a94.009 94.009 0 01-10.955-13.406 66.223 66.223 0 01-6.108-12.922c-2.821-7.478-5.04-13.392-15.968-18.623-3.232-1.55-5.765-2.672-7.806-3.582-7.915-3.512-7.915-3.512-11.038-11.984a356.785 356.785 0 00-2.478-6.582c-3.985-10.179-7.094-12.183-11.12-12.183a25.39 25.39 0 00-2.657.184c-1.027.1-2.095.214-3.246.214-3.966-.035-7.812-1.413-10.955-3.924-3.698-2.672-5.259-5.09-4.629-7.193 2.506-8.288 37.345-11.373 44.274-11.373h.343l.109-.455.206.427a28.479 28.479 0 009.408-8.402c3.177-3.952 6.176-7.662 13.79-10.193 2.74-.895 5.012-1.578 6.847-2.132 9.956-2.986 10.08-3.142 14.352-16.178l.548-1.649a7.64 7.64 0 00-.424-5.686c-.726-1.962-1.37-3.654 1.177-6.753 1.37-1.649 6.231-3.61 10.531-5.33a54.076 54.076 0 007.108-3.185 21.797 21.797 0 005.368-5.303c1.945-2.459 3.78-4.762 7.08-5.999a23.815 23.815 0 018.217-1.25c8.12 0 17.652 2.63 25.321 4.747 1.753.484 3.396.939 4.889 1.322 24.897 6.398 48.588 18.026 71.499 29.285l2.355 1.152c54.436 26.726 95.588 56.593 125.785 91.308 20.267 23.329 33.359 46.032 40.001 69.431 7.806 27.494 2.191 61-13.941 83.419-8.381 11.629-23.28 25.489-46.561 25.489a64.807 64.807 0 01-18.679-2.843c-55.463-16.647-53.669-73.468-47.603-125.47 1.822-15.524-.986-28.147-8.12-36.492-6.026-7.108-15.133-10.96-25.65-10.96-19.337 0-44.014 13.803-51.656 39.392-8.764 29.327 9.929 54.333 28.019 78.5 19.268 25.774 39.194 52.428 28.06 85.296-6.423 18.964-30.32 43.756-50.382 46.13a29.14 29.14 0 01-3.314.199c-10.64 0-18.186-6.269-26.17-12.908-6.204-5.118-12.613-10.434-20.775-12.879z"/><path d="M160.745-99.19c-4.644 3.406-10.959 5.053-19.439 5.053-9.918 0-21-2.3-30.781-4.259-5.753-1.192-11.205-2.328-15.644-2.839a143.83 143.83 0 00-15.232-.809c-13.343 0-30.466 1.874-36.206 10.803-2.507 3.89-2.603 8.758-.315 14.507 1.082 2.683 3.877 4.16 6.575 5.565a15.668 15.668 0 015.562 3.96 27.508 27.508 0 013.137 7.694c1.11 3.705 2.247 7.524 4.836 9.781 3.086 2.744 7.044 4.206 11.11 4.102a46.286 46.286 0 009.109-1.249 45.334 45.334 0 018.973-1.235 15.45 15.45 0 017.534 1.789c5.479 2.839 7.739 6.814 9.959 10.604 2.89 4.94 5.616 9.596 14.602 11.782 18.822 4.557 23.973 9.326 36.425 20.839 1.603 1.42 3.329 3.08 5.219 4.798a78.34 78.34 0 0110.959 13.23 89.54 89.54 0 009.589 11.966 42.367 42.367 0 0013.343 8.745c5.671 2.683 11.027 5.21 15.89 13.855l.767 1.42c6.124 10.958 12.329 21.108 16.11 21.108.297.003.59-.06.86-.188s.51-.316.701-.55c1.37-1.548 1.74-5.679 1.137-12.634-.356-4.06-3.191-7.709-5.945-11.229-2.959-3.79-5.753-7.367-5.589-11.356.206-4.756 2.973-7.098 5.904-9.554a18.937 18.937 0 005.672-6.586c3.123-6.97 3.876-13.202 4.616-19.235 1.014-8.404 1.973-16.325 9.219-25.296 13.464-16.38 31.305-28.263 51.274-34.154a65.823 65.823 0 0118.973-2.981c20.548 0 35.233 11.569 50.822 23.805l5.342 4.174v-1.264c-1.603-1.235-3.192-2.484-4.767-3.719-15.712-12.35-30.562-24.004-51.397-24.004a66.73 66.73 0 00-19.178 2.995c-20.149 5.942-38.148 17.935-51.726 34.466-7.439 9.185-8.411 17.262-9.452 25.808-.726 5.962-1.466 12.122-4.521 18.936a18.048 18.048 0 01-5.411 6.232c-2.959 2.512-6.041 5.096-6.26 10.292-.178 4.33 2.863 8.233 5.808 11.995 2.658 3.407 5.397 6.927 5.726 10.703.712 8.162-.082 10.959-.877 11.867-.106.13-.239.233-.388.304a1.105 1.105 0 01-.475.108c-3.78 0-11.835-14.437-15.287-20.612l-.754-1.42c-5.014-8.928-10.52-11.512-16.329-14.266a41.865 41.865 0 01-13.082-8.517 89.973 89.973 0 01-9.507-11.839 79.261 79.261 0 00-11.123-13.4c-1.89-1.704-3.616-3.308-5.219-4.784-12.589-11.64-17.808-16.452-36.849-21.066-8.603-2.087-11.22-6.587-14-11.356-2.288-3.904-4.644-7.95-10.343-10.987a16.564 16.564 0 00-7.972-1.888 46.844 46.844 0 00-9.165 1.249 44.931 44.931 0 01-8.918 1.235c-3.84.103-7.581-1.278-10.493-3.876-2.37-2.072-3.48-5.678-4.534-9.297a27.804 27.804 0 00-3.288-7.993 16.007 16.007 0 00-5.904-4.258c-2.74-1.42-5.178-2.711-6.123-5.068-2.165-5.422-2.096-9.936.219-13.57 5.48-8.518 22.301-10.363 35.411-10.363 5.033-.001 10.062.264 15.069.795 4.41.497 9.835 1.618 15.575 2.839 9.822 2.03 20.945 4.344 30.959 4.344 8.63 0 15.178-1.704 19.986-5.238 11.986-8.773 8.548-22.017 5.233-34.836-3.562-13.684-7.233-27.837 7.534-37.064a13.162 13.162 0 017.028-1.675c8.835 0 21.274 5.011 33.301 9.852 10.479 4.258 20.37 8.19 26.808 8.346h2.74c13.836 0 27.822-2.47 41.342-4.869 13.521-2.399 27.466-4.854 41.261-4.854a92.735 92.735 0 0126.616 3.634 171.616 171.616 0 0122.726 8.701v-1.093a172.772 172.772 0 00-22.37-8.517 93.578 93.578 0 00-26.876-3.676c-13.877 0-27.877 2.484-41.411 4.869-13.535 2.384-27.398 4.854-41.192 4.854h-2.74c-6.274-.156-16.096-4.102-26.479-8.29-12.124-4.869-24.658-9.936-33.658-9.936a13.832 13.832 0 00-7.52 1.817c-15.384 9.624-11.617 24.132-7.973 38.171 3.37 13.045 6.562 25.381-4.849 33.756z"/></g><defs><radialGradient id="paint0_radial_676_1001" cx="0" cy="0" r="1" gradientUnits="userSpaceOnUse" gradientTransform="rotate(19.571 -112.574 212.75) scale(313.46 672.585)"><stop stop-color="#F7FFE7"/><stop offset="1" stop-color="#D9FF8D"/></radialGradient><radialGradient id="paint1_radial_676_1001" cx="0" cy="0" r="1" gradientUnits="userSpaceOnUse" gradientTransform="rotate(19.571 -112.574 212.75) scale(313.46 672.585)"><stop stop-color="#F7FFE7"/><stop offset="1" stop-color="#FFE2D9"/></radialGradient></defs></svg>