<svg width="102" height="756" fill="none" xmlns="http://www.w3.org/2000/svg"><path d="M.768 680.793l100.464.001-.098-4.162c-.365-15.386-5.425-27.428-15.669-37.28-5.546-5.335-13.881-10.465-18.375-11.31l-2.156-.406-.047-79.922c-.043-73.054-.136-80.175-1.077-82.847-.565-1.608-1.285-2.995-1.6-3.083-.313-.087-1.433 2.961-2.488 6.773l-1.916 6.932-3.026-3.078c-1.664-1.694-3.24-3.079-3.5-3.079-.261 0-1.191 1.417-2.068 3.15l-1.593 3.15-5.947-6.609-4.422 4.249v154.364l-2.091.394c-2.295.431-9.116 3.879-12.982 6.562-9.027 6.265-16.62 17.292-19.427 28.219-.669 2.6-1.388 7.71-1.599 11.355l-.383 6.627zm78.517 74.02c4.874 2.745 11.758.526 14.17-4.567.887-1.873 1.01-5.333 1.007-28.548-.002-24.785-.074-26.534-1.16-28.321-3.511-5.768-10.437-7.135-15.716-3.1-4.016 3.07-4.104 3.804-3.907 32.793l.176 25.939 1.528 2.233c.84 1.228 2.596 2.836 3.902 3.571zm-64.975-.822c4.62 3.531 11.526 2.262 14.953-2.749l1.527-2.232.154-26.248c.145-24.767.087-26.393-1.029-28.827-2.913-6.357-11.334-7.929-16.575-3.094-3.099 2.858-3.16 3.458-3.16 31.3 0 23.258-.017 27.651 2.147 30.14.524.602 1.174 1.092 1.984 1.71zM61.32 0H33.636l.024 285.751 2.342 5.44c1.288 2.992 2.571 5.434 2.852 5.426.28-.008 1.249-2.245 2.152-4.972.903-2.728 1.799-5.115 1.99-5.307.19-.191.91 1.263 1.597 3.232 1.898 5.438 2.81 7.586 3.218 7.586.205 0 1.287-1.954 2.405-4.342l2.033-4.342 3.978 5.421c2.188 2.982 4.23 5.513 4.536 5.626.332.123.557-60.367.557-149.657V0z" fill="#2C2C2C"/><path d="M78.858 321.849c.142.142 3.301-.586 7.02-1.618 3.72-1.031 6.99-2.097 7.266-2.367.277-.27-.642-1.398-2.042-2.505-1.921-1.521-2.824-1.882-3.681-1.472-1.457.695-8.906 7.621-8.563 7.962zm6.79 53.985c.238 0 1.987-2.637 3.886-5.86 1.899-3.222 3.59-6.217 3.758-6.655.219-.57-3.703-2-13.765-5.02-7.739-2.322-14.627-4.36-15.306-4.528-.68-.168 3.766 4.727 9.879 10.879 6.113 6.151 11.31 11.184 11.548 11.184zm-18.315 43.199c.316 0 8.293-5.724 19.284-13.838 3.143-2.32 5.715-4.448 5.715-4.729 0-.69-8.3-7.353-9.159-7.353-.563 0-5.255 7.389-9.993 15.737-.578 1.019-2.202 3.727-3.608 6.017-1.407 2.291-2.415 4.166-2.24 4.166zm2.837-27.617c1.098 3.86 1.546 3.984 2.346.651.7-2.909.815-3.025 3.935-3.951l3.216-.953-2.472-.724c-1.359-.399-2.791-.726-3.182-.728-.39-.002-1.047-1.407-1.46-3.122-.842-3.506-1.254-3.474-2.169.17-.584 2.325-.869 2.59-3.707 3.436l-3.074.918 1.854.812c1.019.447 2.328.825 2.91.841.704.018 1.305.902 1.802 2.65zm-4.615-60.843l4.26-1.165c2.343-.641 4.342-1.248 4.442-1.348.1-.1-1.818-.708-4.262-1.352-3.736-.985-4.514-1.417-4.882-2.714-.241-.849-.77-2.757-1.176-4.242-.883-3.228-1.405-2.814-2.51 1.991-.458 1.986-1.128 3.703-1.49 3.815a327.5 327.5 0 01-4.233 1.195c-1.966.545-3.434 1.219-3.262 1.496.172.279 1.987.861 4.032 1.294l3.72.789 1.011 3.465a1148.61 1148.61 0 011.256 4.325c.387 1.361.917.396 2.045-3.719l1.05-3.83zm-23.853 68.712c-.005.354 12.587 8.022 13.173 8.022.213 0 .371-.207.35-.462-.084-1.081-5.85-11.88-6.342-11.88-.684 0-7.177 3.905-7.181 4.32zm-2.962-20.671c.274-.49 1.738-4.439 3.254-8.778 1.517-4.338 2.759-7.957 2.761-8.042.015-.578-1.395.563-7.557 6.111-3.827 3.446-7.047 6.335-7.156 6.42-.108.085 1.693 1.284 4.002 2.666 3.406 2.038 4.292 2.344 4.696 1.623zm-8.766 57.082c.363 0 3.482-.715 6.931-1.588 3.45-.873 6.657-1.804 7.129-2.067.535-.3-1.661-1.103-5.85-2.141-3.69-.914-7.195-1.807-7.79-1.986-.952-.285-1.08.156-1.08 3.729 0 2.464.258 4.053.66 4.053zm-5.654-79.151a1569.43 1569.43 0 0011.48-7.134c8.378-5.251 8.947-5.669 7.72-5.669-1.983 0-29.035 7.085-29.035 7.604 0 .311 1.299 2.168 2.884 4.125l2.885 3.559 4.066-2.485zm.01-22.203c.284.54 2.924-1.082 8.542-5.246 4.473-3.315 8.143-6.236 8.156-6.491.013-.254-4.004-.462-8.928-.462h-8.95l.385 5.708c.212 3.139.57 6.06.795 6.491zm-11.544 65.189c1.969.903 8.913 3.994 21.105 9.393 3.368 1.491 6.217 2.618 6.333 2.502.115-.115-1.945-2.121-4.578-4.46a542.723 542.723 0 01-8.495-7.718c-10.465-9.786-14.06-12.969-14.34-12.691-.344.344-2.002 9.369-2.02 11.002-.007.592.864 1.453 1.995 1.972zm4.104 38.952c.49-1.942 1.027-2.796 1.774-2.815 1.649-.043 4.81-1.541 4.135-1.958-.33-.204-1.645-.567-2.921-.806-2.114-.396-2.382-.677-3.003-3.141-.375-1.489-.924-2.707-1.218-2.707-.295 0-.846 1.23-1.225 2.733-.638 2.53-.868 2.764-3.095 3.14-3.368.568-3.514 1.341-.422 2.244 3.095.903 3.316 1.153 3.826 4.34.477 2.982 1.228 2.623 2.148-1.03z" fill="#FF7043"/></svg>