<svg width="20" height="20" fill="none" xmlns="http://www.w3.org/2000/svg"><g clip-path="url(#clip0_769_13891)" fill="#2C2C2C"><path d="M7.985 9.375h3.405v1.172H7.985V9.375z"/><path d="M15.719 10.547h-3.193v.586a.577.577 0 01-.568.586H7.417a.577.577 0 01-.568-.586v-.586H3.656c-.357 0-.706-.116-.995-.332a1.753 1.753 0 01-.62-.87L0 3.024V15.82c0 .97.764 1.758 1.703 1.758h15.97c.938 0 1.702-.788 1.702-1.758V3.024l-2.041 6.321c-.113.35-.33.655-.62.87-.29.216-.638.332-.995.332z"/><path d="M11.958 0H7.417c-.94 0-1.703.789-1.703 1.758v.586H.977l2.14 6.63a.58.58 0 00.207.29.557.557 0 00.332.111H6.85v-.586c0-.324.254-.586.568-.586h4.54c.315 0 .568.262.568.586v.586h3.194a.57.57 0 00.538-.4l2.141-6.631h-4.737v-.586C13.66.788 12.897 0 11.958 0zM6.849 2.344v-.586c0-.324.255-.586.568-.586h4.54c.314 0 .568.262.568.586v.586H6.85z"/></g><defs><clipPath id="clip0_769_13891"><path fill="#fff" d="M0 0h19.375v20H0z"/></clipPath></defs></svg>