<svg width="16" height="16" fill="none" xmlns="http://www.w3.org/2000/svg"><circle cx="8" cy="8" r="8" fill="#E24D2C"/><path d="M6.903 9.82v-.121c.003-.414.04-.745.11-.99.074-.247.18-.446.32-.597.14-.152.308-.29.504-.412.147-.095.279-.193.395-.295.116-.102.208-.214.277-.338a.858.858 0 00.103-.419.785.785 0 00-.118-.43.78.78 0 00-.316-.283.941.941 0 00-.433-.1c-.154 0-.3.035-.437.103a.834.834 0 00-.337.299.915.915 0 00-.142.486H5.38c.012-.473.125-.864.34-1.172.216-.31.502-.54.857-.692a2.923 2.923 0 011.175-.231c.471 0 .888.078 1.25.234.362.154.646.378.852.671.206.294.31.648.31 1.062 0 .277-.047.523-.14.739a1.8 1.8 0 01-.38.568 2.944 2.944 0 01-.578.444c-.187.111-.34.227-.462.348-.118.12-.207.26-.266.419a1.806 1.806 0 00-.089.586v.12H6.903zm.704 2.272a.834.834 0 01-.608-.248.817.817 0 01-.245-.604.801.801 0 01.245-.597.833.833 0 01.608-.248.83.83 0 01.593.248.815.815 0 01.135 1.027.918.918 0 01-.31.309.807.807 0 01-.418.113z" fill="#fff"/></svg>