<svg width="110" height="191" viewBox="0 0 110 191" fill="none" xmlns="http://www.w3.org/2000/svg">
<path d="M26.3428 132.473C26.3428 126.294 27.049 120.644 28.4614 115.524C29.8738 110.404 32.169 105.726 35.3469 101.488C38.5248 97.0745 42.8503 93.1903 48.3235 89.8359C51.3248 88.0703 54.8559 86.1283 58.9166 84.0097C62.9772 81.7145 66.8614 79.0662 70.569 76.0648C74.2766 73.0634 77.3662 69.5324 79.8379 65.4717C82.4862 61.411 83.8104 56.6441 83.8104 51.171C83.8104 45.3448 82.3979 40.4897 79.5731 36.6055C76.7483 32.5448 73.129 29.5434 68.7152 27.6014C64.4779 25.4828 59.7993 24.4235 54.6793 24.4235C49.2062 24.4235 44.1745 25.571 39.5841 27.8662C34.9938 30.1614 31.0214 33.0745 27.6669 36.6055C24.3124 40.1366 21.4876 43.8441 19.1924 47.7283L0.124831 34.7517C3.30276 27.5131 7.71656 21.3338 13.3662 16.2138C19.0159 11.0938 25.46 7.20966 32.6986 4.56137C39.9372 1.9131 47.529 0.588962 55.4738 0.588962C62.0062 0.588962 68.4503 1.64827 74.8062 3.7669C81.3386 5.70896 87.1648 8.79862 92.2848 13.0359C97.4048 17.2731 101.466 22.6579 104.467 29.1904C107.645 35.5462 109.234 43.2262 109.234 52.2303C109.234 58.4097 108.439 63.7945 106.85 68.3848C105.438 72.7986 103.319 76.771 100.494 80.3021C97.6697 83.8331 94.4035 87.011 90.6959 89.8359C86.9883 92.4841 82.9276 95.0441 78.5138 97.5159C74.1 100.164 69.7745 102.901 65.5372 105.726C61.3 108.374 57.769 111.728 54.9441 115.789C52.1193 119.85 50.7069 125.411 50.7069 132.473H26.3428ZM27.1372 191V157.632H51.2366V191H27.1372Z" fill="#ED502D"/>
</svg>
