<svg width="366" height="161" viewBox="0 0 366 161" fill="none" xmlns="http://www.w3.org/2000/svg">
<rect width="366" height="161" fill="url(#paint0_radial_676_1001)"/>
<mask id="mask0_676_1001" style="mask-type:alpha" maskUnits="userSpaceOnUse" x="0" y="0" width="366" height="161">
<rect width="366" height="161" fill="url(#paint1_radial_676_1001)"/>
</mask>
<g mask="url(#mask0_676_1001)">
<g style="mix-blend-mode:color-burn">
<path d="M36.9902 291.14C55.1523 288.997 74.6282 267.19 74.8746 248.717C75.2578 220.341 59.5593 197.768 44.3673 175.89C41.7805 172.187 39.1116 168.342 36.5933 164.539L35.0878 162.269C27.9297 151.6 19.8273 139.568 17.1994 126.43C14.9685 115.349 11.5606 89.5409 15.2696 80.6592C18.0069 74.1468 25.7399 70.4153 33.2264 66.7974C38.3999 64.3145 43.2997 61.9592 46.735 58.7243L46.8856 58.5825C58.6286 47.5441 58.6286 47.5441 66.6353 47.232C69.0578 47.1469 72.1099 47.0475 76.3254 46.6219C80.2187 46.2691 84.0776 45.5858 87.8631 44.5788C89.0705 44.2065 90.3149 43.9781 91.5722 43.8978C94.0358 43.8978 96.1024 45.6997 102.932 51.7012C123.12 69.4222 122.736 100.239 122.367 130.048C121.902 167.547 121.423 206.337 162.373 218.61C167.905 220.316 173.641 221.209 179.412 221.263C194.81 221.263 207.908 214.169 217.311 200.648C231.107 180.87 234.775 149.982 226.439 123.805C207.182 63.3922 161.168 28.8442 111.664 -4.0722C66.69 -33.9949 23.8374 -42.2382 -12.7878 -47.6155C-15.272 -47.9874 -17.778 -48.1818 -20.288 -48.1972C-35.1379 -48.1972 -42.1865 -40.3654 -51.1375 -30.4621C-54.7272 -26.3512 -58.5188 -22.4348 -62.4973 -18.7285C-67.534 -14.1458 -73.9393 -10.996 -80.1256 -7.95975C-90.2263 -3.00811 -99.7658 1.65978 -103.708 12.0597C-112.07 34.1222 -91.5265 51.304 -73.3918 66.4711C-65.002 73.5651 -57.0775 80.1342 -52.4377 86.7601C-34.0156 113.036 -39.5313 157.346 -56.2289 182.246C-61.4435 190.007 -71.4347 199.626 -82.0007 209.799C-99.5195 226.655 -119.379 245.766 -122.882 261.813C-124.538 269.375 -124.101 274.582 -121.514 277.931C-119.392 280.683 -115.82 282.017 -110.565 282.017C-101.956 282.017 -89.6241 278.342 -76.5808 274.44C-60.636 269.687 -42.556 264.296 -27.145 264.296C-20.7648 264.101 -14.4196 265.34 -8.54495 267.928C-2.87438 270.856 2.44118 274.471 7.29037 278.697C15.3244 285.167 22.9067 291.282 33.637 291.282C34.7563 291.293 35.8755 291.246 36.9902 291.14ZM-8.35334 267.332C-14.3189 264.705 -20.762 263.447 -27.2408 263.643C-42.7613 263.643 -60.8823 269.049 -76.8682 273.816C-89.8705 277.704 -102.147 281.364 -110.66 281.364C-115.656 281.364 -119.05 280.116 -121.035 277.548C-123.43 274.426 -123.772 269.361 -122.225 262.04C-118.763 246.192 -98.9583 227.166 -81.5353 210.381C-70.9419 200.18 -60.9234 190.518 -55.6678 182.7C-38.8333 157.615 -33.2902 112.923 -51.8766 86.3912C-56.5711 79.6944 -64.5366 73.026 -72.9676 65.9745C-90.9106 50.9635 -111.29 33.9519 -103.078 12.3718C-99.232 2.2415 -89.8157 -2.38382 -79.8108 -7.26453C-73.5698 -10.3292 -67.1234 -13.4789 -62.0183 -18.1326C-58.0294 -21.8568 -54.2243 -25.7871 -50.6174 -29.9087C-41.7896 -39.6985 -34.8094 -47.4311 -20.2606 -47.4311C-17.7822 -47.4228 -15.3076 -47.2284 -12.8562 -46.8493C23.7005 -41.4862 66.5258 -33.2571 111.336 -3.41954C160.717 29.4259 206.635 63.8888 225.81 124.089C234.09 150.053 230.463 180.685 216.79 200.293C207.525 213.588 194.605 220.611 179.44 220.611C173.723 220.556 168.042 219.667 162.564 217.972C144.416 212.523 132.947 201.357 127.472 183.821C122.586 168.1 122.819 148.776 123.051 130.091C123.421 100.125 123.804 69.0817 103.37 51.2047C93.5978 42.6209 93.3377 42.4932 87.6989 43.9403C83.9497 44.9409 80.1273 45.6195 76.2706 45.9693C72.0278 46.3807 69.0304 46.48 66.6216 46.5651C58.4097 46.8631 58.4097 46.8631 46.4339 58.0717L46.2697 58.2136C42.9165 61.3633 38.0578 63.7044 32.939 66.1731C25.3293 69.8336 17.4595 73.636 14.6401 80.3612C10.8626 89.4274 14.2842 115.392 16.5288 126.543C19.184 139.753 27.3275 151.912 34.5266 162.652L36.0321 164.908C38.5505 168.696 41.2193 172.541 43.8061 176.259C58.8613 198.037 74.5735 220.568 74.1903 248.618C73.9439 266.793 54.7827 288.231 36.9081 290.345C35.79 290.474 34.6661 290.54 33.5412 290.544C23.0436 290.544 15.5434 284.514 7.61887 278.115C2.71908 274.256 -2.34495 270.17 -8.35334 267.332Z" fill="#5D5D5D"/>
<path d="M357.109 72.2317C356.431 71.7059 355.359 70.7397 354.015 69.5035C348.844 64.8002 340.199 56.8998 334.118 56.8998C332.993 56.8715 331.886 57.1996 330.941 57.841C329.997 58.4824 329.259 59.4073 328.825 60.4947C327.4 63.4929 330.522 70.4413 332.585 75.0025C333.087 76.125 333.521 77.0913 333.793 77.8444C334.349 79.2653 334.851 80.601 335.286 81.7661C338.412 89.9125 341.108 98.2328 343.361 106.689C343.592 107.613 343.809 108.65 344.053 109.759C345.057 114.49 346.32 120.373 349.482 123.257C350.488 124.248 351.687 125 352.997 125.46C353.486 125.615 353.993 125.697 354.503 125.701C358.195 125.701 360.733 121.311 363.19 117.062C363.746 116.096 364.33 115.101 364.9 114.22L365.456 113.339C374.807 98.4337 380.453 89.4392 363.257 76.935C361.547 75.6703 359.376 73.9652 357.109 72.2317ZM364.845 112.856L364.302 113.723C363.719 114.661 363.135 115.67 362.565 116.636C360.217 120.714 357.774 124.934 354.422 124.934C353.962 124.935 353.504 124.863 353.065 124.721C351.851 124.286 350.74 123.584 349.808 122.661C346.849 119.932 345.614 114.135 344.623 109.56C344.392 108.437 344.162 107.386 343.931 106.448C341.666 97.9633 338.947 89.6187 335.788 81.4535C335.353 80.2884 334.838 78.9527 334.281 77.5317C333.996 76.8071 333.562 75.8266 333.06 74.6899C331.173 70.4981 328.025 63.4787 329.3 60.7931C329.676 59.8239 330.326 58.9983 331.163 58.4268C332 57.8554 332.984 57.5655 333.983 57.596C339.819 57.596 348.342 65.3827 353.431 70.0292C354.788 71.2654 355.861 72.2459 356.58 72.8711C358.847 74.6046 361.018 76.2529 362.701 77.4749C379.476 89.5245 373.966 98.3058 364.845 112.856Z" fill="#5D5D5D"/>
<path d="M368.422 56.4844C365.407 54.1876 362.407 51.6198 359.229 48.895C349.504 40.5924 338.483 31.1913 328.581 31.1913C326.646 31.1894 324.727 31.5618 322.921 32.2898C305.435 39.1944 307.918 58.5386 310.987 69.3806C312.855 76.0426 315.269 82.6477 317.602 89.0244C320.492 96.5272 322.987 104.19 325.076 111.978C326.156 116.756 326.939 121.602 327.422 126.486C329.181 141.251 330.845 155.189 349.668 155.189C351.154 155.189 352.764 155.103 354.441 154.932C356.292 154.776 358.121 154.412 359.897 153.848C364.903 152.164 366.403 148.997 368.667 144.19C369.349 142.763 370.127 141.08 371.095 139.311C372.539 136.653 374.11 134.073 375.801 131.579V130.837C373.964 133.518 372.257 136.294 370.686 139.154C369.717 140.937 368.94 142.592 368.244 144.047C366.021 148.755 364.562 151.865 359.72 153.505C357.987 154.05 356.204 154.404 354.4 154.561C352.736 154.732 351.141 154.818 349.668 154.818C331.2 154.818 329.645 141.693 327.845 126.486C327.363 121.582 326.575 116.717 325.485 111.921C323.385 104.12 320.886 96.444 317.997 88.9246C315.665 82.5478 313.251 75.9713 311.396 69.3235C308.381 58.5387 305.94 39.4654 323.071 32.675C324.833 31.9633 326.706 31.6004 328.595 31.605C338.361 31.605 349.313 40.9633 358.983 49.2232C362.161 51.9336 365.176 54.5015 368.19 56.8125C370.468 58.5529 372.473 60.0793 373.973 61.1635L375.814 62.4903V61.9624L374.205 60.8069C372.691 59.737 370.686 58.2105 368.422 56.4844Z" fill="#5D5D5D"/>
<path d="M326.612 -150.263H321.343H316.458C307.124 -150.263 299.707 -149.737 291.509 -147.147C287.306 -145.682 283.235 -143.834 279.343 -141.626C272.856 -138.197 266.739 -134.953 259.417 -134.953C258.194 -134.951 256.973 -135.041 255.763 -135.223C250.357 -136.034 246.306 -139.35 242.392 -142.551C237.999 -146.151 233.853 -149.552 228.023 -149.552C227.483 -149.551 226.944 -149.523 226.408 -149.467C222.822 -149.082 217.061 -145.724 211.505 -142.466C208.496 -140.588 205.369 -138.924 202.144 -137.486C199.529 -136.487 196.855 -135.665 194.138 -135.024C188.376 -133.601 187.651 -133.075 184.859 -122.062C184.093 -119.017 183.491 -116.171 182.984 -113.425C180.972 -103.208 179.385 -95.1976 168.916 -87.5567C161.84 -82.3632 152.876 -79.8446 141.545 -79.8446C130.213 -79.8446 118.485 -82.292 108.084 -84.469C102.61 -85.5931 97.5054 -86.6603 93.7009 -87.0871C91.4839 -87.329 88.0625 -87.4855 84.5591 -87.4855C74.514 -87.4855 62.7446 -83.658 61.9235 -78.1656C61.5266 -75.576 63.4836 -71.663 75.0067 -67.8355L76.2794 -67.4086C120.168 -52.7813 150.783 -33.6719 181.944 -1.48621C190.525 7.39261 197.094 11.5332 202.595 11.5332C203.876 11.5328 205.147 11.2918 206.345 10.8218C212.189 8.55937 216.445 0.861542 221.399 -7.98882C223.945 -12.5705 226.873 -17.7641 230.253 -22.7726C246.459 -46.7464 270.001 -64.3017 297.038 -72.5737C304.4 -74.8225 312.028 -75.9958 319.701 -76.0598C343.336 -76.0598 360.018 -64.0221 375.811 -51.643V-52.5394C360.045 -64.8759 343.363 -76.7285 319.701 -76.7285C311.943 -76.6582 304.233 -75.4657 296.792 -73.1855C269.601 -64.8564 245.928 -47.1905 229.638 -23.0714C226.203 -18.0486 223.301 -12.8409 220.756 -8.24492C215.884 0.520065 211.682 8.08983 206.071 10.2526C204.945 10.6832 203.754 10.9047 202.554 10.9071C197.244 10.9071 190.84 6.83768 182.382 -1.89886C151.138 -34.17 120.456 -53.322 76.4573 -67.992L75.1709 -68.4189C66.5492 -71.2646 62.0604 -74.6796 62.553 -77.9522C63.2373 -82.5197 73.7066 -86.6745 84.518 -86.6745C87.9941 -86.6745 91.3607 -86.518 93.5777 -86.2761C97.3686 -85.8635 102.487 -84.8532 107.906 -83.658C118.335 -81.5379 130.159 -79.0194 141.504 -79.0194C152.849 -79.0194 162.128 -81.5806 169.313 -86.8595C180.001 -94.728 181.629 -102.91 183.655 -113.283C184.202 -116.029 184.75 -118.86 185.53 -121.82C188.267 -132.79 188.869 -132.933 194.288 -134.284C197.034 -134.924 199.736 -135.751 202.376 -136.76C205.637 -138.209 208.797 -139.892 211.833 -141.797C217.088 -144.856 223.028 -148.328 226.476 -148.698C226.99 -148.755 227.506 -148.783 228.023 -148.784C233.606 -148.784 237.671 -145.454 241.982 -141.939C245.964 -138.681 250.07 -135.309 255.667 -134.469C256.914 -134.283 258.171 -134.188 259.431 -134.185C266.917 -134.185 273.39 -137.614 279.658 -140.929C283.518 -143.121 287.557 -144.954 291.728 -146.407C299.83 -148.969 307.206 -149.495 316.471 -149.495H321.343H326.626C334.351 -149.577 342.048 -148.533 349.494 -146.393C358.528 -143.617 367.329 -140.082 375.811 -135.821V-136.618C367.383 -140.845 358.642 -144.362 349.672 -147.133C342.165 -149.295 334.402 -150.349 326.612 -150.263Z" fill="#5D5D5D"/>
<path d="M368.779 69.1532C367.194 68.0206 365.05 66.4068 362.81 64.708C359.601 62.273 356.501 59.654 353.25 56.851C352.513 56.2281 351.693 55.5202 350.833 54.7558C345.37 49.9141 337.79 43.2888 330.866 43.2888C328.999 43.2779 327.168 43.8127 325.581 44.8319C313.603 52.5048 320.801 70.852 325.116 81.8235C325.635 83.1542 326.127 84.4142 326.482 85.5326C329.51 93.3133 332.118 101.263 334.294 109.344C334.69 110.901 335.086 112.742 335.496 114.681C337.408 123.572 340.03 135.761 346.599 140.164C347.621 140.861 348.776 141.32 349.986 141.508C350.34 141.554 350.695 141.577 351.051 141.579C359.082 141.579 367.085 128.937 372.903 119.693C373.968 118.022 374.924 116.508 375.812 115.191V114.455C374.842 115.871 373.764 117.569 372.562 119.466C366.771 128.626 358.836 141.154 351.024 141.154C350.686 141.153 350.349 141.129 350.014 141.084C348.862 140.911 347.761 140.476 346.79 139.81C340.372 135.563 337.777 123.43 335.865 114.596C335.441 112.657 335.045 110.817 334.649 109.245C332.475 101.148 329.863 93.1836 326.823 85.391C326.414 84.2726 325.922 83.0127 325.389 81.6819C321.142 70.8378 314.013 52.703 325.704 45.1999C327.232 44.2474 328.987 43.757 330.77 43.7843C337.599 43.7843 345.015 50.353 350.478 55.1097C351.338 55.8741 352.144 56.5253 352.909 57.2332C356.2 60.0645 359.3 62.6411 362.469 65.076C364.709 66.7749 366.853 68.3887 368.451 69.5354C370.581 71.0643 372.726 72.5791 375.034 74.193L375.744 74.6885V74.1788L375.238 73.8249C373.108 72.1969 370.909 70.6821 368.779 69.1532Z" fill="#5D5D5D"/>
<path d="M297.664 169.793C298.429 170.843 299.892 172.29 303.541 172.631C317.208 173.795 337.845 175.554 355.27 192.043L355.475 192.227C361.651 198.198 366.55 205.449 369.853 213.512C370.85 215.839 372.463 217.187 374.267 217.187C374.784 217.183 375.295 217.072 375.77 216.861V216.35C375.307 216.607 374.792 216.748 374.267 216.762C372.627 216.762 371.151 215.513 370.235 213.342C366.901 205.236 361.965 197.946 355.748 191.944L355.543 191.745C338.009 175.171 317.276 173.411 303.609 172.234C300.124 171.95 298.757 170.602 298.019 169.609C296.668 167.522 296.051 165.017 296.27 162.514C298.17 153.829 300.534 143.017 299.646 131.182C298.142 111.16 290.434 93.9621 282.972 77.2606C276.986 63.9079 270.207 48.7672 272.558 41.8709C276.754 29.5824 293.892 11.9869 301.067 4.97712C305.374 0.638088 311.152 -1.76769 317.153 -1.72053C320.022 -1.69884 322.87 -1.22028 325.599 -0.301536C338.173 3.95544 355.967 13.5478 375.811 26.787V26.3046C356.035 13.1221 338.282 3.51555 325.722 -0.656284C322.953 -1.58467 320.063 -2.06331 317.153 -2.07528C311.034 -2.13138 305.14 0.321295 300.753 4.75007C293.564 11.7599 276.371 29.4263 272.148 41.8C269.742 48.8949 276.562 64.0781 282.576 77.516C290.024 94.1182 297.719 111.288 299.208 131.239C300.083 143.002 297.732 153.773 295.833 162.457C295.63 165.047 296.275 167.632 297.664 169.793Z" fill="#5D5D5D"/>
<path d="M323.082 157.423C326.219 159.205 330.51 159.961 334.678 160.688C337.678 161.123 340.637 161.819 343.523 162.769C345.353 163.507 347.144 164.344 348.888 165.278C352.822 167.288 357.293 169.554 361.378 169.554C362.132 169.556 362.883 169.474 363.621 169.312L364.184 169.155C370.017 167.359 373.126 159.775 375.808 152.819V151.636V151.75C373.057 158.877 370.003 166.903 364.116 168.713L363.593 168.856C362.885 169.024 362.16 169.105 361.433 169.098C357.458 169.098 353.029 166.846 349.122 164.822C347.364 163.879 345.559 163.032 343.716 162.284C340.807 161.329 337.825 160.633 334.802 160.203C330.676 159.476 326.411 158.778 323.344 156.982C316.548 153.119 317.25 146.048 318.007 138.564C318.378 135.674 318.507 132.755 318.392 129.841C316.617 106.121 308.116 87.1762 299.89 68.859C298.05 64.8719 297.031 60.5313 296.898 56.1138C296.766 51.6962 297.522 47.2984 299.12 43.2005C300.994 38.6545 303.751 34.5563 307.217 31.1601C310.684 27.7639 314.787 25.1422 319.272 23.4577C322.136 22.3268 325.176 21.7471 328.241 21.7472C341.515 21.7472 353.978 32.2957 364.969 41.5897C368.091 44.2268 371.035 46.7214 373.855 48.8454L375.808 50.4276V49.9002L374.034 48.5603C371.282 46.4363 368.297 43.956 365.175 41.3189C354.17 31.9678 341.611 21.3623 328.186 21.3623C325.069 21.3634 321.979 21.9527 319.066 23.1014C314.53 24.8034 310.38 27.4531 306.873 30.886C303.366 34.3189 300.577 38.4619 298.68 43.058C297.061 47.2106 296.294 51.6672 296.429 56.1438C296.564 60.6204 297.598 65.0188 299.464 69.0585C307.717 87.3331 316.163 106.249 317.924 129.883C318.039 132.774 317.91 135.669 317.539 138.536C316.81 145.934 316.053 153.418 323.082 157.423Z" fill="#5D5D5D"/>
<path d="M314.381 164.924C317.123 165.65 319.866 166.347 322.608 166.945C336.952 170.402 349.334 173.376 361.717 185L361.963 185.242C364.802 187.917 367.051 189.212 368.82 189.212C369.088 189.216 369.355 189.182 369.615 189.113C372.358 188.472 373.647 184.574 375.1 179.551C375.32 178.783 375.566 178 375.813 177.232V175.809C375.429 177.004 375.059 178.214 374.703 179.423C373.263 184.303 371.96 188.088 369.505 188.686C367.723 189.127 365.392 187.889 362.197 184.901L361.95 184.673C349.485 172.963 337.061 169.975 322.663 166.518C320.016 165.877 317.274 165.223 314.435 164.497C304.37 161.879 306.071 152.062 307.716 142.571C308.581 138.628 308.982 134.591 308.909 130.548C307.277 108.679 299.173 90.5945 291.33 73.1076C290.397 71.0161 289.396 68.9672 288.423 66.9894C283.376 56.7449 279.029 47.8805 285.255 36.9815C289.931 28.7859 296.938 22.0701 303.726 15.6388C304.946 14.4721 306.167 13.3053 307.36 12.1386C310.273 9.47955 314.07 8.1017 317.946 8.29689C334.84 8.29689 360.825 26.9504 375.772 38.1767V37.6503C360.729 26.3386 334.908 7.77044 317.987 7.77044C314.005 7.57608 310.106 8.99433 307.113 11.726C305.92 12.8927 304.699 14.0594 303.479 15.2262C296.623 21.7428 289.643 28.4729 284.94 36.7254C278.604 47.8236 283.212 57.2144 288.093 67.1459C289.067 69.1237 290.068 71.1584 291.001 73.2499C298.83 90.6941 306.921 108.75 308.553 130.548C308.609 134.553 308.209 138.55 307.36 142.457C305.687 152.19 303.945 162.206 314.381 164.924Z" fill="#5D5D5D"/>
<path d="M26.223 369.732C22.7547 375.148 18.4502 381.902 19.9307 386.565C20.3178 387.593 20.9306 388.515 21.7206 389.255C22.5106 389.995 23.4561 390.535 24.482 390.83C24.9576 391.003 25.4585 391.09 25.9626 391.086C31.2679 391.086 39.6714 382.556 47.0467 375.12C51.7626 370.357 56.2042 365.865 58.8774 364.599C71.6677 358.585 89.2835 355.728 104.829 353.226C110.971 352.23 116.756 351.278 122.116 350.197C133.644 347.79 145.369 346.538 157.128 346.458C193.224 346.458 223.548 359.936 247.236 386.508C249.882 389.494 253.748 391.001 258.711 391.001C274.174 391.001 300.701 375.362 319.386 346.458C330.559 329.156 346.803 293.769 329.914 251.274C323.142 234.213 313.094 226.309 298.288 226.309C287.006 226.309 274.147 230.574 259.259 235.578C240.944 241.706 220.175 248.644 197.844 248.644C180.79 248.728 163.99 244.351 148.999 235.919C101.306 209.546 99.9079 161.407 104.034 122.438C105.624 107.268 103.033 95.2687 96.5081 87.7336C94.2323 85.097 91.4324 83.0034 88.3014 81.5971C85.1703 80.1907 81.7825 79.505 78.3713 79.5871C64.6625 79.5871 47.4306 90.6765 41.2342 111.846C35.4079 131.75 49.2264 149.905 65.2383 170.89C83.2791 194.547 103.733 221.361 99.7708 257.146C97.7967 274.889 91.5455 291.907 83.0598 302.641C76.6166 310.816 70.9275 311.541 64.8956 312.308C60.2894 312.906 55.5325 313.503 49.953 317.185C45.6895 320.028 44.3598 324.748 42.9341 329.81C42.1544 333.366 40.7911 336.756 38.9037 339.833C37.7796 341.454 35.8192 341.809 33.7492 342.179C31.0074 342.676 27.9367 343.231 26.2916 346.885C25.1538 349.43 26.6617 352.429 28.1149 355.33C29.3212 357.747 30.5825 360.249 30.2123 362.325C29.9107 363.974 28.1971 366.647 26.223 369.732ZM28.814 354.932C27.4431 352.088 26.0723 349.401 27.0045 347.212C28.4713 343.956 31.2268 343.458 33.8589 342.946C35.9974 342.563 38.2045 342.165 39.5206 340.274C41.442 337.113 42.8326 333.637 43.6332 329.995C45.0041 325.09 46.2927 320.469 50.3094 317.825C55.7929 314.256 60.3991 313.659 64.923 313.076C71.1057 312.294 76.9593 311.541 83.5944 303.124C92.1898 292.234 98.4959 275.045 100.484 257.16C104.487 221.034 83.9234 194.078 65.7867 170.293C49.9119 149.493 36.2168 131.523 41.9196 112.002C48.0063 91.2026 64.827 80.3264 78.3028 80.3264C81.6015 80.2454 84.8781 80.9062 87.9071 82.2634C90.9362 83.6206 93.6459 85.6419 95.8501 88.1885C102.225 95.553 104.747 107.339 103.171 122.31C99.0579 161.549 100.429 210.001 148.56 236.616C163.665 245.111 180.593 249.512 197.775 249.411C220.23 249.411 241.067 242.459 259.465 236.317C274.284 231.356 287.088 227.076 298.247 227.076C312.888 227.076 322.415 234.626 329.133 251.544C345.871 293.684 329.777 328.786 318.687 345.96C300.865 373.613 274.147 390.133 258.67 390.133C253.94 390.133 250.266 388.712 247.771 385.868C223.973 359.126 193.457 345.591 157.128 345.591C145.319 345.663 133.543 346.915 121.965 349.33C116.633 350.425 110.834 351.363 104.706 352.358C89.1053 354.889 71.4347 357.761 58.5484 363.817C55.8067 365.125 51.4609 369.504 46.4984 374.494C39.2053 381.873 30.9389 390.219 25.9352 390.219C25.5203 390.228 25.1072 390.16 24.7151 390.02C23.7945 389.785 22.9412 389.325 22.226 388.68C21.5108 388.035 20.9542 387.222 20.6024 386.309C19.2315 382.044 23.4264 375.461 26.7988 370.187C28.8277 367.016 30.5687 364.286 30.9115 362.452C31.405 360.107 30.0889 357.476 28.814 354.932Z" fill="#5D5D5D"/>
<path d="M357.252 272.819C359.731 274.157 362.51 274.781 365.299 274.626C368.864 274.578 372.405 273.993 375.809 272.891V271.838C372.412 272.978 368.869 273.583 365.299 273.63C362.694 273.775 360.099 273.206 357.772 271.98C349.739 266.644 346.181 257.211 342.417 247.237C339.174 238.629 335.821 229.722 329.293 223.448V223.149H329.006C321.52 216.277 311.42 212.933 298.145 212.933C285.199 212.933 271.582 216.163 260.648 218.766C253.162 220.531 246.716 222.067 242.556 222.067C240.12 222.067 238.628 221.541 238.013 220.474C237.205 219.051 237.821 216.362 239.846 212.506C249.303 194.564 268.394 151.766 267.08 134.052C266.04 120.08 259.581 105.595 253.326 91.6801C244.267 71.4903 234.92 50.5606 241.694 30.6411C249.467 7.87599 283.694 -32.8594 308.054 -36.3168C309.565 -36.5218 311.087 -36.6216 312.611 -36.6156C328.445 -36.6156 351.627 -26.7982 375.782 -12.5842V-13.6513C351.614 -27.8795 328.458 -37.6116 312.611 -37.6116C311.041 -37.6201 309.473 -37.5155 307.917 -37.2986C283.283 -33.7984 248.632 7.30685 240.791 30.2996C233.852 50.646 243.295 71.7322 252.423 92.1354C258.636 106.008 265.055 120.364 266.108 134.151C267.285 149.945 250.63 189.983 238.998 212.065C236.726 216.333 236.151 219.179 237.178 221.015C237.985 222.437 239.737 223.092 242.542 223.092C246.812 223.092 253.313 221.555 260.84 219.762C271.788 217.173 285.295 213.957 298.132 213.957C311.242 213.957 321.178 217.258 328.499 224.059C334.959 230.192 338.298 239.042 341.528 247.621C345.346 257.738 348.959 267.313 357.252 272.819Z" fill="#5D5D5D"/>
<path d="M46.0204 354.342C47.4796 354.637 48.966 354.761 50.4518 354.712C54.6233 354.712 70.0647 354.072 94.1363 345.804C115.566 338.688 137.931 335.074 160.429 335.091C197.658 335.091 222.4 340.888 254.254 372.57C256.705 374.889 259.941 376.104 263.253 375.952C277.108 375.952 298.048 360.324 310.931 340.305C320.998 324.677 335.619 292.81 320.505 254.692C313.995 238.297 305.83 236.024 297.979 236.024C288.269 236.024 276.096 240.087 262.036 244.804C243.08 251.155 221.593 258.344 197.754 258.344C179.132 258.442 160.787 253.664 144.413 244.449C91.0727 214.898 90.3477 159.83 94.4372 120.987C95.7092 108.954 93.9038 99.4349 89.3767 94.1782C88.0142 92.6126 86.3387 91.3755 84.4676 90.5533C82.5964 89.7312 80.5748 89.3439 78.5444 89.4187C68.4097 89.4187 55.6354 98.0283 50.8347 114.452C46.4991 129.313 58.8221 145.481 73.0873 164.178C91.3325 188.117 114.023 217.952 109.605 257.733C108.404 268.929 105.452 279.846 100.865 290.054C94.1465 305.293 84.5141 318.953 72.5539 330.204C66.0457 336.051 59.0471 341.281 51.6417 345.832C46.5401 349.128 43.4354 351.117 43.6816 352.623C43.7773 353.376 44.5159 353.873 46.0204 354.342ZM51.8878 346.344C59.3077 341.788 66.3242 336.558 72.8548 330.716C84.8538 319.419 94.5223 305.712 101.276 290.424C105.872 280.172 108.833 269.213 110.043 257.974C114.406 217.753 91.7018 187.875 73.3745 163.879C59.1777 145.239 46.9231 129.142 51.1903 114.509C55.9363 98.2699 68.5192 89.7739 78.5444 89.7739C80.5175 89.7012 82.4822 90.0767 84.3011 90.8742C86.1201 91.6717 87.7495 92.872 89.0758 94.3913C93.5208 99.5627 95.2852 108.954 94.0269 120.874C89.9238 159.83 90.6486 215.082 144.222 244.761C160.649 254.009 179.056 258.807 197.74 258.713C221.634 258.713 243.148 251.496 262.159 245.131C276.192 240.442 288.296 236.379 297.952 236.379C305.666 236.379 313.681 238.61 320.095 254.849C335.14 292.782 320.56 324.464 310.521 340.092C297.911 359.642 276.684 375.54 263.185 375.54C259.979 375.693 256.845 374.518 254.473 372.272C239.031 356.914 224.657 347.153 209.256 341.556C195.989 336.739 181.369 334.679 160.361 334.679C137.82 334.664 115.414 338.288 93.9448 345.42C69.9142 353.66 54.5275 354.3 50.3834 354.3C48.93 354.345 47.4762 354.226 46.0477 353.944C44.7895 353.604 44.1193 353.192 44.0509 352.708C43.9141 351.401 47.2377 349.242 51.8605 346.273L51.8878 346.344Z" fill="#5D5D5D"/>
<path d="M78.4578 99.2621C71.1335 99.2621 63.085 106.996 60.4477 113.919C58.6986 118.519 60.0241 126.381 64.0006 134.942C67.7584 143.018 72.746 149.185 76.4355 150.382C76.9807 150.554 77.5465 150.645 78.1162 150.652C78.7397 150.649 79.3584 150.538 79.9473 150.325C84.7026 148.587 84.5933 145.553 84.361 138.93C84.0681 133.115 84.2234 127.285 84.8256 121.496C85.9188 111.141 84.361 103.25 82.2567 100.815C81.7872 100.26 81.1978 99.83 80.5372 99.56C79.8766 99.2901 79.1638 99.1879 78.4578 99.2621ZM84.2107 121.382C83.6085 127.204 83.4532 133.068 83.7461 138.916C83.9784 145.596 84.0741 148.088 79.7833 149.641C78.7859 149.99 77.7062 149.99 76.7088 149.641C73.1833 148.544 68.3596 142.519 64.6838 134.571C60.7894 126.182 59.4639 118.548 61.1446 114.132C63.6999 107.409 71.4752 99.8889 78.5262 99.8889C79.1319 99.8178 79.7452 99.8954 80.317 100.116C80.8888 100.336 81.4033 100.692 81.8194 101.157C83.7461 103.578 85.2082 111.241 84.2107 121.382Z" fill="#5D5D5D"/>
<path d="M-14.7075 73.5319C-13.5333 73.5319 -12.6048 71.7996 -11.6763 67.9374C-8.24907 53.4399 3.07032 34.2566 20.6433 24.0473C38.3939 13.7244 50.3004 11.0408 56.6633 9.60665C59.8311 8.89668 61.415 8.52749 61.7973 7.66133C61.8668 7.46784 61.8906 7.25986 61.8668 7.0548C61.8431 6.84974 61.7724 6.65358 61.6607 6.48278C60.4318 4.1541 38.4485 -8.66785 6.6887 -11.3373L5.32328 -11.4509C2.46954 -11.6923 -0.00189209 -11.9053 -2.36408 -11.9053C-10.6249 -11.9053 -17.3018 -9.49142 -32.8677 4.1825C-35.3254 6.3408 -37.8378 8.34289 -40.2683 10.274C-47.7918 16.2803 -54.2912 21.463 -53.9225 27.3132C-53.5948 31.8285 -49.3074 36.3155 -40.3912 41.4131C-30.5328 47.0928 -24.5249 58.2818 -20.5516 65.6939C-17.9436 70.4222 -16.2778 73.5319 -14.7075 73.5319ZM-40.1181 41.0723C-48.7749 36.1025 -53.1306 31.6013 -53.431 27.3132C-53.8406 21.6334 -47.4231 16.5359 -39.9952 10.6148C-37.5511 8.66948 -35.0387 6.66739 -32.5673 4.49489C-17.1107 -9.07964 -10.502 -11.4793 -2.33677 -11.4793C0.0117683 -11.4793 2.46954 -11.2663 5.32328 -11.025L6.6887 -10.9114C37.6566 -8.31289 60.1588 4.46648 61.3057 6.68157C61.5515 7.13595 61.4969 7.36315 61.4423 7.49094C61.1419 8.15831 59.4351 8.54169 56.595 9.19486C50.2048 10.6148 38.2983 13.3268 20.4658 23.6781C2.63338 34.0294 -8.61773 53.2553 -12.0723 67.8238C-12.9052 71.3878 -13.7654 73.1059 -14.6939 73.1059C-16.0593 73.1059 -17.8207 69.7549 -20.1556 65.5235C-24.1017 58.0546 -30.1505 46.7804 -40.1181 41.0723Z" fill="#5D5D5D"/>
<path d="M-12.479 98.4826C-11.2849 98.4826 -10.4614 97.0602 -9.88493 93.8171C-6.31638 74.2306 1.39716 46.4938 27.173 31.7008C35.8668 26.8272 45.1167 23.1046 54.7058 20.6203C57.0785 19.7444 59.3056 18.492 61.3076 16.9079C64.1487 14.9307 67.0996 12.8683 69.8172 12.8683C70.1255 12.8684 70.4333 12.897 70.7368 12.9536C72.1684 13.3088 73.4902 14.0329 74.5798 15.0587C75.6617 16.1696 77.0842 16.8539 78.6013 16.9932C79.2519 16.9794 79.8944 16.8395 80.4954 16.5807C81.4968 16.0947 82.3199 15.2864 82.8424 14.2764C83.171 13.5129 83.7303 12.8807 84.4358 12.4753C85.1414 12.07 85.955 11.9133 86.754 12.029C89.0736 12.2282 90.3226 14.0631 91.6402 15.9975C92.458 17.4086 93.5635 18.6174 94.8793 19.5393C96.224 20.2708 97.7121 20.6746 99.2302 20.7199C99.6576 20.7692 100.09 20.7138 100.493 20.5582C100.896 20.4025 101.258 20.151 101.55 19.8238C101.761 19.4696 101.89 19.0691 101.926 18.6542C101.962 18.2394 101.903 17.8216 101.756 17.4341C100.864 14.0773 93.9186 10.948 89.3344 8.89974C87.9619 8.28811 86.7952 7.76182 86.0541 7.34933C79.1915 3.59419 72.3289 0.408005 66.6192 -2.20921C42.2982 -13.2328 20.132 -19.9608 -1.15571 -22.7771C-3.26247 -23.0705 -5.38486 -23.2273 -7.51048 -23.2465C-17.9965 -23.2465 -26.1218 -18.4957 -42.2901 -2.9062C-46.2566 0.920061 -50.3468 4.20582 -54.2859 7.37778C-63.1386 14.4898 -70.1247 20.1083 -69.96 27.1776C-69.8228 32.7676 -65.1425 38.7133 -55.2466 45.8964C-39.298 57.4605 -28.7021 75.0272 -21.7023 86.6482C-17.3789 93.7602 -14.5515 98.4826 -12.479 98.4826ZM-55.027 45.4839C-64.8268 38.3719 -69.4385 32.5543 -69.5757 27.1207C-69.7267 20.2647 -62.8229 14.7031 -54.0663 7.66226C-50.1134 4.47608 -46.0233 1.19033 -42.043 -2.65015C-25.9571 -18.1543 -17.9004 -22.8767 -7.53793 -22.8767C-5.43054 -22.8578 -3.32641 -22.701 -1.23808 -22.4073C20.0085 -19.5625 42.1472 -12.8772 66.427 -1.86783C72.1916 0.74939 78.9993 3.92134 85.8344 7.66226C86.5893 8.08898 87.7697 8.61525 89.1422 9.22688C93.6578 11.2751 100.493 14.3618 101.33 17.5195C101.46 17.8441 101.516 18.1956 101.492 18.5462C101.468 18.8968 101.366 19.2368 101.193 19.5393C100.931 19.8018 100.618 20.0025 100.274 20.1277C99.9309 20.2529 99.5654 20.2997 99.2028 20.2647C97.765 20.2126 96.3572 19.8235 95.0852 19.1268C93.8219 18.2447 92.7625 17.0838 91.9833 15.7273C90.6108 13.7928 89.2383 11.8014 86.7952 11.5739C85.9207 11.4507 85.0311 11.622 84.2577 12.0624C83.4842 12.5029 82.8678 13.1893 82.4992 14.0204C82.0205 14.9528 81.265 15.7008 80.3444 16.154C79.7917 16.3923 79.1998 16.5179 78.6013 16.5238C77.1766 16.3817 75.8431 15.7335 74.8268 14.6889C73.7083 13.6421 72.3537 12.9035 70.8877 12.5411C70.5626 12.4721 70.2314 12.4387 69.8995 12.4415C67.0447 12.4415 64.0526 14.5325 61.1566 16.5523C59.2 18.1145 57.0185 19.3481 54.692 20.2078C45.0687 22.7075 35.7831 26.4392 27.0495 31.3168C1.08147 46.2093 -6.68698 74.0742 -10.2692 93.7318C-10.7908 96.6477 -11.5045 97.999 -12.4515 97.999C-14.3044 97.999 -17.2554 93.0917 -21.3455 86.3068C-28.359 74.7142 -39.0235 57.1049 -55.027 45.4839Z" fill="#5D5D5D"/>
<path d="M38.3598 276.69C43.1778 275.996 47.755 274.073 51.6822 271.093C55.6094 268.113 58.7643 264.17 60.8648 259.615C64.7847 251.177 66.9091 236.849 54.7383 216.601C49.5164 207.907 43.7737 199.113 38.2913 190.618C22.5296 166.329 7.64508 143.378 1.49116 120.355C-5.4577 94.3157 0.120567 72.8297 19.062 52.7525C35.509 35.3645 57.1369 25.3899 78.5317 25.3899C94.6086 25.3899 108.959 31.2665 118.923 41.9241C129.887 53.6489 135.37 70.7807 134.753 91.4983C134.616 96.3078 134.397 101.274 134.164 106.524C133.328 125.221 132.396 146.366 135.301 164.038C138.645 184.315 146.581 196.765 159.547 202.329C165.738 205.112 172.388 206.629 179.132 206.797C184.424 206.857 189.65 205.579 194.359 203.072C199.068 200.566 203.119 196.907 206.16 192.411C217.55 176.403 220.277 148.998 212.945 124.211C197.224 71.0226 159.492 39.2633 103.559 5.26992C61.0704 -20.5559 25.2571 -28.5242 -7.17094 -33.291C-9.44025 -33.6374 -11.7302 -33.818 -14.0239 -33.8317C-27.5515 -33.8317 -34.007 -26.7171 -42.1619 -17.6105C-45.3006 -14.1244 -48.5352 -10.4959 -52.551 -6.85327C-56.3506 -3.45015 -60.4429 -0.416122 -64.7766 2.21067C-70.4919 5.86755 -75.426 9.01218 -80.8535 17.4358C-91.6263 34.155 -77.2077 44.4711 -61.9531 55.271C-53.8804 60.9626 -45.5061 66.9389 -41.0792 73.968C-13.0096 118.078 -24.3306 165.219 -44.3 194.574C-50.0017 202.955 -58.3348 210.881 -67.1614 219.276C-77.9479 229.535 -89.0907 240.136 -95.4776 252.003C-98.2188 257.097 -99 260.54 -97.8624 262.575C-97.0264 263.998 -95.1213 264.78 -92.2293 264.78C-86.9663 264.78 -78.6057 262.518 -68.9294 259.886C-55.3469 256.214 -38.4477 251.633 -23.5083 251.633C-16.5974 251.431 -9.72441 252.76 -3.347 255.531C1.84448 258.219 6.71184 261.533 11.1538 265.406C18.4727 271.326 25.3941 276.918 35.1801 276.918C36.2434 276.907 37.3051 276.831 38.3598 276.69ZM-3.14142 255.176C-9.56522 252.362 -16.4986 251.023 -23.4672 251.249C-38.4614 251.249 -55.3881 255.83 -68.9979 259.516C-78.6606 262.134 -86.9937 264.396 -92.2019 264.396C-94.9431 264.396 -96.7249 263.742 -97.4787 262.404C-98.5477 260.526 -97.7665 257.211 -95.0939 252.259C-88.7481 240.477 -77.6189 229.891 -66.8461 219.66C-58.0059 211.251 -49.659 203.311 -43.93 194.887C-32.4245 178.188 -25.5378 158.54 -24.0154 138.07C-22.4666 115.304 -28.1272 93.6611 -40.7639 73.7262C-45.2732 66.6116 -53.6474 60.6781 -61.7476 54.9153C-76.824 44.1723 -91.0918 34.0412 -80.5383 17.6635C-75.1519 9.32522 -70.2589 6.19481 -64.5984 2.58062C-60.2223 -0.05476 -56.0927 -3.10826 -52.2631 -6.54022C-48.6078 -9.94435 -45.1263 -13.5445 -41.833 -17.3259C-33.7466 -26.3045 -27.3459 -33.4048 -13.9964 -33.4048C-11.7255 -33.3904 -9.45846 -33.2097 -7.21206 -32.8641C25.1748 -28.1116 60.9745 -20.1433 103.353 5.63989C159.149 39.5763 196.882 71.2787 212.575 124.325C219.866 148.998 217.166 176.261 205.845 192.155C202.844 196.601 198.844 200.221 194.192 202.7C189.54 205.18 184.375 206.444 179.146 206.384C172.465 206.231 165.874 204.738 159.739 201.987C146.91 196.566 139.057 184.144 135.74 164.024C132.834 146.437 133.766 125.278 134.602 106.61C134.835 101.345 135.055 96.3789 135.192 91.5552C135.795 70.738 130.285 53.4924 119.252 41.6822C109.205 30.9392 94.7594 25.0199 78.5591 25.0199C57.0546 25.0199 35.276 34.9803 18.8016 52.5106C8.74155 63.1824 2.5191 74.1815 -0.194656 86.1624C-2.62059 96.8627 -2.19571 108.104 1.17593 120.526C7.34355 143.62 22.2418 166.585 38.0309 190.917C43.5132 199.455 49.2423 208.191 54.4779 216.885C66.5528 236.991 64.4558 251.149 60.577 259.487C58.5002 263.968 55.3891 267.847 51.5203 270.779C47.6514 273.71 43.1448 275.604 38.401 276.292C37.3723 276.409 36.3383 276.471 35.3035 276.477C25.7094 276.477 18.8564 270.927 11.5238 265.093C7.03223 261.194 2.10911 257.865 -3.14142 255.176Z" fill="#5D5D5D"/>
<path d="M47.4751 259.233C49.2326 257.927 50.6995 256.243 51.7761 254.296C52.8527 252.348 53.5137 250.182 53.7144 247.946C55.3563 233.954 43.425 213.529 32.6978 200.306C19.3298 183.795 6.05755 166.145 -0.428047 149.065C-1.00949 147.042 -1.49355 144.99 -1.87841 142.916C-3.95818 132.796 -7.46095 115.872 -12.5099 115.872C-12.995 115.894 -13.4664 116.046 -13.8781 116.314C-15.9716 117.609 -16.6147 120.157 -15.7663 124.114C-14.8732 127.631 -13.6733 131.057 -12.1815 134.348C-10.7448 137.835 -9.44494 140.838 -9.51335 142.546C-9.51335 146.93 -11.5384 148.866 -13.4403 150.745C-15.1864 152.162 -16.4441 154.129 -17.0252 156.353C-17.7367 159.74 -16.3957 162.288 -15.0959 164.75C-13.796 167.213 -12.6467 169.376 -13.0435 172.408C-13.7687 177.959 -30.7078 198.028 -45.6493 215.721C-57.9638 230.367 -68.691 243.021 -68.4994 245.44C-68.4962 245.521 -68.4776 245.601 -68.4447 245.674C-68.4119 245.747 -68.3653 245.813 -68.3079 245.867C-67.2817 246.764 -65.4345 247.191 -62.6295 247.191C-56.6898 246.88 -50.7782 246.138 -44.9378 244.971C-36.3041 243.547 -26.5209 241.896 -18.024 241.896C-11.3879 241.896 -6.42107 242.878 -2.84988 244.9C-0.893265 246.01 1.25493 247.305 3.55362 248.7C13.7609 254.863 26.4585 262.549 37.213 262.549C40.8877 262.621 44.4866 261.458 47.4751 259.233ZM-2.69938 244.473C-6.33897 242.409 -11.3605 241.412 -18.065 241.412C-26.5893 241.412 -36.3998 243.049 -45.0473 244.501C-50.866 245.657 -56.7544 246.394 -62.6706 246.707C-65.4071 246.707 -67.1448 246.309 -68.1437 245.483C-68.1437 245.483 -68.1437 245.483 -68.1437 245.355C-68.3215 243.106 -57.1975 229.912 -45.3894 215.949C-30.4068 198.199 -13.4403 178.087 -12.7014 172.408C-12.2773 169.234 -13.5497 166.814 -14.7812 164.48C-16.0126 162.146 -17.3535 159.626 -16.6831 156.381C-16.1202 154.245 -14.9053 152.357 -13.2213 151.001C-11.251 149.065 -9.21232 147.058 -9.11654 142.461C-9.11654 140.667 -10.3617 137.621 -11.8531 134.091C-13.3277 130.821 -14.5183 127.42 -15.4106 123.929C-16.1905 120.185 -15.6432 117.794 -13.7002 116.598C-13.3414 116.355 -12.9242 116.222 -12.4962 116.214C-7.77564 116.214 -4.19078 133.622 -2.26152 142.973C-1.88423 145.09 -1.40011 147.186 -0.811157 149.25C5.7018 166.33 19.0014 184.023 32.383 200.491C43.0555 213.657 54.9321 233.94 53.3176 247.803C53.1153 249.983 52.4673 252.092 51.4172 253.99C50.367 255.887 48.939 257.529 47.2288 258.806C44.2933 260.964 40.7656 262.078 37.172 261.98C26.5268 261.98 13.9114 254.322 3.7178 248.187C1.4328 246.821 -0.742752 245.569 -2.69938 244.473Z" fill="#5D5D5D"/>
<path d="M159.245 124.018C157.867 146.233 164.014 161.531 170.271 168.434C173.138 171.588 176.294 173.32 179.134 173.335C183.144 173.335 186.163 170.082 187.624 164.173C197.037 126.149 164.979 86.051 161.051 82.7131C159.907 81.7472 159.135 81.6194 158.625 82.1875C157.702 83.2244 157.991 86.6192 158.515 92.7837C159.554 103.159 159.798 113.603 159.245 124.018ZM159.121 82.6705C159.151 82.6356 159.186 82.6075 159.227 82.5879C159.267 82.5683 159.311 82.5577 159.356 82.5568C159.549 82.5568 159.921 82.6847 160.596 83.2528C164.497 86.5766 196.279 126.305 186.948 164.003C185.57 169.556 182.813 172.624 179.12 172.624C176.474 172.624 173.497 170.963 170.768 167.937C164.593 161.148 158.501 146.063 159.907 124.061C160.464 113.608 160.225 103.127 159.19 92.7127C158.763 87.3578 158.432 83.4801 159.121 82.6705Z" fill="#5D5D5D"/>
<path d="M148.989 122.917C147.392 144.43 151.523 161.845 160.611 171.942C165.362 177.232 171.201 180.139 177.054 180.139C185.399 180.139 192.078 174.169 194.061 164.937C199.858 137.992 190.88 113.657 182.328 98.0286C172.289 79.6777 159.427 66.6875 153.244 62.433C150.972 60.8873 149.388 59.9229 148.411 59.9229C148.253 59.918 148.096 59.9485 147.951 60.0121C147.806 60.0758 147.676 60.1712 147.571 60.2916C146.772 61.2134 147.102 63.8512 147.75 69.07C150.08 86.9178 150.495 104.976 148.989 122.917ZM147.874 60.5185C147.94 60.4411 148.024 60.3804 148.117 60.3411C148.21 60.3018 148.31 60.2849 148.411 60.2916C149.278 60.2916 150.876 61.2702 153.01 62.7308C166.987 72.3317 204.113 116.082 193.647 164.838C191.706 173.885 185.192 179.714 177.123 179.714C171.394 179.714 165.652 176.878 160.983 171.659C151.963 161.647 147.887 144.345 149.471 122.945C150.981 104.989 150.561 86.9167 148.218 69.0558C147.571 64.2341 147.213 61.3411 147.874 60.5185Z" fill="#5D5D5D"/>
<path d="M141.193 124.137C139.613 150.961 144.544 172.133 155.046 183.777C160.495 189.812 167.088 192.993 174.117 192.993C187.603 192.993 199.018 181.633 202.546 164.692C207.736 139.728 203.268 115.148 189.278 91.647C175.098 67.8336 155.482 52.4265 145.048 45.3691C139.735 41.7765 137.46 40.2855 136.589 41.3647C135.717 42.4439 136.343 44.8579 137.27 49.9983C139.313 61.1027 143.522 84.2914 141.193 124.137ZM136.916 41.6487C136.977 41.5771 137.053 41.5208 137.137 41.4839C137.222 41.4471 137.314 41.4306 137.406 41.4357C138.509 41.4357 140.893 43.0545 144.843 45.6957C179.606 69.2252 212.953 112.805 202.151 164.578C198.677 181.306 187.412 192.538 174.13 192.538C167.197 192.538 160.699 189.4 155.346 183.465C144.912 171.906 140.035 150.804 141.601 124.137C143.931 84.2772 139.722 61.046 137.692 49.8989C136.834 45.1845 136.289 42.3445 136.916 41.6061V41.6487Z" fill="#5D5D5D"/>
<path d="M-16.2615 34.9718C-12.4144 34.9718 -9.65483 31.1494 -6.74571 25.4088C-1.58 15.3839 9.17283 10.5394 15.0046 7.93515C17.9273 6.60502 19.0828 6.11498 18.8789 5.2889C18.675 4.46282 18.0089 4.2948 14.0123 4.01477C1.96801 3.17469 -25.0568 15.0058 -28.1291 23.9107C-28.4963 24.8623 -28.5431 25.9132 -28.2622 26.8954C-27.9813 27.8777 -27.3888 28.7346 -26.5793 29.3292C-21.9438 33.2776 -18.8444 34.9297 -16.2071 34.9297L-16.2615 34.9718ZM-27.2862 24.2467C-24.4451 16.112 0.676586 4.95286 12.7208 4.95286C13.1423 4.95286 13.5501 4.95286 13.9307 4.95286C15.2213 4.98283 16.5057 5.14702 17.7642 5.44291C16.7418 6.02083 15.6889 6.53969 14.6104 6.99706C8.71062 9.64332 -2.24612 14.5858 -7.54778 24.9188C-10.8919 31.4154 -13.3388 33.9497 -16.2615 33.9497C-18.654 33.9497 -21.5767 32.3255 -26.0356 28.5311C-26.6829 28.0672 -27.1589 27.3913 -27.3859 26.6135C-27.613 25.8356 -27.5779 25.0014 -27.2862 24.2467Z" fill="#5D5D5D"/>
<path d="M-4.33263 34.6255C4.9651 17.1209 21.9631 11.0134 35.7254 7.64226C37.0907 7.31784 37.1726 6.62669 37.0907 6.23174C36.7767 3.4107 23.8882 -2.07622 4.65108 -2.07622C2.48024 -2.07622 0.254799 -2.0057 -1.957 -1.86465C-10.7359 -1.31455 -31.4613 11.3519 -38.9158 20.7037C-40.8546 23.1298 -41.7284 25.1609 -41.5236 26.7125C-41.0047 30.6055 -37.6461 32.3546 -33.7686 34.3293C-29.6727 36.4451 -24.9897 38.8429 -22.7233 44.4427C-21.358 47.6869 -19.665 49.3372 -17.5761 49.3372C-13.9717 49.3654 -9.53445 44.4145 -4.33263 34.6255ZM-22.0816 44.1888C-24.4436 38.3633 -29.2222 35.9091 -33.441 33.7369C-37.1546 31.8186 -40.363 30.1683 -40.8272 26.6843C-41.0047 25.3443 -40.1583 23.4401 -38.3697 21.1973C-31.0107 11.9302 -10.5584 -0.595175 -1.88875 -1.13117C0.295742 -1.27222 2.50754 -1.34276 4.66472 -1.34276C23.5742 -1.34276 36.176 4.05954 36.4354 6.34458C36.4354 6.71132 35.9029 6.90878 35.5479 6.99341C21.6491 10.3928 4.48724 16.5708 -4.94702 34.3152C-12.8248 49.0269 -18.6547 52.5955 -22.068 44.1888H-22.0816Z" fill="#5D5D5D"/>
<path d="M175.555 156.701C176.285 156.701 176.959 156.183 177.479 155.146C180.216 149.878 180.16 131.7 172.916 120.602C171.961 119.163 170.6 119.364 169.575 121.178C166.851 125.985 165.714 141.329 173.127 154.599C173.913 156.01 174.727 156.701 175.555 156.701ZM170.445 121.696C170.796 121.048 171.189 120.674 171.484 120.674C171.779 120.674 171.989 120.991 172.102 121.192C179.051 131.786 179.191 149.72 176.622 154.671C176.285 155.333 175.906 155.708 175.569 155.708C175.232 155.708 174.559 155.118 173.997 154.124C166.865 141.3 167.89 126.201 170.445 121.696Z" fill="#5D5D5D"/>
<path d="M264.442 200.334C265.416 201.757 267.816 202.425 272.438 202.425C275.318 202.425 278.774 202.183 282.766 201.899C287.703 201.557 293.313 201.173 299.1 201.173C317.451 201.173 329.809 205.213 338.052 213.976C345.719 220.093 349.957 230.065 353.687 238.856C358.213 249.554 362.136 258.772 370.79 258.772C371.758 258.768 372.723 258.663 373.67 258.459C374.374 258.307 375.07 258.117 375.755 257.89V257.15C374.987 257.406 374.233 257.605 373.533 257.762C372.63 257.955 371.712 258.055 370.79 258.061C362.561 258.061 358.748 249.027 354.332 238.558C350.56 229.681 346.295 219.624 338.532 213.421C330.179 204.602 317.657 200.491 299.114 200.491C293.299 200.491 287.689 200.875 282.738 201.23C278.747 201.501 275.318 201.742 272.452 201.742C268.186 201.742 265.827 201.173 265.018 199.95C264.795 199.53 264.678 199.057 264.678 198.577C264.678 198.097 264.795 197.625 265.018 197.204C273.755 173.021 281.051 142.38 280.352 132.949C279.117 116.433 272.122 100.828 265.347 85.7488C257.118 67.2559 249.245 49.8583 254.21 35.32C261.068 15.12 292.613 -19.9455 309.757 -22.3638C310.667 -22.4841 311.583 -22.5411 312.5 -22.5345C325.804 -22.5345 349.243 -12.6621 375.81 3.68279V2.85772C349.271 -13.4161 325.845 -23.2458 312.5 -23.2458C311.555 -23.254 310.611 -23.1921 309.675 -23.0609C292.394 -20.6283 260.547 14.7216 253.579 35.0924C248.519 49.9009 256.391 67.455 264.73 86.0476C271.478 101.07 278.445 116.618 279.68 132.991C280.297 141.256 273.755 170.987 264.401 197.005C264.144 197.521 264.014 198.095 264.021 198.675C264.028 199.255 264.173 199.825 264.442 200.334Z" fill="#5D5D5D"/>
<path d="M285.568 181.653C288.109 185.468 293.478 185.924 300.909 186.479L303.395 186.693C305.745 186.892 308.204 186.978 310.799 187.063C322.875 187.504 336.563 187.988 348.926 199.719L349.076 199.862C355.906 206.111 360.005 217.131 363.611 226.911C367.217 236.692 370.359 245.162 375.345 245.162H375.81V244.721C375.655 244.735 375.5 244.735 375.345 244.721C370.646 244.721 367.559 236.393 363.993 226.74C360.428 217.088 356.275 205.912 349.349 199.577L349.199 199.449C336.727 187.604 322.957 187.12 310.813 186.636C308.218 186.55 305.759 186.465 303.423 186.266L300.936 186.066C293.614 185.468 288.341 185.056 285.91 181.411C283.478 177.766 283.929 171.445 286.962 160.483C289.665 151.271 290.743 141.624 290.145 132.01C288.779 113.716 281.443 97.273 274.339 81.3707C266.935 64.7851 259.941 49.1107 263.602 38.3479C269.695 20.424 299.12 -11.2096 311.305 -12.9038C311.785 -12.9681 312.269 -12.9967 312.753 -12.9892C322.93 -12.9892 345.948 -4.16251 375.81 14.886V14.3877C345.975 -4.61809 322.957 -13.4163 312.753 -13.4163C312.251 -13.4238 311.749 -13.3953 311.25 -13.3308C298.956 -11.5797 269.34 20.2247 263.206 38.234C259.49 49.1534 266.526 64.9133 273.984 81.5985C281.06 97.4011 288.382 113.787 289.748 132.01C290.348 141.585 289.274 151.194 286.579 160.369C283.465 171.673 283.164 178.051 285.568 181.653Z" fill="#5D5D5D"/>
<path d="M35.3605 310.026C55.7517 307.623 80.032 282.475 86.5369 263.255C97.8486 229.876 77.7587 203.008 58.3262 177.036C39.5647 151.945 21.8577 128.261 30.4716 99.4168C37.9762 74.2973 62.2155 60.7353 81.2098 60.7353C91.4533 60.7353 100.3 64.5025 106.147 71.3546C113.091 79.4861 115.816 91.8397 114.035 107.079C107.914 159.436 106.093 216.712 162.322 233.601C168.471 235.496 174.848 236.477 181.262 236.515C204.926 236.515 220.045 222.427 228.549 210.628C244.859 187.982 250.529 154.105 242.641 126.328C235.958 102.786 222.797 79.9552 202.434 56.5274C172.141 21.6984 130.907 -8.25451 76.3482 -35.0231L73.9928 -36.1888C51.0408 -47.4478 27.3082 -59.1048 2.31569 -65.5304C0.836685 -65.9142 -0.806656 -66.3692 -2.55956 -66.8525C-10.2832 -68.9707 -19.8831 -71.629 -28.1272 -71.629C-31.0084 -71.6965 -33.8796 -71.2542 -36.6178 -70.3212C-40.1784 -68.9991 -42.1778 -66.4687 -44.1224 -64.0235C-45.5192 -62.0424 -47.2385 -60.3297 -49.2031 -58.9627C-51.4442 -57.757 -53.7643 -56.7167 -56.1462 -55.8494C-60.7612 -54.0013 -65.5543 -52.0822 -67.1018 -50.2483C-70.0187 -46.6943 -69.2244 -44.5619 -68.4712 -42.4864C-68.0886 -41.7265 -67.8563 -40.8948 -67.7881 -40.0403C-67.7199 -39.1858 -67.8171 -38.3258 -68.0741 -37.5109L-68.6082 -35.8618C-72.7165 -23.1954 -72.7165 -23.1954 -82.3027 -20.3238C-84.1515 -19.7694 -86.4111 -19.087 -89.15 -18.1772C-97.0243 -15.5757 -100.256 -11.5668 -103.379 -7.68586C-105.76 -4.34746 -108.817 -1.59129 -112.335 0.388763H-112.718C-117.648 0.388763 -155.034 2.94764 -157.91 12.4865C-158.691 15.0596 -157.006 17.8601 -152.912 20.7886C-149.616 23.4122 -145.589 24.854 -141.436 24.897C-140.23 24.897 -139.149 24.7833 -138.094 24.6838C-137.244 24.576 -136.389 24.5143 -135.533 24.499C-132.52 24.499 -129.48 25.3946 -125.303 36.0565C-124.276 38.6864 -123.482 40.8473 -122.825 42.6242C-119.593 51.4097 -119.497 51.5234 -111.28 55.1627C-109.24 56.0725 -106.706 57.1956 -103.488 58.7309C-92.9159 63.7917 -90.7522 69.5492 -88.0133 76.8277C-86.4224 81.4186 -84.3416 85.8102 -81.8097 89.9206C-78.574 94.7822 -74.9061 99.318 -70.8541 103.468C-64.1575 110.704 -57.8306 117.542 -55.7901 128.957C-52.298 148.732 -62.6374 167.611 -74.3325 185.068C-80.002 193.526 -91.6561 203.392 -103.995 213.827C-124.865 231.525 -148.612 251.598 -148.694 270.207C-148.694 280.826 -146.119 288.972 -140.888 294.374C-135.191 300.316 -126.536 303.216 -114.416 303.216C-96.86 303.216 -75.2637 297.061 -56.2147 291.63C-41.1507 287.365 -28.2779 283.683 -19.9927 283.683C-18.4035 283.64 -16.8166 283.837 -15.2818 284.266C-7.29787 286.726 -0.957291 291.986 5.16415 297.061C13.285 303.813 20.9676 310.182 31.9369 310.182C33.0801 310.2 34.2233 310.148 35.3605 310.026ZM-15.0079 283.428C-16.6313 282.968 -18.3106 282.758 -19.9927 282.802C-28.4011 282.802 -41.4109 286.498 -56.4749 290.791C-75.4691 296.193 -96.9832 302.321 -114.416 302.335C-126.262 302.335 -134.712 299.492 -140.217 293.805C-145.256 288.545 -147.79 280.641 -147.735 270.292C-147.598 252.153 -124.098 232.151 -103.31 214.58C-90.985 204.103 -79.2214 194.209 -73.4834 185.622C-61.6651 167.98 -51.2299 148.888 -54.7767 128.758C-56.8446 117.059 -63.2673 110.121 -70.0598 102.772C-74.1038 98.6651 -77.7714 94.1773 -81.0154 89.3662C-83.5048 85.3061 -85.5532 80.9722 -87.1232 76.4439C-89.9442 68.9663 -92.1628 63.0525 -103.091 57.8211C-106.323 56.2715 -108.856 55.1485 -110.897 54.2386C-118.812 50.7273 -118.812 50.7273 -121.935 42.2546C-122.592 40.4634 -123.386 38.3168 -124.413 35.6727C-128.398 25.4941 -131.507 23.4896 -135.533 23.4896C-136.421 23.5045 -137.308 23.5661 -138.19 23.6744C-139.217 23.7739 -140.285 23.8877 -141.436 23.8877C-145.402 23.8529 -149.248 22.4753 -152.391 19.9641C-156.089 17.2915 -157.65 14.8748 -157.02 12.7708C-154.514 4.48296 -119.675 1.3981 -112.746 1.3981H-112.403L-112.294 0.943184L-112.088 1.36967C-108.389 -0.669624 -105.175 -3.53988 -102.68 -7.03194C-99.503 -10.984 -96.5039 -14.6943 -88.8898 -17.2248C-86.1509 -18.1204 -83.8776 -18.8027 -82.0425 -19.3571C-72.0866 -22.3425 -71.9633 -22.4989 -67.6907 -35.5348L-67.1429 -37.1839C-66.8466 -38.1135 -66.7315 -39.0951 -66.8044 -40.0714C-66.8773 -41.0476 -67.1367 -41.9991 -67.5674 -42.8703C-68.2932 -44.832 -68.9369 -46.5237 -66.3897 -49.6228C-65.0202 -51.2719 -60.1587 -53.2337 -55.8586 -54.9538C-53.4205 -55.841 -51.0455 -56.9051 -48.7512 -58.1381C-46.6787 -59.5687 -44.8621 -61.363 -43.3829 -63.4407C-41.4383 -65.9 -39.6032 -68.203 -36.3028 -69.4398C-33.6518 -70.3362 -30.8735 -70.7592 -28.0861 -70.6908C-19.9653 -70.6908 -10.4339 -68.0609 -2.76498 -65.9427C-1.01208 -65.4593 0.631271 -65.0044 2.12398 -64.6206C27.0206 -58.2234 50.7121 -46.5948 73.623 -35.3358L75.9785 -34.1843C130.414 -7.45841 171.566 22.4092 201.763 57.1245C222.03 80.4528 235.122 103.156 241.764 126.555C249.57 154.049 243.955 187.555 227.823 209.974C219.442 221.603 204.543 235.463 181.262 235.463C174.938 235.434 168.649 234.477 162.583 232.62C107.12 215.973 108.914 159.152 114.98 107.15C116.802 91.6265 113.994 79.0028 106.86 70.658C100.834 63.5501 91.7272 59.6976 81.2098 59.6976C61.8731 59.6976 37.1956 73.5012 29.5541 99.0899C20.7896 128.417 39.4826 153.423 57.573 177.59C76.8412 203.364 96.7667 230.018 85.6331 262.886C79.2104 281.85 55.3134 306.642 35.251 309.016C34.1506 309.145 33.0443 309.212 31.9369 309.215C21.2963 309.215 13.7506 302.946 5.76672 296.307C-0.436905 291.189 -6.84593 285.873 -15.0079 283.428Z" fill="#5D5D5D"/>
<path d="M160.745 -99.1906C156.101 -95.7837 149.786 -94.137 141.306 -94.137C131.388 -94.137 120.306 -96.4367 110.525 -98.3956C104.772 -99.5881 99.3199 -100.724 94.8815 -101.235C89.8206 -101.774 84.7363 -102.044 79.6487 -102.044C66.3062 -102.044 49.1829 -100.17 43.4432 -91.2412C40.9363 -87.3517 40.8404 -82.4827 43.1281 -76.7335C44.2103 -74.0506 47.0048 -72.5743 49.7034 -71.169C51.8129 -70.283 53.7108 -68.9315 55.2651 -67.2085C56.6899 -64.8282 57.7483 -62.2325 58.4021 -59.5146C59.5117 -55.8096 60.6487 -51.9911 63.2377 -49.734C66.3237 -46.9896 70.2819 -45.5279 74.3473 -45.6315C77.4154 -45.7442 80.466 -46.1625 83.4569 -46.8807C86.4023 -47.5913 89.4072 -48.0049 92.4295 -48.1157C95.0446 -48.1706 97.6325 -47.5563 99.9638 -46.3271C105.443 -43.488 107.703 -39.5133 109.923 -35.7232C112.813 -30.7832 115.539 -26.1271 124.525 -23.941C143.347 -19.3843 148.498 -14.6147 160.95 -3.10225C162.553 -1.68271 164.279 -0.0218811 166.169 1.69577C170.282 5.67366 173.957 10.1107 177.128 14.9259C179.986 19.1936 183.194 23.1974 186.717 26.8925C190.599 30.6445 195.125 33.6104 200.06 35.6369C205.731 38.3198 211.087 40.8466 215.95 49.4915L216.717 50.9111C222.841 61.8699 229.046 72.0196 232.827 72.0196C233.124 72.0233 233.417 71.9591 233.687 71.8315C233.957 71.7039 234.197 71.5161 234.388 71.2814C235.758 69.7341 236.128 65.6033 235.525 58.6475C235.169 54.5877 232.334 50.9395 229.58 47.419C226.621 43.6288 223.827 40.0516 223.991 36.0627C224.197 31.3073 226.964 28.9651 229.895 26.5093C232.255 24.8017 234.197 22.5462 235.567 19.9226C238.69 12.9527 239.443 6.72093 240.183 0.687912C241.197 -7.71574 242.156 -15.6368 249.402 -24.6082C262.866 -40.9872 280.707 -52.8708 300.676 -58.7622C306.833 -60.6801 313.22 -61.6837 319.649 -61.7433C340.197 -61.7433 354.882 -50.174 370.471 -37.9377L375.813 -33.7642V-35.0276C374.21 -36.2626 372.621 -37.5118 371.046 -38.7468C355.334 -51.0967 340.484 -62.7511 319.649 -62.7511C313.152 -62.6939 306.695 -61.6855 300.471 -59.7559C280.322 -53.814 262.323 -41.8208 248.745 -25.2896C241.306 -16.1052 240.334 -8.02806 239.293 0.517548C238.567 6.4796 237.827 12.6404 234.772 19.4542C233.459 21.9383 231.607 24.0718 229.361 25.6859C226.402 28.1985 223.32 30.7821 223.101 35.9776C222.923 40.3071 225.964 44.2109 228.909 47.9726C231.567 51.3795 234.306 54.8999 234.635 58.6759C235.347 66.8382 234.553 69.6347 233.758 70.5432C233.652 70.6723 233.519 70.7759 233.37 70.847C233.221 70.918 233.059 70.9548 232.895 70.9549C229.115 70.9549 221.06 56.5182 217.608 50.3432L216.854 48.9237C211.84 39.9948 206.334 37.4113 200.525 34.6574C195.694 32.6801 191.259 29.7923 187.443 26.1402C183.956 22.4809 180.775 18.5202 177.936 14.3013C174.718 9.42249 170.987 4.92827 166.813 0.900833C164.923 -0.802612 163.197 -2.40668 161.594 -3.883C149.005 -15.5232 143.786 -20.3354 124.745 -24.9489C116.142 -27.0356 113.525 -31.5356 110.745 -36.3052C108.457 -40.2089 106.101 -44.2546 100.402 -47.2924C97.9317 -48.5825 95.1955 -49.2304 92.4295 -49.1804C89.3433 -49.0677 86.2745 -48.6493 83.2651 -47.9312C80.3381 -47.2215 77.3514 -46.808 74.3473 -46.6962C70.5065 -46.5925 66.7659 -47.9739 63.8541 -50.5715C61.4843 -52.644 60.3747 -56.2497 59.3199 -59.8695C58.6432 -62.6984 57.5332 -65.3966 56.0322 -67.8615C54.4016 -69.727 52.3826 -71.1833 50.1281 -72.1201C47.3884 -73.5396 44.95 -74.8314 44.0048 -77.1878C41.8404 -82.6104 41.9089 -87.1245 44.224 -90.7586C49.7034 -99.2758 66.5254 -101.121 79.635 -101.121C84.6676 -101.122 89.697 -100.857 94.7035 -100.326C99.1144 -99.8294 104.539 -98.7079 110.279 -97.4871C120.101 -95.4572 131.224 -93.1434 141.238 -93.1434C149.868 -93.1434 156.416 -94.8468 161.224 -98.3814C173.21 -107.154 169.772 -120.398 166.457 -133.217C162.895 -146.901 159.224 -161.054 173.991 -170.281C176.145 -171.487 178.573 -172.066 181.019 -171.956C189.854 -171.956 202.293 -166.945 214.32 -162.104C224.799 -157.846 234.69 -153.914 241.128 -153.758H243.868C257.704 -153.758 271.69 -156.228 285.21 -158.627C298.731 -161.026 312.676 -163.481 326.471 -163.481C335.463 -163.569 344.423 -162.346 353.087 -159.847C360.847 -157.493 368.44 -154.585 375.813 -151.146V-152.239C368.55 -155.596 361.077 -158.442 353.443 -160.756C344.695 -163.282 335.648 -164.52 326.567 -164.432C312.69 -164.432 298.69 -161.948 285.156 -159.563C271.621 -157.179 257.758 -154.709 243.964 -154.709C243.019 -154.709 242.115 -154.709 241.224 -154.709C234.95 -154.865 225.128 -158.811 214.745 -162.999C202.621 -167.868 190.087 -172.935 181.087 -172.935C178.467 -173.059 175.864 -172.43 173.567 -171.118C158.183 -161.494 161.95 -146.986 165.594 -132.947C168.964 -119.902 172.156 -107.566 160.745 -99.1906Z" fill="#5D5D5D"/>
</g>
</g>
<defs>
<radialGradient id="paint0_radial_676_1001" cx="0" cy="0" r="1" gradientUnits="userSpaceOnUse" gradientTransform="translate(64.7614 50) rotate(19.5708) scale(313.46 672.585)">
<stop stop-color="#F7FFE7"/>
<stop offset="1" stop-color="#D9FF8D"/>
</radialGradient>
<radialGradient id="paint1_radial_676_1001" cx="0" cy="0" r="1" gradientUnits="userSpaceOnUse" gradientTransform="translate(64.7614 50) rotate(19.5708) scale(313.46 672.585)">
<stop stop-color="#F7FFE7"/>
<stop offset="1" stop-color="#FFE2D9"/>
</radialGradient>
</defs>
</svg>
