<svg width="365" height="161" viewBox="0 0 365 161" fill="none" xmlns="http://www.w3.org/2000/svg">
<rect width="365" height="161" fill="url(#paint0_radial_676_923)"/>
<mask id="mask0_676_923" style="mask-type:alpha" maskUnits="userSpaceOnUse" x="0" y="0" width="365" height="161">
<rect width="365" height="161" fill="url(#paint1_radial_676_923)"/>
</mask>
<g mask="url(#mask0_676_923)">
<g style="mix-blend-mode:color-burn">
<path d="M36.8906 291.14C55.003 288.997 74.4258 267.19 74.6714 248.717C75.0536 220.341 59.398 197.768 44.2475 175.89C41.6678 172.187 39.0062 168.342 36.4947 164.539L34.9933 162.269C27.8548 151.6 19.7745 139.568 17.1539 126.43C14.9291 115.349 11.5304 89.5409 15.2293 80.6592C17.9592 74.1468 25.671 70.4153 33.1371 66.7974C38.2964 64.3145 43.1828 61.9592 46.6088 58.7243L46.7589 58.5825C58.4699 47.5441 58.4699 47.5441 66.4546 47.232C68.8705 47.1469 71.9143 47.0475 76.1182 46.6219C80.001 46.2691 83.8493 45.5858 87.6245 44.5788C88.8286 44.2065 90.0696 43.9781 91.3234 43.8978C93.7803 43.8978 95.8413 45.6997 102.652 51.7012C122.785 69.4222 122.403 100.239 122.034 130.048C121.57 167.547 121.092 206.337 161.93 218.61C167.448 220.316 173.168 221.209 178.924 221.263C194.279 221.263 207.341 214.169 216.718 200.648C230.477 180.87 234.135 149.982 225.822 123.805C206.618 63.3922 160.729 28.8442 111.36 -4.0722C66.5092 -33.9949 23.7737 -42.2382 -12.7514 -47.6155C-15.2289 -47.9874 -17.728 -48.1818 -20.2312 -48.1972C-35.0405 -48.1972 -42.0698 -40.3654 -50.9964 -30.4621C-54.5762 -26.3512 -58.3575 -22.4348 -62.3252 -18.7285C-67.348 -14.1458 -73.7359 -10.996 -79.9053 -7.95975C-89.9784 -3.0081 -99.4918 1.65978 -103.423 12.0597C-111.762 34.1222 -91.275 51.304 -73.1899 66.4711C-64.823 73.5651 -56.9201 80.1342 -52.293 86.7601C-33.9213 113.036 -39.4219 157.346 -56.0738 182.246C-61.2742 190.007 -71.2381 199.626 -81.7752 209.799C-99.2461 226.655 -119.051 245.766 -122.545 261.813C-124.197 269.375 -123.76 274.582 -121.18 277.931C-119.065 280.683 -115.502 282.017 -110.261 282.017C-101.676 282.017 -89.3778 278.342 -76.3702 274.44C-60.4689 269.687 -42.4383 264.296 -27.0694 264.296C-20.7066 264.101 -14.3787 265.34 -8.52018 267.928C-2.8651 270.856 2.43594 274.471 7.27188 278.697C15.2839 285.167 22.8456 291.282 33.5465 291.282C34.6628 291.293 35.7789 291.246 36.8906 291.14ZM-8.32909 267.332C-14.2784 264.705 -20.7039 263.447 -27.1649 263.643C-42.6431 263.643 -60.7146 269.049 -76.6568 273.816C-89.6235 277.704 -101.867 281.364 -110.357 281.364C-115.338 281.364 -118.723 280.116 -120.703 277.548C-123.091 274.426 -123.432 269.361 -121.89 262.04C-118.437 246.192 -98.6865 227.166 -81.3111 210.381C-70.7467 200.18 -60.7555 190.518 -55.5142 182.7C-38.7258 157.615 -33.1979 112.923 -51.7334 86.3912C-56.4151 79.6944 -64.3589 73.026 -72.7668 65.9745C-90.6608 50.9635 -110.984 33.9519 -102.795 12.3718C-98.9595 2.2415 -89.5689 -2.38382 -79.5913 -7.26453C-73.3673 -10.3292 -66.9386 -13.4789 -61.8474 -18.1326C-57.8694 -21.8568 -54.0747 -25.7871 -50.4777 -29.9087C-41.674 -39.6985 -34.7129 -47.4311 -20.2039 -47.4311C-17.7322 -47.4228 -15.2643 -47.2284 -12.8197 -46.8493C23.6372 -41.4862 66.3455 -33.2571 111.033 -3.41954C160.279 29.4259 206.072 63.8888 225.194 124.089C233.452 150.053 229.835 180.685 216.2 200.293C206.959 213.588 194.074 220.611 178.951 220.611C173.25 220.556 167.585 219.667 162.122 217.972C144.023 212.523 132.585 201.357 127.125 183.821C122.252 168.1 122.484 148.776 122.716 130.091C123.085 100.125 123.467 69.0817 103.089 51.2047C93.3435 42.6209 93.0841 42.4932 87.4607 43.9403C83.7217 44.9409 79.9098 45.6195 76.0637 45.9693C71.8324 46.3807 68.8433 46.48 66.441 46.5651C58.2515 46.8631 58.2515 46.8631 46.3085 58.0717L46.1447 58.2136C42.8007 61.3633 37.9552 63.7044 32.8504 66.1731C25.2615 69.8336 17.4132 73.636 14.6015 80.3612C10.8343 89.4274 14.2466 115.392 16.4851 126.543C19.133 139.753 27.2543 151.912 34.4337 162.652L35.9351 164.908C38.4466 168.696 41.1082 172.541 43.6878 176.259C58.7019 198.037 74.3712 220.568 73.989 248.618C73.7433 266.793 54.6345 288.231 36.8087 290.345C35.6936 290.474 34.5728 290.54 33.451 290.544C22.9821 290.544 15.5023 284.514 7.59947 278.115C2.71307 274.256 -2.33711 270.17 -8.32909 267.332Z" fill="#5D5D5D"/>
<path d="M356.135 72.2317C355.458 71.7059 354.389 70.7397 353.049 69.5035C347.892 64.8002 339.27 56.8998 333.206 56.8998C332.084 56.8715 330.98 57.1996 330.038 57.841C329.096 58.4824 328.361 59.4073 327.928 60.4947C326.507 63.4929 329.62 70.4413 331.677 75.0025C332.178 76.125 332.611 77.0913 332.882 77.8444C333.437 79.2653 333.937 80.601 334.37 81.7661C337.488 89.9125 340.177 98.2328 342.424 106.689C342.654 107.613 342.87 108.65 343.114 109.759C344.116 114.49 345.374 120.373 348.528 123.257C349.532 124.248 350.727 125 352.033 125.46C352.521 125.615 353.027 125.697 353.536 125.701C357.217 125.701 359.748 121.311 362.198 117.062C362.753 116.096 363.335 115.101 363.904 114.22L364.459 113.339C373.784 98.4337 379.415 89.4392 362.266 76.935C360.56 75.6703 358.395 73.9652 356.135 72.2317ZM363.849 112.856L363.308 113.723C362.726 114.661 362.144 115.67 361.576 116.636C359.234 120.714 356.798 124.934 353.455 124.934C352.996 124.935 352.54 124.863 352.101 124.721C350.89 124.286 349.783 123.584 348.853 122.661C345.902 119.932 344.671 114.135 343.682 109.56C343.452 108.437 343.222 107.386 342.992 106.448C340.733 97.9633 338.022 89.6187 334.871 81.4535C334.438 80.2884 333.924 78.9527 333.369 77.5317C333.085 76.8071 332.652 75.8266 332.151 74.6899C330.269 70.4981 327.129 63.4787 328.402 60.7931C328.777 59.8239 329.425 58.9983 330.259 58.4268C331.094 57.8554 332.075 57.5655 333.071 57.596C338.891 57.596 347.391 65.3827 352.467 70.0292C353.82 71.2654 354.889 72.2459 355.607 72.8711C357.867 74.6046 360.033 76.2529 361.711 77.4749C378.44 89.5245 372.945 98.3058 363.849 112.856Z" fill="#5D5D5D"/>
<path d="M367.417 56.4844C364.411 54.1876 361.418 51.6198 358.249 48.895C348.551 40.5924 337.561 31.1913 327.685 31.1913C325.755 31.1894 323.842 31.5618 322.041 32.2898C304.603 39.1944 307.078 58.5386 310.139 69.3806C312.002 76.0426 314.41 82.6477 316.736 89.0244C319.618 96.5272 322.106 104.19 324.19 111.978C325.266 116.756 326.048 121.602 326.529 126.486C328.284 141.251 329.943 155.189 348.714 155.189C350.197 155.189 351.802 155.103 353.475 154.932C355.32 154.776 357.144 154.412 358.916 153.848C363.908 152.164 365.404 148.997 367.662 144.19C368.342 142.763 369.117 141.08 370.083 139.311C371.523 136.653 373.089 134.073 374.776 131.579V130.837C372.944 133.518 371.241 136.294 369.675 139.154C368.709 140.937 367.934 142.592 367.24 144.047C365.023 148.755 363.568 151.865 358.739 153.505C357.01 154.05 355.233 154.404 353.434 154.561C351.775 154.732 350.183 154.818 348.714 154.818C330.297 154.818 328.746 141.693 326.951 126.486C326.47 121.582 325.684 116.717 324.598 111.921C322.504 104.12 320.011 96.444 317.13 88.9246C314.804 82.5478 312.397 75.9713 310.547 69.3235C307.541 58.5387 305.106 39.4654 322.19 32.675C323.947 31.9633 325.815 31.6004 327.699 31.605C337.438 31.605 348.361 40.9633 358.004 49.2232C361.174 51.9336 364.18 54.5015 367.186 56.8125C369.457 58.5529 371.457 60.0793 372.953 61.1635L374.789 62.4903V61.9624L373.184 60.8069C371.674 59.737 369.675 58.2105 367.417 56.4844Z" fill="#5D5D5D"/>
<path d="M325.721 -150.263H320.466H315.594C306.286 -150.263 298.889 -149.737 290.714 -147.147C286.522 -145.682 282.462 -143.834 278.581 -141.626C272.112 -138.197 266.011 -134.953 258.709 -134.953C257.49 -134.951 256.272 -135.041 255.065 -135.223C249.674 -136.034 245.635 -139.35 241.731 -142.551C237.35 -146.151 233.215 -149.552 227.401 -149.552C226.863 -149.551 226.325 -149.523 225.79 -149.467C222.215 -149.082 216.469 -145.724 210.928 -142.466C207.927 -140.588 204.809 -138.924 201.593 -137.486C198.985 -136.487 196.318 -135.665 193.608 -135.024C187.863 -133.601 187.139 -133.075 184.355 -122.062C183.591 -119.017 182.99 -116.171 182.485 -113.425C180.479 -103.208 178.896 -95.1976 168.455 -87.5567C161.399 -82.3632 152.46 -79.8446 141.159 -79.8446C129.859 -79.8446 118.162 -82.292 107.79 -84.469C102.331 -85.5931 97.2401 -86.6603 93.446 -87.0871C91.235 -87.329 87.823 -87.4855 84.3291 -87.4855C74.3115 -87.4855 62.5743 -83.658 61.7554 -78.1656C61.3596 -75.576 63.3113 -71.663 74.8029 -67.8355L76.0721 -67.4086C119.841 -52.7813 150.372 -33.6719 181.448 -1.48621C190.005 7.39261 196.556 11.5332 202.043 11.5332C203.32 11.5328 204.587 11.2918 205.782 10.8218C211.61 8.55937 215.855 0.861544 220.795 -7.98882C223.334 -12.5705 226.254 -17.7641 229.625 -22.7726C245.787 -46.7464 269.265 -64.3017 296.228 -72.5737C303.57 -74.8225 311.176 -75.9958 318.829 -76.0598C342.399 -76.0598 359.036 -64.0221 374.785 -51.643V-52.5394C359.063 -64.8759 342.426 -76.7285 318.829 -76.7285C311.092 -76.6582 303.403 -75.4657 295.982 -73.1855C268.865 -64.8564 245.257 -47.1905 229.011 -23.0714C225.586 -18.0486 222.692 -12.8409 220.154 -8.24493C215.295 0.520062 211.105 8.08982 205.51 10.2526C204.386 10.6832 203.199 10.9047 202.002 10.9071C196.707 10.9071 190.319 6.83767 181.885 -1.89886C150.727 -34.1699 120.128 -53.322 76.2495 -67.992L74.9666 -68.4189C66.3684 -71.2646 61.8919 -74.6796 62.3832 -77.9522C63.0656 -82.5197 73.5063 -86.6745 84.2882 -86.6745C87.7548 -86.6745 91.1122 -86.518 93.3232 -86.2761C97.1037 -85.8635 102.208 -84.8532 107.613 -83.658C118.012 -81.5379 129.804 -79.0194 141.118 -79.0194C152.433 -79.0194 161.686 -81.5806 168.851 -86.8595C179.51 -94.728 181.134 -102.91 183.154 -113.283C183.7 -116.029 184.246 -118.86 185.024 -121.82C187.753 -132.79 188.354 -132.933 193.759 -134.284C196.497 -134.924 199.191 -135.751 201.825 -136.76C205.076 -138.209 208.227 -139.892 211.255 -141.797C216.496 -144.856 222.419 -148.328 225.859 -148.698C226.371 -148.755 226.886 -148.783 227.401 -148.784C232.969 -148.784 237.023 -145.454 241.322 -141.939C245.293 -138.681 249.388 -135.309 254.97 -134.469C256.213 -134.283 257.467 -134.188 258.723 -134.185C266.188 -134.185 272.644 -137.614 278.895 -140.929C282.745 -143.121 286.773 -144.954 290.932 -146.407C299.012 -148.969 306.368 -149.495 315.608 -149.495H320.466H325.734C333.438 -149.577 341.115 -148.533 348.54 -146.393C357.549 -143.617 366.327 -140.082 374.785 -135.821V-136.618C366.38 -140.845 357.663 -144.362 348.718 -147.133C341.231 -149.295 333.489 -150.349 325.721 -150.263Z" fill="#5D5D5D"/>
<path d="M367.773 69.1532C366.194 68.0206 364.055 66.4068 361.822 64.708C358.621 62.273 355.529 59.654 352.288 56.851C351.552 56.2281 350.735 55.5202 349.877 54.7558C344.429 49.9141 336.87 43.2888 329.964 43.2888C328.103 43.2779 326.276 43.8127 324.694 44.8319C312.749 52.5048 319.927 70.852 324.23 81.8235C324.748 83.1542 325.238 84.4142 325.592 85.5326C328.613 93.3133 331.213 101.263 333.383 109.344C333.778 110.901 334.173 112.742 334.582 114.681C336.488 123.572 339.103 135.761 345.655 140.164C346.673 140.861 347.826 141.32 349.032 141.508C349.385 141.554 349.74 141.577 350.095 141.579C358.103 141.579 366.085 128.937 371.887 119.693C372.949 118.022 373.902 116.508 374.788 115.191V114.455C373.821 115.871 372.745 117.569 371.546 119.466C365.771 128.626 357.858 141.154 350.067 141.154C349.73 141.153 349.394 141.129 349.06 141.084C347.911 140.911 346.813 140.476 345.845 139.81C339.444 135.563 336.856 123.43 334.949 114.596C334.527 112.657 334.132 110.817 333.737 109.245C331.569 101.148 328.964 93.1836 325.933 85.391C325.524 84.2726 325.034 83.0127 324.503 81.6819C320.267 70.8378 313.157 52.703 324.816 45.1999C326.34 44.2474 328.091 43.757 329.869 43.7843C336.679 43.7843 344.075 50.353 349.523 55.1097C350.381 55.8741 351.184 56.5253 351.947 57.2332C355.229 60.0645 358.321 62.6411 361.481 65.076C363.715 66.7749 365.853 68.3887 367.447 69.5354C369.571 71.0643 371.71 72.5791 374.011 74.193L374.72 74.6885V74.1788L374.216 73.8249C372.091 72.1969 369.898 70.6821 367.773 69.1532Z" fill="#5D5D5D"/>
<path d="M296.851 169.793C297.614 170.843 299.072 172.29 302.711 172.631C316.341 173.795 336.922 175.554 354.299 192.043L354.504 192.227C360.663 198.198 365.548 205.449 368.842 213.512C369.837 215.839 371.445 217.187 373.245 217.187C373.76 217.183 374.27 217.072 374.744 216.861V216.35C374.282 216.607 373.768 216.748 373.245 216.762C371.609 216.762 370.137 215.513 369.224 213.342C365.898 205.236 360.976 197.946 354.776 191.944L354.572 191.745C337.085 175.171 316.409 173.411 302.78 172.234C299.304 171.95 297.941 170.602 297.205 169.609C295.858 167.522 295.242 165.017 295.46 162.514C297.355 153.829 299.713 143.017 298.827 131.182C297.328 111.16 289.641 93.9621 282.199 77.2606C276.229 63.9079 269.469 48.7672 271.813 41.8709C275.997 29.5824 293.089 11.9869 300.244 4.97712C304.54 0.638088 310.302 -1.76769 316.286 -1.72053C319.147 -1.69884 321.988 -1.22028 324.71 -0.301536C337.249 3.95544 354.994 13.5478 374.785 26.787V26.3046C355.063 13.1221 337.358 3.51555 324.832 -0.656284C322.071 -1.58467 319.188 -2.06331 316.286 -2.07528C310.184 -2.13138 304.307 0.321295 299.931 4.75007C292.762 11.7599 275.616 29.4263 271.404 41.8C269.005 48.8949 275.807 64.0781 281.804 77.516C289.232 94.1182 296.905 111.288 298.391 131.239C299.263 143.002 296.919 153.773 295.024 162.457C294.822 165.047 295.466 167.632 296.851 169.793Z" fill="#5D5D5D"/>
<path d="M322.201 157.423C325.329 159.205 329.609 159.961 333.765 160.688C336.757 161.123 339.707 161.819 342.586 162.769C344.411 163.507 346.197 164.344 347.936 165.278C351.86 167.288 356.318 169.554 360.392 169.554C361.144 169.556 361.893 169.474 362.628 169.312L363.191 169.155C369.007 167.359 372.108 159.775 374.783 152.819V151.636V151.75C372.039 158.877 368.993 166.903 363.122 168.713L362.601 168.856C361.895 169.024 361.172 169.105 360.447 169.098C356.483 169.098 352.065 166.846 348.169 164.822C346.416 163.879 344.616 163.032 342.778 162.284C339.877 161.329 336.903 160.633 333.889 160.203C329.773 159.476 325.521 158.778 322.462 156.982C315.685 153.119 316.384 146.048 317.139 138.564C317.509 135.674 317.638 132.755 317.523 129.841C315.753 106.121 307.276 87.1763 299.072 68.859C297.237 64.8719 296.221 60.5313 296.088 56.1138C295.956 51.6962 296.711 47.2984 298.304 43.2005C300.173 38.6545 302.922 34.5563 306.379 31.1601C309.836 27.7639 313.928 25.1422 318.401 23.4577C321.257 22.3268 324.288 21.7471 327.345 21.7472C340.583 21.7472 353.012 32.2957 363.973 41.5897C367.087 44.2268 370.022 46.7214 372.835 48.8454L374.783 50.4276V49.9002L373.013 48.5603C370.269 46.4363 367.292 43.956 364.178 41.3189C353.204 31.9678 340.679 21.3623 327.29 21.3623C324.182 21.3634 321.1 21.9527 318.195 23.1014C313.672 24.8034 309.533 27.4531 306.036 30.886C302.539 34.3189 299.757 38.4619 297.865 43.058C296.25 47.2106 295.486 51.6672 295.621 56.1438C295.755 60.6204 296.786 65.0188 298.647 69.0585C306.878 87.3331 315.301 106.249 317.057 129.883C317.171 132.774 317.043 135.669 316.673 138.536C315.945 145.934 315.191 153.418 322.201 157.423Z" fill="#5D5D5D"/>
<path d="M313.522 164.924C316.257 165.65 318.992 166.347 321.727 166.945C336.032 170.402 348.38 173.376 360.729 185L360.975 185.242C363.806 187.917 366.049 189.212 367.813 189.212C368.08 189.216 368.347 189.182 368.606 189.113C371.341 188.472 372.626 184.574 374.076 179.551C374.295 178.783 374.541 178 374.787 177.232V175.809C374.404 177.004 374.035 178.214 373.679 179.423C372.243 184.303 370.944 188.088 368.496 188.686C366.719 189.127 364.394 187.889 361.208 184.901L360.961 184.673C348.531 172.963 336.141 169.975 321.782 166.518C319.143 165.877 316.408 165.223 313.577 164.497C303.539 161.879 305.235 152.062 306.876 142.571C307.739 138.628 308.138 134.591 308.066 130.548C306.438 108.679 298.356 90.5945 290.534 73.1076C289.604 71.0161 288.606 68.9672 287.635 66.9894C282.603 56.7449 278.268 47.8805 284.476 36.9815C289.139 28.7859 296.127 22.0701 302.897 15.6388C304.114 14.4721 305.331 13.3053 306.52 12.1386C309.426 9.47955 313.213 8.1017 317.078 8.29689C333.926 8.29689 359.84 26.9504 374.746 38.1767V37.6503C359.744 26.3386 333.994 7.77044 317.119 7.77044C313.148 7.57608 309.259 8.99433 306.274 11.726C305.085 12.8927 303.868 14.0594 302.65 15.2262C295.813 21.7428 288.852 28.4729 284.162 36.7254C277.844 47.8236 282.439 57.2144 287.307 67.1459C288.278 69.1237 289.276 71.1584 290.206 73.2499C298.015 90.6941 306.083 108.75 307.71 130.548C307.767 134.553 307.367 138.55 306.52 142.457C304.852 152.19 303.115 162.206 313.522 164.924Z" fill="#5D5D5D"/>
<path d="M26.1523 369.732C22.6934 375.148 18.4006 381.902 19.8772 386.565C20.2632 387.593 20.8743 388.515 21.6622 389.255C22.45 389.995 23.3929 390.534 24.416 390.83C24.8903 391.003 25.3898 391.09 25.8925 391.086C31.1834 391.086 39.5639 382.556 46.9191 375.12C51.622 370.357 56.0516 365.865 58.7175 364.599C71.4728 358.585 89.0405 355.728 104.544 353.226C110.669 352.23 116.438 351.278 121.783 350.197C133.28 347.79 144.973 346.538 156.7 346.458C192.697 346.458 222.938 359.936 246.562 386.508C249.2 389.494 253.056 391.001 258.005 391.001C273.426 391.001 299.88 375.362 318.514 346.458C329.656 329.156 345.857 293.769 329.014 251.274C322.26 234.213 312.239 226.309 297.474 226.309C286.222 226.309 273.399 230.574 258.552 235.578C240.287 241.706 219.575 248.644 197.304 248.644C180.297 248.728 163.543 244.351 148.593 235.919C101.03 209.546 99.6358 161.407 103.751 122.438C105.337 107.268 102.753 95.2687 96.2453 87.7336C93.9757 85.097 91.1835 83.0034 88.061 81.5971C84.9385 80.1907 81.56 79.505 78.1581 79.5871C64.4868 79.5871 47.3019 90.6765 41.1224 111.846C35.3121 131.75 49.0928 149.905 65.061 170.89C83.0525 194.547 103.45 221.361 99.4991 257.146C97.5304 274.889 91.2963 291.907 82.8337 302.641C76.4082 310.816 70.7346 311.541 64.7192 312.308C60.1256 312.906 55.3816 313.503 49.8174 317.185C45.5656 320.028 44.2395 324.748 42.8177 329.81C42.0401 333.366 40.6805 336.756 38.7983 339.833C37.6772 341.454 35.7223 341.809 33.6579 342.179C30.9236 342.676 27.8612 343.231 26.2207 346.885C25.0859 349.43 26.5898 352.429 28.039 355.33C29.242 357.747 30.4998 360.249 30.1307 362.324C29.8299 363.974 28.121 366.647 26.1523 369.732ZM28.7362 354.932C27.3691 352.088 26.0019 349.401 26.9316 347.212C28.3944 343.956 31.1424 343.458 33.7673 342.946C35.9 342.563 38.1011 342.165 39.4135 340.274C41.3297 337.113 42.7165 333.637 43.5149 329.995C44.882 325.09 46.1672 320.469 50.1729 317.825C55.6414 314.256 60.235 313.659 64.7465 313.076C70.9123 312.294 76.75 311.541 83.3669 303.124C91.9388 292.234 98.2277 275.045 100.21 257.16C104.202 221.034 83.695 194.078 65.6078 170.293C49.7764 149.493 36.1187 131.523 41.806 112.002C47.8761 91.2026 64.6508 80.3264 78.0898 80.3264C81.3795 80.2454 84.6471 80.9062 87.6678 82.2634C90.6886 83.6206 93.391 85.6419 95.5891 88.1885C101.946 95.553 104.462 107.339 102.89 122.31C98.7882 161.549 100.155 210.001 148.155 236.616C163.219 245.111 180.101 249.512 197.236 249.412C219.629 249.412 240.41 242.459 258.757 236.317C273.535 231.356 286.304 227.076 297.433 227.076C312.034 227.076 321.535 234.626 328.234 251.544C344.927 293.684 328.877 328.786 317.817 345.96C300.044 373.613 273.399 390.133 257.964 390.133C253.247 390.133 249.583 388.712 247.095 385.868C223.362 359.126 192.929 345.591 156.7 345.591C144.923 345.663 133.179 346.915 121.633 349.33C116.315 350.425 110.532 351.363 104.421 352.358C88.8628 354.889 71.2404 357.761 58.3893 363.817C55.6551 365.125 51.3212 369.504 46.3722 374.494C39.0991 381.873 30.8552 390.219 25.8652 390.219C25.4515 390.228 25.0395 390.16 24.6484 390.02C23.7304 389.785 22.8795 389.325 22.1662 388.68C21.4529 388.035 20.8978 387.222 20.547 386.309C19.1799 382.044 23.3633 375.461 26.7265 370.187C28.7499 367.016 30.4861 364.286 30.8279 362.452C31.3201 360.107 30.0076 357.476 28.7362 354.932Z" fill="#5D5D5D"/>
<path d="M356.278 272.819C358.75 274.157 361.521 274.781 364.303 274.626C367.859 274.578 371.389 273.993 374.784 272.891V271.838C371.396 272.978 367.863 273.583 364.303 273.63C361.705 273.775 359.117 273.206 356.797 271.98C348.785 266.644 345.237 257.211 341.484 247.237C338.249 238.629 334.906 229.722 328.395 223.448V223.149H328.109C320.643 216.277 310.571 212.933 297.333 212.933C284.422 212.933 270.843 216.163 259.938 218.766C252.473 220.531 246.045 222.067 241.896 222.067C239.466 222.067 237.979 221.541 237.364 220.474C236.559 219.051 237.173 216.362 239.193 212.506C248.624 194.564 267.663 151.766 266.352 134.052C265.315 120.08 258.873 105.595 252.636 91.6801C243.602 71.4903 234.28 50.5606 241.036 30.6411C248.788 7.87599 282.921 -32.8594 307.214 -36.3168C308.721 -36.5218 310.239 -36.6216 311.759 -36.6156C327.549 -36.6156 350.669 -26.7982 374.757 -12.5842V-13.6513C350.655 -27.8795 327.563 -37.6116 311.759 -37.6116C310.193 -37.6201 308.629 -37.5155 307.078 -37.2986C282.512 -33.7984 247.955 7.30685 240.135 30.2996C233.216 50.646 242.633 71.7322 251.736 92.1354C257.932 106.008 264.333 120.364 265.383 134.151C266.557 149.945 249.948 189.983 238.347 212.065C236.082 216.333 235.508 219.179 236.532 221.015C237.337 222.437 239.084 223.092 241.882 223.092C246.14 223.092 252.623 221.555 260.129 219.762C271.047 217.173 284.518 213.957 297.319 213.957C310.394 213.957 320.302 217.258 327.604 224.059C334.046 230.192 337.376 239.042 340.597 247.621C344.404 257.738 348.007 267.313 356.278 272.819Z" fill="#5D5D5D"/>
<path d="M45.8968 354.342C47.352 354.637 48.8343 354.761 50.316 354.712C54.4762 354.712 69.8753 354.072 93.8812 345.804C115.253 338.688 137.556 335.074 159.993 335.091C197.12 335.091 221.794 340.888 253.561 372.57C256.006 374.889 259.233 376.104 262.536 375.952C276.353 375.952 297.235 360.324 310.084 340.305C320.123 324.677 334.704 292.81 319.632 254.692C313.139 238.297 304.996 236.024 297.167 236.024C287.483 236.024 275.344 240.087 261.322 244.804C242.418 251.155 220.99 258.344 197.216 258.344C178.645 258.442 160.349 253.664 144.021 244.449C90.8259 214.898 90.103 159.83 94.1813 120.987C95.4498 108.954 93.6493 99.4349 89.1346 94.1782C87.7759 92.6126 86.1049 91.3755 84.2389 90.5533C82.3729 89.7312 80.3568 89.3439 78.332 89.4187C68.225 89.4187 55.4855 98.0283 50.698 114.452C46.3742 129.313 58.6635 145.481 72.8897 164.178C91.0851 188.117 113.713 217.952 109.308 257.733C108.11 268.929 105.166 279.846 100.592 290.054C93.8914 305.293 84.2853 318.953 72.3578 330.204C65.8674 336.051 58.8879 341.281 51.5027 345.832C46.4151 349.128 43.3189 351.117 43.5644 352.623C43.6599 353.376 44.3964 353.873 45.8968 354.342ZM51.7482 346.344C59.1478 341.788 66.1451 336.558 72.6579 330.716C84.624 319.419 94.2662 305.712 101.001 290.424C105.585 280.172 108.538 269.213 109.744 257.974C114.095 217.753 91.4534 187.875 73.1762 163.879C59.0182 145.239 46.797 129.142 51.0526 114.509C55.7856 98.2699 68.3341 89.7739 78.332 89.7739C80.2997 89.7012 82.2589 90.0767 84.0729 90.8742C85.8869 91.6717 87.5119 92.872 88.8345 94.3913C93.2674 99.5627 95.027 108.954 93.7721 120.874C89.6802 159.83 90.4031 215.082 143.83 244.761C160.213 254.009 178.568 258.807 197.202 258.713C221.03 258.713 242.486 251.496 261.445 245.131C275.439 240.442 287.51 236.379 297.14 236.379C304.833 236.379 312.826 238.61 319.223 254.849C334.226 292.782 319.686 324.464 309.675 340.092C297.099 359.642 275.93 375.54 262.468 375.54C259.27 375.693 256.145 374.518 253.779 372.272C238.38 356.914 224.045 347.153 208.687 341.556C195.456 336.739 180.875 334.679 159.925 334.679C137.446 334.664 115.101 338.288 93.6903 345.42C69.7253 353.66 54.3807 354.3 50.2478 354.3C48.7985 354.345 47.3486 354.226 45.9241 353.945C44.6692 353.604 44.0009 353.192 43.9327 352.708C43.7963 351.401 47.1107 349.242 51.7209 346.273L51.7482 346.344Z" fill="#5D5D5D"/>
<path d="M78.2464 99.2621C70.9421 99.2621 62.9156 106.996 60.2855 113.919C58.5412 118.519 59.8631 126.381 63.8286 134.942C67.5762 143.018 72.5502 149.185 76.2296 150.382C76.7733 150.554 77.3376 150.645 77.9057 150.652C78.5275 150.649 79.1445 150.538 79.7318 150.325C84.4742 148.587 84.3651 145.553 84.1335 138.93C83.8413 133.115 83.9963 127.285 84.5968 121.496C85.687 111.141 84.1335 103.25 82.0349 100.815C81.5667 100.26 80.9789 99.83 80.3201 99.56C79.6613 99.2901 78.9505 99.1879 78.2464 99.2621ZM83.9836 121.382C83.383 127.204 83.2281 133.068 83.5202 138.916C83.7519 145.596 83.8473 148.088 79.5683 149.641C78.5736 149.99 77.4968 149.99 76.5021 149.641C72.9862 148.544 68.1758 142.519 64.51 134.571C60.6262 126.182 59.3043 118.548 60.9805 114.132C63.5288 107.409 71.2828 99.8889 78.3146 99.8889C78.9186 99.8178 79.5303 99.8954 80.1005 100.116C80.6708 100.336 81.1839 100.692 81.5988 101.157C83.5202 103.578 84.9784 111.241 83.9836 121.382Z" fill="#5D5D5D"/>
<path d="M-14.6663 73.5319C-13.4952 73.5319 -12.5693 71.7996 -11.6433 67.9374C-8.22547 53.4399 3.063 34.2566 20.588 24.0473C38.29 13.7244 50.164 11.0408 56.5095 9.60665C59.6686 8.89668 61.2482 8.52749 61.6295 7.66133C61.6988 7.46784 61.7226 7.25986 61.6989 7.0548C61.6752 6.84974 61.6047 6.65358 61.4933 6.48278C60.2678 4.1541 38.3445 -8.66785 6.67149 -11.3373L5.30979 -11.4509C2.46385 -11.6923 -0.000823327 -11.9053 -2.35656 -11.9053C-10.5948 -11.9053 -17.2535 -9.49142 -32.7768 4.18251C-35.2279 6.3408 -37.7334 8.34289 -40.1572 10.274C-47.6601 16.2803 -54.1418 21.463 -53.7741 27.3132C-53.4473 31.8285 -49.1716 36.3155 -40.2798 41.4131C-30.4483 47.0928 -24.4569 58.2818 -20.4943 65.6939C-17.8935 70.4222 -16.2322 73.5319 -14.6663 73.5319ZM-40.0074 41.0723C-48.6406 36.1025 -52.9844 31.6013 -53.2839 27.3132C-53.6924 21.6334 -47.2925 16.5359 -39.8849 10.6148C-37.4474 8.66948 -34.9419 6.66738 -32.4772 4.49489C-17.0629 -9.07964 -10.4723 -11.4793 -2.32932 -11.4793C0.0127995 -11.4793 2.46385 -11.2663 5.30979 -11.025L6.67149 -10.9114C37.5547 -8.31289 59.9955 4.46648 61.1393 6.68157C61.3844 7.13595 61.3299 7.36315 61.2754 7.49094C60.9759 8.15831 59.2737 8.54169 56.4414 9.19486C50.0687 10.6148 38.1947 13.3268 20.411 23.6781C2.62725 34.0294 -8.59312 53.2553 -12.0382 67.8238C-12.8688 71.3878 -13.7267 73.1059 -14.6527 73.1059C-16.0144 73.1059 -17.7709 69.7549 -20.0994 65.5235C-24.0347 58.0546 -30.067 46.7804 -40.0074 41.0723Z" fill="#5D5D5D"/>
<path d="M-12.4427 98.4826C-11.2519 98.4826 -10.4306 97.0602 -9.85572 93.8171C-6.29692 74.2306 1.39555 46.4938 27.101 31.7008C35.771 26.8272 44.9957 23.1046 54.5585 20.6203C56.9247 19.7444 59.1458 18.492 61.1423 16.9079C63.9756 14.9307 66.9185 12.8683 69.6286 12.8683C69.9361 12.8684 70.243 12.897 70.5457 12.9536C71.9734 13.3088 73.2916 14.0329 74.3782 15.0587C75.4572 16.1696 76.8758 16.8539 78.3887 16.9932C79.0376 16.9794 79.6783 16.8395 80.2776 16.5807C81.2763 16.0947 82.0972 15.2864 82.6182 14.2764C82.946 13.5129 83.5037 12.8807 84.2073 12.4753C84.911 12.07 85.7224 11.9133 86.5192 12.029C88.8324 12.2282 90.078 14.0631 91.392 15.9975C92.2075 17.4086 93.31 18.6174 94.6223 19.5393C95.9633 20.2708 97.4474 20.6746 98.9613 20.7199C99.3875 20.7692 99.8188 20.7138 100.221 20.5582C100.622 20.4025 100.983 20.151 101.275 19.8238C101.485 19.4696 101.614 19.0691 101.65 18.6542C101.685 18.2394 101.627 17.8216 101.48 17.4341C100.59 14.0773 93.6642 10.948 89.0925 8.89974C87.7237 8.28811 86.5603 7.76182 85.8211 7.34933C78.9773 3.59419 72.1335 0.408005 66.4394 -2.20921C42.1848 -13.2328 20.0792 -19.9608 -1.15035 -22.7771C-3.25136 -23.0705 -5.36795 -23.2273 -7.48775 -23.2465C-17.9451 -23.2465 -26.0482 -18.4957 -42.1723 -2.9062C-46.1281 0.920062 -50.207 4.20582 -54.1354 7.37778C-62.9639 14.4898 -69.9309 20.1083 -69.7667 27.1776C-69.6298 32.7676 -64.9623 38.7133 -55.0935 45.8964C-39.1884 57.4605 -28.6215 75.0272 -21.6408 86.6482C-17.3292 93.7602 -14.5095 98.4826 -12.4427 98.4826ZM-54.8745 45.4839C-64.6475 38.3719 -69.2466 32.5543 -69.3834 27.1207C-69.534 20.2647 -62.6491 14.7031 -53.9164 7.66226C-49.9743 4.47608 -45.8954 1.19033 -41.926 -2.65015C-25.884 -18.1543 -17.8493 -22.8767 -7.51513 -22.8767C-5.4135 -22.8578 -3.31512 -22.701 -1.2325 -22.4073C19.956 -19.5625 42.0343 -12.8772 66.2478 -1.86783C71.9966 0.749389 78.7857 3.92134 85.6021 7.66226C86.3549 8.08898 87.5321 8.61525 88.9009 9.22688C93.4041 11.2751 100.221 14.3618 101.056 17.5195C101.185 17.8441 101.241 18.1956 101.217 18.5462C101.193 18.8968 101.091 19.2368 100.919 19.5393C100.658 19.8018 100.345 20.0025 100.003 20.1277C99.6601 20.2529 99.2955 20.2997 98.9339 20.2647C97.5 20.2126 96.0961 19.8235 94.8276 19.1268C93.5677 18.2447 92.5113 17.0838 91.7342 15.7273C90.3654 13.7928 88.9967 11.8014 86.5603 11.5739C85.6881 11.4507 84.801 11.622 84.0296 12.0624C83.2583 12.5029 82.6435 13.1893 82.276 14.0204C81.7986 14.9528 81.0451 15.7008 80.1271 16.154C79.5759 16.3923 78.9857 16.5179 78.3887 16.5238C76.9679 16.3817 75.6381 15.7335 74.6246 14.6889C73.5091 13.6421 72.1583 12.9035 70.6962 12.5411C70.372 12.4721 70.0417 12.4387 69.7107 12.4415C66.8637 12.4415 63.8798 14.5325 60.9917 16.5523C59.0405 18.1145 56.8649 19.3481 54.5448 20.2078C44.9477 22.7075 35.6875 26.4392 26.9778 31.3168C1.08072 46.2093 -6.66651 74.0742 -10.239 93.7318C-10.7591 96.6477 -11.4709 97.999 -12.4153 97.999C-14.2632 97.999 -17.206 93.0917 -21.2849 86.3068C-28.2793 74.7143 -38.9147 57.1049 -54.8745 45.4839Z" fill="#5D5D5D"/>
<path d="M38.2558 276.69C43.0606 275.996 47.6253 274.073 51.5418 271.093C55.4582 268.113 58.6045 264.17 60.6993 259.615C64.6085 251.177 66.7271 236.849 54.5895 216.601C49.3819 207.907 43.6548 199.113 38.1875 190.618C22.4688 166.329 7.62496 143.378 1.48786 120.355C-5.44202 94.3157 0.121006 72.8297 19.0107 52.7525C35.4128 35.3645 56.9815 25.3899 78.3179 25.3899C94.3509 25.3899 108.662 31.2665 118.599 41.9241C129.533 53.6489 135.001 70.7807 134.386 91.4983C134.249 96.3078 134.03 101.274 133.798 106.524C132.964 125.221 132.035 146.366 134.932 164.038C138.267 184.315 146.181 196.765 159.112 202.329C165.286 205.112 171.918 206.629 178.644 206.797C183.921 206.857 189.133 205.579 193.829 203.072C198.525 200.566 202.564 196.907 205.598 192.411C216.956 176.403 219.676 148.998 212.364 124.211C196.686 71.0226 159.057 39.2633 103.276 5.26992C60.9043 -20.5559 25.1888 -28.5242 -7.15058 -33.291C-9.41369 -33.6374 -11.6974 -33.818 -13.9848 -33.8317C-27.4755 -33.8317 -33.9133 -26.7171 -42.046 -17.6105C-45.176 -14.1244 -48.4018 -10.4959 -52.4066 -6.85327C-56.1958 -3.45014 -60.277 -0.416122 -64.5988 2.21067C-70.2985 5.86755 -75.2191 9.01218 -80.6318 17.4358C-91.3752 34.155 -76.996 44.4711 -61.7831 55.271C-53.7324 60.9626 -45.381 66.9389 -40.9662 73.9681C-12.9733 118.078 -24.2634 165.219 -44.1782 194.574C-49.8643 202.955 -58.1747 210.881 -66.9771 219.276C-77.7341 229.535 -88.8465 240.136 -95.216 252.003C-97.9497 257.097 -98.7288 260.54 -97.5943 262.575C-96.7605 263.998 -94.8606 264.78 -91.9766 264.78C-86.7279 264.78 -78.3902 262.518 -68.7403 259.886C-55.1949 256.214 -38.3418 251.633 -23.4433 251.633C-16.5513 251.431 -9.69707 252.76 -3.33708 255.531C1.84021 258.218 6.69427 261.533 11.1241 265.406C18.423 271.326 25.3255 276.918 35.0848 276.918C36.1451 276.907 37.204 276.831 38.2558 276.69ZM-3.13207 255.176C-9.53831 252.362 -16.4527 251.023 -23.4023 251.249C-38.3555 251.249 -55.236 255.83 -68.8087 259.516C-78.4449 262.134 -86.7553 264.396 -91.9492 264.396C-94.6829 264.396 -96.4598 263.742 -97.2116 262.404C-98.2777 260.526 -97.4986 257.211 -94.8333 252.259C-88.5048 240.477 -77.4061 229.891 -66.6627 219.66C-57.8466 211.251 -49.5226 203.311 -43.8092 194.887C-32.3352 178.188 -25.4673 158.54 -23.949 138.07C-22.4045 115.304 -28.0495 93.6611 -40.6518 73.7262C-45.1487 66.6116 -53.5001 60.6781 -61.5781 54.9153C-76.6133 44.1723 -90.8421 34.0412 -80.3174 17.6635C-74.9458 9.32522 -70.0662 6.19481 -64.4211 2.58062C-60.057 -0.0547592 -55.9387 -3.10826 -52.1196 -6.54022C-48.4742 -9.94435 -45.0023 -13.5445 -41.7179 -17.3259C-33.6536 -26.3045 -27.2704 -33.4048 -13.9574 -33.4048C-11.6927 -33.3904 -9.43184 -33.2097 -7.19158 -32.8641C25.1068 -28.1116 60.8086 -20.1433 103.071 5.63989C158.715 39.5763 196.344 71.2787 211.995 124.325C219.266 148.998 216.574 176.261 205.283 192.155C202.291 196.601 198.302 200.221 193.662 202.7C189.023 205.18 183.872 206.444 178.658 206.384C171.994 206.231 165.422 204.738 159.303 201.987C146.509 196.566 138.677 184.144 135.37 164.024C132.472 146.437 133.401 125.278 134.235 106.61C134.468 101.345 134.686 96.3789 134.823 91.5552C135.424 70.738 129.93 53.4924 118.927 41.6822C108.908 30.9392 94.5012 25.0199 78.3452 25.0199C56.8995 25.0199 35.1804 34.9803 18.751 52.5106C8.71844 63.1824 2.51299 74.1815 -0.193351 86.1624C-2.61266 96.8627 -2.18894 108.104 1.17349 120.526C7.32426 143.62 22.1818 166.585 37.9278 190.917C43.3951 199.455 49.1085 208.191 54.3298 216.885C66.3717 236.991 64.2804 251.149 60.4123 259.487C58.3412 263.968 55.2385 267.847 51.3803 270.779C47.522 273.71 43.0277 275.604 38.2968 276.292C37.2709 276.409 36.2398 276.471 35.2078 276.477C25.6399 276.477 18.8057 270.927 11.4931 265.093C7.01378 261.195 2.10411 257.865 -3.13207 255.176Z" fill="#5D5D5D"/>
<path d="M47.3457 259.233C49.0984 257.927 50.5613 256.243 51.6349 254.296C52.7086 252.348 53.3678 250.182 53.5679 247.946C55.2054 233.954 43.3067 213.529 32.6087 200.306C19.2773 183.795 6.04133 166.145 -0.426544 149.065C-1.0064 147.042 -1.48913 144.99 -1.87294 142.916C-3.94703 132.796 -7.44023 115.872 -12.4754 115.872C-12.9591 115.894 -13.4293 116.046 -13.8399 116.314C-15.9276 117.609 -16.5689 120.157 -15.7229 124.114C-14.8323 127.631 -13.6356 131.057 -12.1479 134.348C-10.7151 137.835 -9.4188 140.838 -9.48703 142.546C-9.48703 146.93 -11.5065 148.866 -13.4032 150.745C-15.1445 152.162 -16.3988 154.129 -16.9783 156.353C-17.6879 159.74 -16.3506 162.288 -15.0543 164.75C-13.758 167.213 -12.6118 169.376 -13.0075 172.408C-13.7307 177.959 -30.6236 198.028 -45.5243 215.721C-57.8051 230.367 -68.503 243.021 -68.3119 245.44C-68.3087 245.521 -68.2902 245.601 -68.2574 245.674C-68.2246 245.747 -68.1782 245.813 -68.1209 245.867C-67.0975 246.764 -65.2554 247.191 -62.4581 247.191C-56.5346 246.88 -50.6391 246.138 -44.8147 244.971C-36.2045 243.547 -26.4481 241.896 -17.9744 241.896C-11.3564 241.896 -6.40319 242.878 -2.84177 244.9C-0.89049 246.01 1.25183 247.305 3.54424 248.7C13.7236 254.863 26.3865 262.549 37.1117 262.549C40.7763 262.621 44.3654 261.458 47.3457 259.233ZM-2.69167 244.473C-6.32132 242.409 -11.3291 241.412 -18.0153 241.412C-26.5164 241.412 -36.3001 243.049 -44.9239 244.501C-50.7267 245.657 -56.599 246.394 -62.499 246.707C-65.2281 246.707 -66.961 246.309 -67.9572 245.483C-67.9572 245.483 -67.9572 245.483 -67.9572 245.355C-68.1345 243.106 -57.0409 229.912 -45.265 215.949C-30.3234 198.199 -13.4032 178.087 -12.6664 172.408C-12.2434 169.234 -13.5124 166.814 -14.7405 164.48C-15.9685 162.146 -17.3058 159.626 -16.6372 156.381C-16.0758 154.245 -14.8642 152.357 -13.1849 151.001C-11.22 149.065 -9.18682 147.058 -9.0913 142.461C-9.0913 140.667 -10.333 137.621 -11.8204 134.091C-13.2909 130.821 -14.4783 127.42 -15.3681 123.929C-16.1459 120.185 -15.6001 117.794 -13.6625 116.598C-13.3046 116.355 -12.8886 116.222 -12.4617 116.214C-7.75406 116.214 -4.179 133.622 -2.25501 142.973C-1.87875 145.09 -1.39595 147.186 -0.808611 149.25C5.68655 166.33 18.9498 184.023 32.2949 200.491C42.9382 213.657 54.7824 233.94 53.1722 247.803C52.9705 249.983 52.3243 252.092 51.277 253.99C50.2298 255.887 48.8056 257.529 47.1001 258.806C44.1726 260.964 40.6545 262.078 37.0707 261.98C26.4547 261.98 13.8737 254.322 3.70798 248.187C1.42922 246.821 -0.740391 245.569 -2.69167 244.473Z" fill="#5D5D5D"/>
<path d="M158.81 124.018C157.436 146.233 163.566 161.531 169.806 168.434C172.665 171.588 175.813 173.32 178.644 173.335C182.644 173.335 185.654 170.082 187.111 164.173C196.499 126.149 164.528 86.051 160.611 82.7131C159.47 81.7472 158.701 81.6194 158.192 82.1875C157.271 83.2244 157.56 86.6192 158.082 92.7837C159.118 103.159 159.362 113.603 158.81 124.018ZM158.687 82.6705C158.716 82.6356 158.752 82.6075 158.792 82.5879C158.832 82.5683 158.876 82.5577 158.92 82.5568C159.113 82.5568 159.484 82.6847 160.157 83.2528C164.047 86.5766 195.743 126.305 186.438 164.003C185.063 169.556 182.314 172.624 178.631 172.624C175.992 172.624 173.023 170.963 170.301 167.937C164.143 161.148 158.068 146.063 159.47 124.061C160.026 113.608 159.787 103.127 158.755 92.7127C158.329 87.3578 158 83.4801 158.687 82.6705Z" fill="#5D5D5D"/>
<path d="M148.581 122.917C146.988 144.43 151.108 161.845 160.172 171.942C164.91 177.232 170.733 180.139 176.57 180.139C184.892 180.139 191.552 174.169 193.53 164.937C199.312 137.992 190.358 113.657 181.829 98.0286C171.818 79.6777 158.991 66.6875 152.825 62.433C150.559 60.8873 148.98 59.9229 148.005 59.9229C147.847 59.918 147.691 59.9485 147.547 60.0121C147.402 60.0758 147.272 60.1712 147.167 60.2916C146.37 61.2134 146.7 63.8512 147.345 69.07C149.669 86.9178 150.084 104.976 148.581 122.917ZM147.469 60.5185C147.536 60.4411 147.619 60.3804 147.711 60.3411C147.804 60.3018 147.905 60.2849 148.005 60.2916C148.87 60.2916 150.463 61.2702 152.592 62.7308C166.531 72.3317 203.555 116.082 193.118 164.838C191.182 173.885 184.686 179.714 176.638 179.714C170.925 179.714 165.199 176.878 160.543 171.659C151.548 161.647 147.483 144.345 149.062 122.945C150.568 104.989 150.149 86.9167 147.812 69.0558C147.167 64.2341 146.81 61.3411 147.469 60.5185Z" fill="#5D5D5D"/>
<path d="M140.808 124.137C139.232 150.961 144.15 172.133 154.624 183.777C160.057 189.812 166.632 192.993 173.642 192.993C187.091 192.993 198.475 181.633 201.993 164.692C207.169 139.728 202.713 115.148 188.762 91.647C174.62 67.8336 155.058 52.4265 144.652 45.3691C139.354 41.7765 137.086 40.2855 136.216 41.3647C135.347 42.4439 135.972 44.8579 136.896 49.9983C138.933 61.1027 143.131 84.2914 140.808 124.137ZM136.542 41.6487C136.603 41.5771 136.679 41.5208 136.764 41.4839C136.848 41.4471 136.94 41.4306 137.031 41.4357C138.132 41.4357 140.509 43.0545 144.449 45.6957C179.117 69.2252 212.372 112.805 201.599 164.578C198.135 181.306 186.901 192.538 173.656 192.538C166.741 192.538 160.261 189.4 154.922 183.465C144.517 171.906 139.653 150.804 141.216 124.137C143.539 84.2772 139.341 61.046 137.317 49.8989C136.461 45.1845 135.918 42.3445 136.542 41.6061V41.6487Z" fill="#5D5D5D"/>
<path d="M-16.2167 34.9718C-12.3801 34.9718 -9.62804 31.1494 -6.72687 25.4088C-1.57528 15.3839 9.14818 10.5394 14.9641 7.93515C17.8788 6.60502 19.0311 6.11498 18.8277 5.2889C18.6244 4.46282 17.9601 4.2948 13.9744 4.01477C1.96304 3.17469 -24.9879 15.0058 -28.0518 23.9107C-28.418 24.8623 -28.4647 25.9132 -28.1846 26.8954C-27.9044 27.8777 -27.3135 28.7346 -26.5063 29.3292C-21.8834 33.2776 -18.7925 34.9297 -16.1624 34.9297L-16.2167 34.9718ZM-27.2112 24.2467C-24.3779 16.112 0.675148 4.95286 12.6865 4.95286C13.1068 4.95286 13.5135 4.95286 13.8931 4.95286C15.1801 4.98283 16.461 5.14702 17.7161 5.44291C16.6964 6.02083 15.6464 6.53969 14.5709 6.99706C8.68723 9.64332 -2.23958 14.5858 -7.52674 24.9188C-10.8617 31.4154 -13.3019 33.9497 -16.2167 33.9497C-18.6027 33.9497 -21.5174 32.3255 -25.964 28.5311C-26.6096 28.0672 -27.0843 27.3913 -27.3107 26.6135C-27.5372 25.8356 -27.5021 25.0014 -27.2112 24.2467Z" fill="#5D5D5D"/>
<path d="M-4.31909 34.6255C4.95323 17.1209 21.9048 11.0134 35.6295 7.64226C36.9911 7.31784 37.0728 6.62669 36.9911 6.23174C36.6779 3.4107 23.8247 -2.07622 4.64007 -2.07622C2.47517 -2.07622 0.255807 -2.0057 -1.94994 -1.86465C-10.7049 -1.31455 -31.3736 11.3519 -38.8078 20.7037C-40.7412 23.1298 -41.6126 25.1609 -41.4084 26.7125C-40.891 30.6055 -37.5415 32.3546 -33.6746 34.3293C-29.5899 36.4451 -24.9197 38.8429 -22.6595 44.4427C-21.2979 47.6869 -19.6096 49.3372 -17.5264 49.3372C-13.9318 49.3654 -9.50669 44.4145 -4.31909 34.6255ZM-22.0196 44.1888C-24.3751 38.3634 -29.1406 35.9091 -33.3479 33.7369C-37.0514 31.8186 -40.2511 30.1683 -40.714 26.6843C-40.891 25.3443 -40.0468 23.4401 -38.2632 21.1973C-30.9243 11.9302 -10.5279 -0.595175 -1.88188 -1.13117C0.296638 -1.27222 2.50239 -1.34276 4.65368 -1.34276C23.5115 -1.34276 36.0788 4.05954 36.3375 6.34458C36.3375 6.71132 35.8065 6.90878 35.4525 6.99341C21.5917 10.3928 4.47669 16.5708 -4.9318 34.3152C-12.7881 49.0269 -18.602 52.5955 -22.006 44.1888H-22.0196Z" fill="#5D5D5D"/>
<path d="M175.076 156.701C175.804 156.701 176.476 156.183 176.994 155.146C179.725 149.878 179.669 131.7 172.444 120.602C171.492 119.163 170.134 119.364 169.112 121.178C166.396 125.985 165.262 141.329 172.654 154.599C173.438 156.01 174.25 156.701 175.076 156.701ZM169.98 121.696C170.33 121.048 170.722 120.674 171.016 120.674C171.31 120.674 171.52 120.991 171.632 121.192C178.562 131.786 178.702 149.72 176.14 154.671C175.804 155.333 175.426 155.708 175.09 155.708C174.754 155.708 174.082 155.118 173.522 154.124C166.41 141.3 167.432 126.201 169.98 121.696Z" fill="#5D5D5D"/>
<path d="M263.722 200.334C264.693 201.757 267.087 202.425 271.697 202.425C274.569 202.425 278.016 202.183 281.996 201.899C286.92 201.557 292.514 201.173 298.286 201.173C316.587 201.173 328.911 205.213 337.131 213.976C344.777 220.093 349.003 230.065 352.724 238.856C357.237 249.554 361.149 258.772 369.78 258.772C370.745 258.768 371.707 258.663 372.652 258.459C373.354 258.307 374.048 258.117 374.731 257.89V257.15C373.965 257.406 373.213 257.605 372.515 257.762C371.615 257.955 370.699 258.055 369.78 258.061C361.573 258.061 357.771 249.027 353.367 238.558C349.605 229.681 345.351 219.624 337.61 213.421C329.28 204.602 316.792 200.491 298.3 200.491C292.5 200.491 286.906 200.875 281.969 201.23C277.988 201.501 274.569 201.742 271.71 201.742C267.456 201.742 265.104 201.173 264.297 199.95C264.074 199.53 263.957 199.057 263.957 198.577C263.957 198.097 264.074 197.625 264.297 197.204C273.01 173.021 280.286 142.38 279.589 132.949C278.358 116.433 271.382 100.828 264.625 85.7488C256.418 67.2559 248.567 49.8583 253.519 35.32C260.358 15.12 291.817 -19.9455 308.914 -22.3638C309.821 -22.4841 310.735 -22.5411 311.649 -22.5345C324.917 -22.5345 348.292 -12.6621 374.786 3.68279V2.85772C348.319 -13.4161 324.958 -23.2458 311.649 -23.2458C310.707 -23.254 309.765 -23.1921 308.832 -23.0609C291.598 -20.6283 259.838 14.7216 252.89 35.0923C247.842 49.9009 255.693 67.455 264.01 86.0476C270.739 101.07 277.687 116.618 278.918 132.991C279.534 141.256 273.01 170.987 263.681 197.005C263.425 197.521 263.295 198.095 263.302 198.675C263.31 199.255 263.454 199.825 263.722 200.334Z" fill="#5D5D5D"/>
<path d="M284.788 181.653C287.322 185.468 292.676 185.924 300.087 186.479L302.566 186.693C304.909 186.892 307.361 186.978 309.95 187.063C321.993 187.504 335.643 187.988 347.972 199.719L348.122 199.862C354.933 206.111 359.02 217.131 362.617 226.911C366.214 236.692 369.347 245.162 374.319 245.162H374.782V244.721C374.628 244.735 374.473 244.735 374.319 244.721C369.633 244.721 366.554 236.393 362.998 226.74C359.443 217.088 355.301 205.912 348.394 199.577L348.244 199.449C335.807 187.604 322.074 187.12 309.963 186.636C307.375 186.55 304.923 186.465 302.593 186.266L300.114 186.066C292.812 185.468 287.553 185.056 285.128 181.411C282.703 177.766 283.153 171.445 286.177 160.483C288.873 151.271 289.948 141.624 289.351 132.01C287.989 113.716 280.673 97.273 273.589 81.3707C266.206 64.7851 259.231 49.1107 262.882 38.3479C268.957 20.424 298.302 -11.2096 310.454 -12.9038C310.933 -12.9681 311.415 -12.9967 311.898 -12.9892C322.047 -12.9892 345.002 -4.16251 374.782 14.886V14.3877C345.029 -4.61809 322.074 -13.4163 311.898 -13.4163C311.397 -13.4238 310.896 -13.3953 310.399 -13.3308C298.138 -11.5797 268.603 20.2247 262.486 38.234C258.781 49.1534 265.797 64.9133 273.235 81.5985C280.292 97.4011 287.594 113.787 288.956 132.01C289.554 141.585 288.483 151.194 285.796 160.369C282.69 171.673 282.39 178.051 284.788 181.653Z" fill="#5D5D5D"/>
<path d="M35.2656 310.026C55.601 307.623 79.815 282.475 86.3021 263.255C97.5829 229.876 77.5479 203.008 58.1685 177.036C39.4583 151.945 21.7997 128.261 30.39 99.4168C37.8741 74.2973 62.0471 60.7353 80.9895 60.7353C91.205 60.7353 100.027 64.5025 105.859 71.3546C112.783 79.4861 115.501 91.8397 113.726 107.079C107.621 159.436 105.804 216.712 161.88 233.601C168.013 235.496 174.372 236.477 180.768 236.515C204.368 236.515 219.445 222.427 227.926 210.628C244.192 187.982 249.846 154.105 241.979 126.328C235.315 102.786 222.19 79.9552 201.882 56.5274C171.673 21.6984 130.551 -8.25451 76.1412 -35.0231L73.7922 -36.1888C50.9029 -47.4478 27.2352 -59.1048 2.311 -65.5304C0.83603 -65.9142 -0.802818 -66.3692 -2.55093 -66.8525C-10.2535 -68.9707 -19.8271 -71.629 -28.0487 -71.629C-30.922 -71.6965 -33.7854 -71.2542 -36.5161 -70.3212C-40.067 -68.9991 -42.0609 -66.4687 -44.0002 -64.0235C-45.3932 -62.0424 -47.1078 -60.3297 -49.067 -58.9627C-51.302 -57.757 -53.6157 -56.7167 -55.9911 -55.8494C-60.5936 -54.0013 -65.3736 -52.0822 -66.9168 -50.2483C-69.8258 -46.6943 -69.0337 -44.5619 -68.2825 -42.4864C-67.9009 -41.7265 -67.6693 -40.8948 -67.6013 -40.0403C-67.5332 -39.1858 -67.6302 -38.3258 -67.8865 -37.5109L-68.4191 -35.8618C-72.5162 -23.1954 -72.5162 -23.1954 -82.0762 -20.3238C-83.9199 -19.7694 -86.1733 -19.087 -88.9047 -18.1772C-96.7576 -15.5757 -99.9806 -11.5668 -103.094 -7.68586C-105.469 -4.34746 -108.518 -1.59129 -112.026 0.388764H-112.409C-117.325 0.388764 -154.609 2.94764 -157.477 12.4865C-158.255 15.0596 -156.576 17.8601 -152.492 20.7886C-149.205 23.4122 -145.189 24.854 -141.048 24.897C-139.846 24.897 -138.767 24.7833 -137.715 24.6838C-136.868 24.576 -136.015 24.5143 -135.161 24.499C-132.157 24.499 -129.125 25.3946 -124.959 36.0565C-123.935 38.6864 -123.143 40.8473 -122.488 42.6242C-119.264 51.4097 -119.169 51.5234 -110.975 55.1627C-108.94 56.0725 -106.413 57.1956 -103.204 58.7309C-92.6604 63.7917 -90.5026 69.5492 -87.7712 76.8277C-86.1847 81.4186 -84.1095 85.8102 -81.5845 89.9206C-78.3577 94.7822 -74.6998 99.318 -70.6589 103.468C-63.9805 110.704 -57.671 117.542 -55.6361 128.957C-52.1535 148.732 -62.4646 167.611 -74.1278 185.068C-79.7818 193.526 -91.404 203.392 -103.709 213.826C-124.522 231.525 -148.204 251.598 -148.286 270.207C-148.286 280.826 -145.718 288.972 -140.501 294.374C-134.82 300.316 -126.189 303.216 -114.102 303.216C-96.5937 303.216 -75.0564 297.061 -56.0594 291.63C-41.0366 287.365 -28.199 283.683 -19.9364 283.683C-18.3516 283.64 -16.7691 283.837 -15.2384 284.266C-7.27629 286.726 -0.953046 291.986 5.15167 297.061C13.2503 303.813 20.912 310.182 31.8513 310.182C32.9913 310.2 34.1314 310.148 35.2656 310.026ZM-14.9652 283.428C-16.5842 282.968 -18.2589 282.758 -19.9364 282.802C-28.3219 282.802 -41.2961 286.498 -56.3189 290.791C-75.2613 296.193 -96.7166 302.321 -114.102 302.335C-125.915 302.335 -134.342 299.492 -139.832 293.805C-144.858 288.545 -147.384 280.641 -147.33 270.292C-147.193 252.153 -123.758 232.151 -103.026 214.58C-90.7348 204.103 -79.0033 194.209 -73.281 185.622C-61.495 167.98 -51.0882 148.888 -54.6254 128.758C-56.6877 117.059 -63.0928 110.121 -69.8667 102.772C-73.8996 98.6651 -77.5573 94.1773 -80.7924 89.3662C-83.275 85.3061 -85.3178 80.9722 -86.8835 76.4439C-89.6968 68.9663 -91.9093 63.0525 -102.808 57.8211C-106.031 56.2715 -108.557 55.1485 -110.592 54.2386C-118.486 50.7273 -118.486 50.7273 -121.6 42.2546C-122.255 40.4634 -123.047 38.3168 -124.072 35.6727C-128.046 25.4941 -131.146 23.4896 -135.161 23.4896C-136.047 23.5045 -136.931 23.5661 -137.811 23.6744C-138.835 23.7739 -139.9 23.8877 -141.048 23.8877C-145.003 23.8529 -148.839 22.4753 -151.973 19.9641C-155.661 17.2915 -157.218 14.8748 -156.589 12.7708C-154.09 4.48296 -119.346 1.3981 -112.436 1.3981H-112.094L-111.985 0.943184L-111.78 1.36967C-108.092 -0.669627 -104.886 -3.53988 -102.398 -7.03194C-99.2295 -10.984 -96.2386 -14.6943 -88.6453 -17.2248C-85.9138 -18.1204 -83.6468 -18.8027 -81.8167 -19.3571C-71.888 -22.3425 -71.7651 -22.4989 -67.5041 -35.5348L-66.9578 -37.1839C-66.6623 -38.1135 -66.5476 -39.0951 -66.6203 -40.0714C-66.693 -41.0476 -66.9516 -41.9991 -67.3812 -42.8703C-68.105 -44.832 -68.7469 -46.5237 -66.2066 -49.6228C-64.8409 -51.2719 -59.9927 -53.2337 -55.7043 -54.9538C-53.2729 -55.841 -50.9044 -56.9051 -48.6163 -58.1381C-46.5496 -59.5687 -44.7379 -61.363 -43.2627 -63.4407C-41.3234 -65.9 -39.4934 -68.203 -36.202 -69.4398C-33.5582 -70.3362 -30.7875 -70.7592 -28.0077 -70.6908C-19.9091 -70.6908 -10.4038 -68.0609 -2.75579 -65.9427C-1.00769 -65.4593 0.631174 -65.0044 2.1198 -64.6206C26.9484 -58.2234 50.5751 -46.5948 73.4235 -35.3358L75.7725 -34.1843C130.059 -7.45841 171.099 22.4092 201.213 57.1245C221.425 80.4528 234.482 103.156 241.105 126.555C248.89 154.049 243.29 187.555 227.202 209.974C218.844 221.603 203.985 235.463 180.768 235.463C174.461 235.434 168.19 234.477 162.14 232.62C106.829 215.973 108.618 159.152 114.668 107.15C116.484 91.6265 113.685 79.0028 106.569 70.658C100.56 63.5501 91.4782 59.6975 80.9895 59.6975C61.7057 59.6975 37.0956 73.5012 29.4749 99.0899C20.7344 128.417 39.3763 153.423 57.4174 177.59C76.6329 203.364 96.504 230.018 85.4007 262.886C78.9956 281.85 55.1639 306.642 35.1563 309.016C34.059 309.145 32.9556 309.212 31.8513 309.215C21.2397 309.215 13.7147 302.946 5.75259 296.307C-0.434074 291.189 -6.82559 285.873 -14.9652 283.428Z" fill="#5D5D5D"/>
<path d="M160.305 -99.1906C155.674 -95.7837 149.377 -94.137 140.92 -94.137C131.029 -94.137 119.978 -96.4367 110.223 -98.3956C104.486 -99.5881 99.0486 -100.724 94.6224 -101.235C89.5753 -101.774 84.5049 -102.044 79.4311 -102.044C66.1251 -102.044 49.0486 -100.17 43.3245 -91.2412C40.8245 -87.3517 40.7289 -82.4827 43.0103 -76.7335C44.0896 -74.0506 46.8764 -72.5743 49.5677 -71.169C51.6714 -70.283 53.5641 -68.9315 55.1142 -67.2085C56.5351 -64.8282 57.5906 -62.2325 58.2426 -59.5146C59.3491 -55.8096 60.483 -51.9911 63.065 -49.734C66.1426 -46.9896 70.0899 -45.5279 74.1442 -45.6315C77.204 -45.7442 80.2463 -46.1625 83.2289 -46.8807C86.1663 -47.5913 89.163 -48.0049 92.177 -48.1157C94.785 -48.1706 97.3658 -47.5563 99.6907 -46.3271C105.155 -43.488 107.409 -39.5133 109.622 -35.7232C112.505 -30.7832 115.223 -26.1271 124.185 -23.941C142.956 -19.3843 148.092 -14.6147 160.51 -3.10225C162.109 -1.68272 163.83 -0.0218745 165.715 1.69576C169.817 5.67366 173.482 10.1107 176.644 14.9259C179.494 19.1936 182.694 23.1974 186.207 26.8925C190.078 30.6445 194.592 33.6104 199.513 35.6369C205.169 38.3198 210.51 40.8466 215.36 49.4915L216.125 50.9111C222.232 61.8699 228.42 72.0196 232.191 72.0196C232.487 72.0233 232.78 71.9591 233.049 71.8315C233.318 71.7039 233.557 71.5161 233.748 71.2814C235.114 69.7341 235.483 65.6033 234.882 58.6475C234.527 54.5877 231.699 50.9395 228.953 47.419C226.002 43.6289 223.215 40.0516 223.379 36.0627C223.584 31.3073 226.344 28.9651 229.267 26.5093C231.621 24.8017 233.558 22.5462 234.923 19.9226C238.038 12.9527 238.789 6.72093 239.527 0.687905C240.538 -7.71574 241.494 -15.6368 248.721 -24.6082C262.148 -40.9872 279.94 -52.8708 299.855 -58.7622C305.994 -60.6801 312.365 -61.6837 318.776 -61.7433C339.267 -61.7433 353.912 -50.174 369.459 -37.9377L374.786 -33.7642V-35.0276C373.188 -36.2626 371.603 -37.5118 370.032 -38.7468C354.363 -51.0967 339.554 -62.7511 318.776 -62.7511C312.296 -62.6939 305.857 -61.6855 299.65 -59.7559C279.556 -53.814 261.606 -41.8208 248.065 -25.2896C240.647 -16.1052 239.677 -8.02806 238.639 0.517546C237.915 6.47959 237.177 12.6404 234.131 19.4542C232.822 21.9383 230.974 24.0718 228.734 25.6859C225.784 28.1985 222.71 30.7821 222.491 35.9776C222.314 40.3071 225.347 44.2109 228.284 47.9726C230.934 51.3795 233.666 54.9 233.994 58.6759C234.704 66.8382 233.912 69.6347 233.12 70.5432C233.013 70.6723 232.881 70.7759 232.733 70.847C232.584 70.918 232.423 70.9548 232.259 70.9549C228.489 70.9549 220.456 56.5182 217.013 50.3432L216.262 48.9237C211.262 39.9948 205.77 37.4113 199.978 34.6574C195.16 32.6801 190.736 29.7923 186.931 26.1402C183.453 22.4808 180.281 18.5202 177.45 14.3013C174.24 9.42249 170.52 4.92826 166.357 0.900827C164.472 -0.802615 162.751 -2.40668 161.152 -3.883C148.598 -15.5232 143.393 -20.3354 124.404 -24.9489C115.825 -27.0356 113.215 -31.5356 110.442 -36.3052C108.161 -40.2089 105.811 -44.2546 100.128 -47.2924C97.6641 -48.5824 94.9354 -49.2304 92.177 -49.1804C89.0992 -49.0677 86.0388 -48.6493 83.0377 -47.9312C80.1186 -47.2216 77.1402 -46.808 74.1442 -46.6962C70.3139 -46.5925 66.5836 -47.9739 63.6797 -50.5715C61.3163 -52.644 60.2098 -56.2497 59.1579 -59.8695C58.483 -62.6984 57.3761 -65.3966 55.8792 -67.8614C54.253 -69.727 52.2395 -71.1833 49.9912 -72.1201C47.259 -73.5396 44.8273 -74.8314 43.8846 -77.1878C41.7262 -82.6104 41.7945 -87.1245 44.1032 -90.7586C49.5677 -99.2758 66.3437 -101.121 79.4174 -101.121C84.4363 -101.122 89.4519 -100.857 94.4448 -100.326C98.8437 -99.8294 104.254 -98.7079 109.978 -97.4871C119.773 -95.4572 130.866 -93.1434 140.852 -93.1434C149.458 -93.1434 155.989 -94.8468 160.784 -98.3814C172.737 -107.154 169.308 -120.398 166.002 -133.217C162.45 -146.901 158.789 -161.054 173.516 -170.281C175.663 -171.487 178.085 -172.066 180.524 -171.956C189.336 -171.956 201.74 -166.945 213.734 -162.104C224.185 -157.846 234.049 -153.914 240.469 -153.758H243.202C257 -153.758 270.948 -156.228 284.431 -158.627C297.915 -161.026 311.822 -163.481 325.579 -163.481C334.547 -163.569 343.482 -162.346 352.123 -159.847C359.861 -157.493 367.434 -154.585 374.786 -151.146V-152.239C367.543 -155.596 360.09 -158.442 352.478 -160.756C343.754 -163.282 334.731 -164.52 325.674 -164.432C311.836 -164.432 297.874 -161.948 284.377 -159.563C270.879 -157.179 257.054 -154.709 243.297 -154.709C242.355 -154.709 241.453 -154.709 240.565 -154.709C234.308 -154.865 224.513 -158.811 214.158 -162.999C202.068 -167.868 189.568 -172.935 180.592 -172.935C177.979 -173.059 175.384 -172.43 173.092 -171.118C157.751 -161.494 161.508 -146.986 165.142 -132.947C168.502 -119.902 171.685 -107.566 160.305 -99.1906Z" fill="#5D5D5D"/>
</g>
</g>
<defs>
<radialGradient id="paint0_radial_676_923" cx="0" cy="0" r="1" gradientUnits="userSpaceOnUse" gradientTransform="translate(64.5844 50) rotate(19.6203) scale(312.7 672.378)">
<stop stop-color="#F7FFE7"/>
<stop offset="1" stop-color="#FFE2D9"/>
</radialGradient>
<radialGradient id="paint1_radial_676_923" cx="0" cy="0" r="1" gradientUnits="userSpaceOnUse" gradientTransform="translate(64.5844 50) rotate(19.6203) scale(312.7 672.378)">
<stop stop-color="#F7FFE7"/>
<stop offset="1" stop-color="#FFE2D9"/>
</radialGradient>
</defs>
</svg>
