<svg width="102" height="756" viewBox="0 0 102 756" fill="none" xmlns="http://www.w3.org/2000/svg">
<path d="M0.767881 680.793L101.232 680.794L101.134 676.632C100.769 661.246 95.7087 649.204 85.4654 639.352C79.9186 634.017 71.5837 628.887 67.0903 628.042L64.9345 627.636L64.8865 547.714C64.8435 474.66 64.7506 467.539 63.8099 464.867C63.2446 463.259 62.5248 461.872 62.2104 461.784C61.8966 461.697 60.777 464.745 59.7225 468.557L57.8055 475.489L54.7799 472.411C53.1157 470.717 51.5402 469.332 51.2793 469.332C51.019 469.332 50.0889 470.749 49.2122 472.482L47.6194 475.632L41.6721 469.023L37.25 473.272L37.25 627.636L35.1589 628.03C32.8635 628.461 26.0426 631.909 22.1773 634.592C13.1497 640.857 5.55793 651.884 2.74952 662.811C2.08137 665.411 1.36161 670.521 1.15118 674.166L0.767881 680.793Z" fill="#2C2C2C"/>
<path d="M79.2849 754.813C84.1587 757.558 91.0435 755.339 93.4552 750.246C94.3423 748.373 94.4647 744.913 94.4622 721.698C94.4604 696.913 94.3884 695.164 93.3014 693.377C89.7909 687.609 82.8649 686.242 77.5857 690.277C73.5703 693.347 73.4823 694.081 73.6791 723.07L73.8551 749.009L75.3827 751.242C76.2225 752.47 77.9789 754.078 79.2849 754.813Z" fill="#2C2C2C"/>
<path d="M14.3106 753.991C18.9296 757.522 25.836 756.253 29.2627 751.242L30.7903 749.01L30.9441 722.762C31.0886 697.995 31.0308 696.369 29.9154 693.935C27.0024 687.578 18.5814 686.006 13.3398 690.841C10.241 693.699 10.1807 694.299 10.1807 722.141C10.1807 745.399 10.1631 749.792 12.3273 752.281C12.8505 752.883 13.5012 753.373 14.3106 753.991Z" fill="#2C2C2C"/>
<path d="M61.3203 -4.96408e-08L33.6358 -1.25977e-06L33.6598 285.751L36.0018 291.191C37.2902 294.183 38.5734 296.625 38.8539 296.617C39.1345 296.609 40.1028 294.372 41.006 291.645C41.9091 288.917 42.8048 286.53 42.9956 286.338C43.1869 286.147 43.9055 287.601 44.5927 289.57C46.4906 295.008 47.4023 297.156 47.8115 297.156C48.0157 297.156 49.0978 295.202 50.2163 292.814L52.249 288.472L56.2275 293.893C58.4152 296.875 60.4565 299.406 60.7629 299.519C61.0952 299.642 61.3203 239.152 61.3203 149.862L61.3203 -4.96408e-08Z" fill="#2C2C2C"/>
<path d="M78.8578 321.849C78.9999 321.991 82.1595 321.263 85.8788 320.231C89.5981 319.2 92.8677 318.134 93.1445 317.864C93.4214 317.594 92.502 316.466 91.102 315.359C89.1806 313.838 88.2779 313.477 87.421 313.887C85.9641 314.582 78.5155 321.508 78.8578 321.849Z" fill="#FF7043"/>
<path d="M85.6478 375.834C85.8863 375.834 87.6353 373.197 89.5339 369.974C91.4326 366.752 93.1235 363.757 93.2916 363.319C93.5109 362.749 89.5895 361.319 79.5269 358.299C71.788 355.977 64.9004 353.939 64.2208 353.771C63.5412 353.603 67.9865 358.498 74.0999 364.65C80.2127 370.801 85.4093 375.834 85.6478 375.834Z" fill="#FF7043"/>
<path d="M67.3328 419.033C67.6485 419.033 75.6259 413.309 86.6171 405.195C89.7601 402.875 92.3321 400.747 92.3321 400.466C92.3321 399.776 84.0328 393.113 83.1734 393.113C82.6099 393.113 77.9175 400.502 73.1799 408.85C72.6017 409.869 70.978 412.577 69.5718 414.867C68.165 417.158 67.1573 419.033 67.3328 419.033Z" fill="#FF7043"/>
<path d="M70.1692 391.416C71.2684 395.276 71.7157 395.4 72.5164 392.067C73.2152 389.158 73.3307 389.042 76.4514 388.116L79.6666 387.163L77.1952 386.439C75.836 386.04 74.4039 385.713 74.0134 385.711C73.6223 385.709 72.9656 384.304 72.5535 382.589C71.7114 379.083 71.2993 379.115 70.3843 382.759C69.8004 385.084 69.515 385.349 66.6773 386.195L63.603 387.113L65.4565 387.925C66.4759 388.372 67.7851 388.75 68.3664 388.766C69.0707 388.784 69.6719 389.668 70.1692 391.416Z" fill="#FF7043"/>
<path d="M65.5553 330.573L69.8152 329.408C72.1581 328.767 74.1568 328.16 74.2568 328.06C74.3569 327.96 72.4392 327.352 69.995 326.708C66.259 325.723 65.4805 325.291 65.1129 323.994C64.872 323.145 64.3431 321.237 63.9372 319.752C63.0543 316.524 62.5316 316.938 61.4264 321.743C60.9691 323.729 60.2988 325.446 59.9368 325.558C59.5747 325.67 57.6699 326.207 55.704 326.753C53.738 327.298 52.2701 327.972 52.4419 328.249C52.6142 328.528 54.4288 329.11 56.4745 329.543L60.1944 330.332L61.2052 333.797C61.7618 335.703 62.3265 337.649 62.4612 338.122C62.8479 339.483 63.3781 338.518 64.5063 334.403L65.5553 330.573Z" fill="#FF7043"/>
<path d="M41.7015 399.285C41.6971 399.639 54.2885 407.307 54.8749 407.307C55.088 407.307 55.2462 407.1 55.2258 406.845C55.1411 405.764 49.3756 394.965 48.8832 394.965C48.1986 394.965 41.7064 398.87 41.7015 399.285Z" fill="#FF7043"/>
<path d="M38.7396 378.614C39.0139 378.124 40.4782 374.175 41.9944 369.836C43.5105 365.498 44.7529 361.879 44.7554 361.794C44.7702 361.216 43.3603 362.357 37.1981 367.905C33.3713 371.351 30.1511 374.24 30.0424 374.325C29.9343 374.41 31.7346 375.609 34.0435 376.991C37.4502 379.029 38.3356 379.335 38.7396 378.614Z" fill="#FF7043"/>
<path d="M29.9738 435.696C30.3371 435.696 33.4559 434.981 36.9052 434.108C40.3546 433.235 43.5624 432.304 44.0337 432.041C44.5694 431.741 42.373 430.938 38.1835 429.9C34.4945 428.986 30.9889 428.093 30.3946 427.914C29.4419 427.629 29.3134 428.07 29.3134 431.643C29.3134 434.107 29.5722 435.696 29.9738 435.696Z" fill="#FF7043"/>
<path d="M24.32 356.545C26.5567 355.177 31.7229 351.968 35.8006 349.411C44.1784 344.16 44.7468 343.742 43.5204 343.742C41.5372 343.742 14.4854 350.827 14.4854 351.346C14.4854 351.657 15.7835 353.514 17.3695 355.471L20.2541 359.03L24.32 356.545Z" fill="#FF7043"/>
<path d="M24.3293 334.342C24.6135 334.882 27.2541 333.26 32.8721 329.096C37.3446 325.781 41.015 322.86 41.028 322.605C41.0411 322.351 37.0239 322.143 32.1004 322.143L23.1486 322.143L23.5336 327.851C23.7455 330.99 24.1032 333.911 24.3293 334.342Z" fill="#FF7043"/>
<path d="M12.7864 399.531C14.7548 400.434 21.6986 403.525 33.8915 408.924C37.2587 410.415 40.1081 411.542 40.2236 411.426C40.3385 411.311 38.2787 409.305 35.6455 406.966C33.0123 404.628 29.1898 401.155 27.151 399.248C16.6862 389.462 13.0903 386.279 12.8111 386.557C12.467 386.901 10.8094 395.926 10.7908 397.559C10.784 398.151 11.6551 399.012 12.7864 399.531Z" fill="#FF7043"/>
<path d="M16.8894 438.483C17.3793 436.541 17.9174 435.687 18.6644 435.668C20.3128 435.625 23.4749 434.127 22.799 433.71C22.469 433.506 21.1543 433.143 19.8779 432.904C17.7643 432.508 17.4961 432.227 16.8746 429.763C16.4996 428.274 15.9509 427.056 15.6568 427.056C15.3621 427.056 14.811 428.286 14.4323 429.789C13.7941 432.319 13.5643 432.553 11.337 432.929C7.96858 433.497 7.8234 434.27 10.915 435.173C14.0103 436.076 14.2309 436.326 14.7413 439.513C15.2182 442.495 15.9688 442.136 16.8894 438.483Z" fill="#FF7043"/>
</svg>
