<svg width="20" height="20" viewBox="0 0 20 20" fill="none" xmlns="http://www.w3.org/2000/svg">
<g clip-path="url(#clip0_769_13891)">
<path d="M7.98462 9.375H11.3904V10.5469H7.98462V9.375Z" fill="#2C2C2C"/>
<path d="M15.7187 10.5469H12.5256V11.1328C12.5256 11.4566 12.2717 11.7188 11.958 11.7188H7.41699C7.10328 11.7188 6.84937 11.4566 6.84937 11.1328V10.5469H3.65631C3.2989 10.5472 2.95048 10.4312 2.66051 10.2155C2.37055 9.99983 2.15377 9.69532 2.04096 9.34524L0 3.02383V15.8203C0 16.7896 0.76395 17.5781 1.70288 17.5781H17.6721C18.6111 17.5781 19.375 16.7895 19.375 15.8203V3.0243L17.3339 9.34524C17.2211 9.69532 17.0044 9.99984 16.7145 10.2155C16.4245 10.4313 16.0761 10.5472 15.7187 10.5469H15.7187Z" fill="#2C2C2C"/>
<path d="M11.9579 0H7.41689C6.47793 0 5.71401 0.788594 5.71401 1.75781V2.34375H0.976562L3.11742 8.97445C3.15511 9.09115 3.22744 9.19265 3.32414 9.26454C3.42084 9.33643 3.53701 9.37508 3.65618 9.375H6.84927V8.78906C6.84927 8.46523 7.10319 8.20312 7.41689 8.20312H11.9579C12.2716 8.20312 12.5255 8.46523 12.5255 8.78906V9.375H15.7186C15.963 9.375 16.1798 9.21418 16.2574 8.97445L18.3984 2.34375H13.6608V1.75781C13.6608 0.788555 12.8969 0 11.9579 0ZM6.84927 2.34375V1.75781C6.84927 1.43449 7.10368 1.17188 7.41689 1.17188H11.9579C12.2711 1.17188 12.5255 1.43449 12.5255 1.75781V2.34375H6.84927Z" fill="#2C2C2C"/>
</g>
<defs>
<clipPath id="clip0_769_13891">
<rect width="19.375" height="20" fill="white"/>
</clipPath>
</defs>
</svg>
