<svg width="16" height="16" viewBox="0 0 16 16" fill="none" xmlns="http://www.w3.org/2000/svg">
<circle cx="8" cy="8" r="8" fill="#E24D2C"/>
<path d="M6.90341 9.8196V9.69886C6.90578 9.28456 6.94247 8.95431 7.01349 8.7081C7.08688 8.46188 7.19342 8.26302 7.3331 8.11151C7.47277 7.95999 7.64086 7.82268 7.83736 7.69957C7.98414 7.60488 8.11553 7.50663 8.23153 7.40483C8.34754 7.30303 8.43987 7.19058 8.50852 7.06747C8.57718 6.942 8.61151 6.80232 8.61151 6.64844C8.61151 6.48509 8.57244 6.34186 8.49432 6.21875C8.41619 6.09564 8.31084 6.00095 8.17827 5.93466C8.04806 5.86837 7.90365 5.83523 7.74503 5.83523C7.59115 5.83523 7.44555 5.86955 7.30824 5.93821C7.17093 6.0045 7.05848 6.10393 6.97088 6.23651C6.88329 6.36671 6.83594 6.52888 6.82884 6.72301H5.37997C5.39181 6.24953 5.50545 5.8589 5.72088 5.55114C5.93632 5.241 6.22159 5.01018 6.5767 4.85866C6.93182 4.70478 7.32363 4.62784 7.75213 4.62784C8.22325 4.62784 8.63991 4.70597 9.00213 4.86222C9.36435 5.0161 9.64844 5.23982 9.8544 5.53338C10.0604 5.82694 10.1634 6.18087 10.1634 6.59517C10.1634 6.87216 10.1172 7.11837 10.0249 7.33381C9.9349 7.54687 9.80824 7.73627 9.64489 7.90199C9.48153 8.06534 9.28859 8.2133 9.06605 8.34588C8.87902 8.45715 8.72514 8.57315 8.6044 8.69389C8.48603 8.81463 8.39725 8.95431 8.33807 9.11293C8.28125 9.27154 8.25166 9.46686 8.24929 9.69886V9.8196H6.90341ZM7.60653 12.0923C7.36979 12.0923 7.16738 12.0095 6.99929 11.8438C6.83357 11.6757 6.75189 11.4744 6.75426 11.2401C6.75189 11.008 6.83357 10.8092 6.99929 10.6435C7.16738 10.4777 7.36979 10.3949 7.60653 10.3949C7.83144 10.3949 8.02912 10.4777 8.19957 10.6435C8.37003 10.8092 8.45644 11.008 8.45881 11.2401C8.45644 11.3963 8.41501 11.5395 8.33452 11.6697C8.25639 11.7976 8.15341 11.9006 8.02557 11.9787C7.89773 12.0545 7.75805 12.0923 7.60653 12.0923Z" fill="white"/>
</svg>
